<?xml version="1.0" standalone="no"?>
<!DOCTYPE svg PUBLIC "-//W3C//DTD SVG 1.1//EN" "http://www.w3.org/Graphics/SVG/1.1/DTD/svg11.dtd" >
<svg xmlns="http://www.w3.org/2000/svg" xmlns:xlink="http://www.w3.org/1999/xlink" version="1.1">
<metadata></metadata>
<defs>
<font id="kraashregular" horiz-adv-x="2125" >
<font-face units-per-em="2048" ascent="1638" descent="-410" />
<missing-glyph horiz-adv-x="819" />
<glyph horiz-adv-x="0" />
<glyph unicode="&#xd;" horiz-adv-x="550" />
<glyph unicode=" "  horiz-adv-x="819" />
<glyph unicode="&#x09;" horiz-adv-x="819" />
<glyph unicode="&#xa0;" horiz-adv-x="819" />
<glyph unicode="!" horiz-adv-x="1879" d="M10 -708q0 302 372 512q18 10 35 19l-87 87q-2 -1 -2.5 -1t-2.5 -1q0 6 -0.5 10.5t-1.5 8.5l-16 16h-6q56 415 98 1000.5t69 1341.5q210 71 389.5 131t317.5 105t228 73.5t122 36.5l147 -135q0 -1 -0.5 -2t-0.5 -2l198 -197q-137 -778 -216 -1343t-100 -918 q-56 -25 -113 -48t-116 -45q60 -37 97 -86l172 -172q75 -75 75 -184q0 -149 -85 -259l-1 1q-105 -138 -338 -291q-195 -112 -353 -166.5t-282 -49.5q-183 18 -286 121l-165 165q-108 83 -147 236q-1 9 -1 17.5v18.5zM130 -728q51 -198 287 -221q209 -7 566 199 q215 140 307 262q61 80 61 187q0 110 -149 168q-100 23 -248 8q-233 -25 -515 -176q-326 -183 -309 -427zM438 63q7 0 7 -7q428 92 795 256q38 636 314 2203q-127 -33 -969 -317q-51 -1430 -147 -2135z" />
<glyph unicode="'" horiz-adv-x="1804" d="M10 1602l430 320q57 60 100.5 121t73.5 123l-151 150q-122 90 -122 294q11 85 30 149t45 107v-1q40 76 95.5 145.5t127.5 138.5q89 74 178 118q88 42 178 62.5t187 20.5q210 0 325 -147l163 -164l-1 1l3 -2q69 -69 110 -184l12 -60v-76q-35 -327 -305 -687 q-288 -355 -499 -477l-174 -75q-92 -37 -240 -55.5t-357 -18.5l-197 197h-12zM373 1722q34 0 199 66l169 73q181 105 456 442q250 333 280 618v66l-8 37q-72 206 -287 206q-165 0 -313 -71q-75 -38 -150 -99q-128 -121 -199 -257q-42 -66 -59 -199q0 -197 162 -228 q70 0 169 22q-7 -292 -272 -566z" />
<glyph unicode="," horiz-adv-x="1804" d="M10 -899l430 320q57 61 100.5 121.5t73.5 122.5l-151 151q-122 90 -122 293q11 85 30 149t45 107v-1q40 76 95.5 145.5t127.5 138.5q89 74 178 118q88 42 178 62.5t187 20.5q210 0 325 -147l163 -164l-1 1l3 -2q69 -69 110 -184l12 -60v-76q-35 -327 -305 -687 q-288 -355 -499 -477l-174 -75q-92 -37 -240 -55.5t-357 -18.5l-197 197h-12zM373 -779q34 0 199 66l169 73q181 105 456 442q250 333 280 618v66l-8 37q-72 206 -287 206q-165 0 -313 -71q-75 -38 -150 -99q-128 -121 -199 -257q-42 -66 -59 -199q0 -197 162 -228 q70 0 169 22q-7 -292 -272 -566z" />
<glyph unicode="-" d="M10 1252q474 117 892 240.5t781 253.5l159 -116v-4l197 -197q-1 -23 -1 -44.5v-44.5q0 -137 18.5 -304.5t58.5 -371.5q-881 -199 -1579 -522l-198 198l-4 -2zM167 1167l236 -665q592 274 1375 451q-67 349 -56 680q-736 -264 -1555 -466z" />
<glyph unicode="." horiz-adv-x="1577" d="M10 97q19 244 229 416q94 76 204 134.5t240 102.5q80 16 140 24t103 8q227 0 358 -160l169 -168q30 -30 55 -66.5t46 -80.5l13 -66v-70q-10 -134 -127 -302q-69 -78 -135.5 -134t-127.5 -91q-91 -55 -203 -87.5t-249 -42.5q-282 0 -409 127l-168 168q-126 96 -138 288z M131 95q15 -264 390 -264q244 18 400 116q107 58 226 193q95 137 103 236v58l-8 37q-91 191 -316 191q-70 0 -214 -29q-228 -76 -397 -213q-169 -138 -184 -325z" />
<glyph unicode="0" horiz-adv-x="2857" d="M177 199q1 143 33 292t95 307q112 243 207 377q20 32 64 86t113 125q188 194 501 350q88 35 189 52.5t216 17.5q27 0 60 -1t62 -3l9 -1q221 -35 403 -193q26 -29 49.5 -59.5t45.5 -62.5q54 -35 105 -78q107 -120 179 -261.5t108 -307.5q22 -125 22 -241q0 -75 -9 -156 l1 3q-6 -85 -35.5 -178t-82.5 -196q-64 -128 -189 -264.5t-311 -278.5q-133 -97 -260 -168.5t-253 -119.5q-73 -34 -182 -56t-261 -35q-333 30 -529 313q-131 87 -223 234q-127 231 -127 503zM297 199q0 -244 110 -442q165 -261 450 -287q274 22 397 81q235 90 486 273 q350 267 464 500q95 185 106 330q20 181 -11 362q-65 295 -250 501q-157 137 -341 165q-281 20 -469 -55q-289 -144 -463 -324q-137 -143 -162 -191q-92 -127 -199 -361q-116 -289 -118 -552zM928 349q0 217 212 463q126 145 388 212q253 -1 237 -225q-19 -134 -125 -300 q-241 -328 -550 -362q-127 23 -162 212zM1293 330q130 78 249 238l-3 -4q14 22 26 43t23 41q-50 -24 -89 -52t-68 -63v1q-47 -54 -81 -104.5t-57 -99.5zM1845 609v2v1v-3z" />
<glyph unicode="1" horiz-adv-x="2626" d="M206 1050q589 477 997 1042q290 -58 538 -58q175 0 453 42l256 -308q-140 -625 -202.5 -1212.5t-62.5 -1192.5v-198q-204 -38 -367.5 -57t-287.5 -19q-141 0 -286 28.5t-296 87.5l-200 200q78 300 137 554t98 468q-254 232 -577 423zM415 1065q276 -163 501 -394 q150 130 259 240q-61 -579 -284 -1433q341 -130 974 -13q-11 1277 253 2471q-478 -54 -863 23q-370 -514 -840 -894z" />
<glyph unicode="2" horiz-adv-x="2871" d="M110 1219q0 148 52 289q306 641 1074 695q25 3 50 4t51 1q206 0 449 -88q206 -122 327 -286q174 -133 264 -300.5t95 -374.5q0 -8 0.5 -15.5t0.5 -15.5q0 -343 -301 -739q85 -14 180 -33t203 -42l200 -200q-180 -257 -268 -483t-89 -426q-672 111 -1037 111 q-443 0 -726 -221l-200 200q-124 271 -124 409q0 290 270 596q65 68 122.5 131t108.5 123q-78 -20 -166 -47t-190 -61l-200 200q-146 355 -146 573zM271 1459q-104 -281 53 -663q479 160 713 134q-6 97 -44 183q-10 173 118 251q190 -21 199 -165l1 -11q3 -63 -37 -147 q-109 -307 -605 -822q-347 -391 -188 -736q343 270 1598 63q1 296 275 690q-499 111 -816 54q635 603 614 1068q-11 414 -415 652q-273 99 -493 73q-699 -50 -973 -624z" />
<glyph unicode="3" horiz-adv-x="3014" d="M93 106q317 434 658 595l186 -192q-33 164 -33 253q0 33 3 69t10 77q-25 44 -47.5 86.5t-42.5 85.5q-17 -9 -34.5 -18.5t-35.5 -19.5q-282 454 -276 880q544 291 1075 291q197 0 400 -36l11 -2q385 -108 610 -336q226 -212 226 -578q0 -51 -6 -107t-20 -116 q-73 -245 -331 -420q119 -118 230 -305q30 -89 44.5 -172t14.5 -161q0 -428 -417 -741q-278 -188 -633 -188q-142 0 -299 30q-526 147 -906 581q-213 184 -387 444zM240 103q359 -533 975 -705q490 -94 834 139q502 376 316 929q-152 257 -329 368q347 176 425 435 q134 605 -526 790q-709 124 -1335 -210q-5 -319 199 -647q474 263 675 202q156 -125 22 -277q-159 -113 -432 -103q-65 -203 -25 -431q579 -37 604 -317q-55 -417 -565 -176q-259 143 -388 440q-199 -94 -450 -437zM961 477q66 -146 141 -252q8 -5 16.5 -10t17.5 -10l-4 2 q81 -38 145 -56.5t113 -18.5q42 0 71.5 23.5t46.5 68.5q-70 20 -162.5 33.5t-208.5 21.5q-20 106 -27 183q-68 9 -149 15zM1129 209q1 -1 1.5 -1t1.5 -1zM1329 9q1 -1 1.5 -1t1.5 -1z" />
<glyph unicode="4" horiz-adv-x="3163" d="M178 515q0 16 1 43t2 56.5t2.5 57t2.5 44.5q341 233 632.5 600.5t585.5 954.5q550 -160 1006 -629q-2 -2 -2.5 -3.5t-2.5 -3.5q51 -45 102.5 -92.5t102.5 -100.5q-107 -155 -199 -280.5t-174 -229.5q132 19 267 40.5t276 47.5l200 -200q-38 -180 -58 -321.5t-20 -247.5 q0 -78 11 -190.5t31 -258.5q-269 -11 -446.5 -18.5t-252.5 -24.5q6 -177 31 -357t70 -369q-632 -42 -1109 -336l-200 200q-3 88 -6.5 187t-6 197t-5 190.5t-3.5 168.5q-135 -13 -263 -27t-231 -27l-200 200q-144 381 -144 729zM302 650q-26 -404 99 -733q339 42 739 71 q-15 -125 10 -881q329 203 846 237q-73 304 -73 717q149 33 684 55q-57 400 19 754q-534 -96 -1144 -142q312 238 773 901q-364 375 -797 506q-494 -1033 -1156 -1485z" />
<glyph unicode="5" horiz-adv-x="3153" d="M108 18q126 80 330 228l-57 51q-1 183 -2 377t-2 386t-2 375.5t-2.5 346t-2.5 298t-2 230.5q887 31 1380.5 59.5t669.5 87.5l269 -291q6 -86 5.5 -115t-0.5 -60q0 -145 15 -345t46 -463q-106 18 -205.5 31.5t-193.5 23.5q153 -96 338 -308q251 -283 251 -704v-42 q-113 -656 -526 -962q-362 -219 -703 -219q-32 0 -63 2t-63 6q-284 40 -603.5 242t-676.5 565q2 2 4 3q-51 46 -101.5 95t-102.5 102zM298 -3q582 -593 1105 -667q357 -44 754 196q364 270 466 866q11 397 -222 640q-338 351 -833 411q-211 20 -335 -7l-6 118 q661 62 1188 -26q-52 444 -41 784q-212 -61 -1885 -118q6 -573 11 -1672q304 207 530 238q724 26 731 -392q-58 -304 -467 -186q-190 64 -406 293q-266 -272 -590 -478zM1138 412q112 -89 194 -116l-5 1q96 -28 169 -28q116 0 144 109q-1 5 -1.5 11t-1.5 11q-126 41 -326 41 q-20 0 -32.5 0.5t-33.5 -0.5q-23 -4 -50 -11t-57 -18z" />
<glyph unicode="6" horiz-adv-x="2971" d="M130 424q0 435 207 852q105 180 195.5 306t170.5 199q416 370 949 370q334 0 774 -169l203 -326q-33 -101 -49 -205.5t-16 -214.5q0 -59 11 -161.5t36 -260.5q-401 101 -576 101q-48 0 -91.5 -4t-84.5 -12q405 -35 642 -288q278 -303 343 -756q0 -389 -315 -683 q-444 -369 -921 -369q-297 0 -601 143q-265 146 -417 307q-207 198 -309 410q-75 196 -113 385t-38 376zM390 -285q135 -276 472 -462q726 -340 1388 209q396 369 220 908q-242 435 -757 412q-287 -37 -496 -162q-38 321 190 511q308 183 857 44q-59 382 51 718 q-906 354 -1531 -201q-145 -134 -341 -472q-357 -719 -53 -1505zM1322 -109q25 296 395 412q259 -11 114 -323q-148 -227 -390 -276q-144 11 -119 187z" />
<glyph unicode="7" horiz-adv-x="3147" d="M130 1189q104 225 156.5 429t52.5 391q0 11 -1 42.5t-2 67t-2.5 67t-1.5 42.5q613 -60 1179 -60q267 0 543 10.5t642 49.5l263 -282q-7 -370 -93.5 -625t-251.5 -456q-161 -221 -301.5 -455.5t-258.5 -480.5t-212 -502t-163 -520q-520 248 -1217 296l-200 200 q18 42 42 96t50 114t53 122t53 121t49.5 112.5t41.5 94.5q10 21 20 43t19 43q95 185 191.5 358t197.5 338q-290 36 -649 144zM297 1264q547 -164 1033 -97q-331 -484 -631 -1069q-128 -288 -259 -587q550 -37 960 -233q247 952 918 1859q308 369 321 954q-1228 -88 -2182 5 q19 -448 -160 -832z" />
<glyph unicode="8" horiz-adv-x="3131" d="M147 -195q0 180 76 363.5t232 377.5q-220 211 -220 629q0 393 412 838q491 455 1090 504h13q257 -8 451.5 -89.5t357 -287.5t250.5 -605q1 -10 1 -24.5v-23.5q0 -184 -66.5 -348.5t-197.5 -313.5q5 -7 9.5 -13.5t9.5 -14.5q257 -149 335 -585q1 -14 1.5 -34t0.5 -34 q0 -471 -477 -933q-560 -443 -1135 -443q-17 0 -37 0.5t-37 1.5q-219 1 -383 71.5t-306 190.5l-176 203q-204 280 -204 570zM355 1175q0 -442 272 -611q-612 -687 -182 -1235q197 -239 576 -239q568 -29 1125 412q466 452 434 899q-95 525 -485 551q413 335 394 774 q-47 652 -742 671q-561 -47 -1015 -469q-377 -407 -377 -753zM1049 53q210 322 572 356q310 -6 157 -341q-254 -316 -643 -301q-143 20 -86 286zM1095 1225q185 284 505 314q273 -6 138 -301q-224 -278 -567 -265q-126 17 -76 252z" />
<glyph unicode="9" horiz-adv-x="3048" d="M44 -561q8 368 317 851q481 -352 738 -352q32 0 60.5 4.5t57.5 13.5q69 34 109 115q-62 -9 -126 -12q-492 16 -796 364q-149 149 -269 379q-14 73 -21.5 142t-7.5 135q0 471 355 904q383 305 825 305q372 0 787 -215q191 -103 302 -223q279 -269 384 -658 q39 -162 58 -316.5t19 -306.5q0 -519 -225 -991q-429 -765 -1196 -765q-491 0 -1193 356zM164 -563q1489 -765 2141 397q336 706 138 1529q-107 395 -429 605q-834 434 -1469 -72q-408 -498 -295 -1055q232 -446 747 -462q289 16 507 126q30 -532 -242 -661 q-336 -114 -869 274q-223 -348 -229 -681zM892 1260q124 232 408 247q262 -70 216 -324q-62 -324 -487 -325q-258 31 -137 402zM1198 998q149 42 191 171q-63 -19 -108.5 -58t-78.5 -100q-2 -5 -4 -13z" />
<glyph unicode=":" horiz-adv-x="1608" d="M10 -29q0 328 346 557q291 186 536 217h2q33 4 61.5 5.5t54.5 1.5q91 0 171 -21q105 -50 159 -119l172 -172q86 -86 86 -212q0 -156 -75 -274q-96 -152 -320 -326q-370 -256 -611 -247q-163 20 -258 115l-163 163q-121 88 -160 273q-1 10 -1 20v19zM19 1472 q19 244 229 416q94 76 204 134.5t240 102.5q80 16 140 24t103 8q227 0 358 -160l169 -168q30 -30 55 -66.5t46 -80.5l13 -66v-70q-10 -134 -127 -302q-69 -78 -135.5 -134t-127.5 -91q-91 -55 -203 -87.5t-249 -42.5q-282 0 -409 127l-168 168q-128 96 -138 288zM131 -53 q48 -223 270 -249q197 -8 533 224q203 158 290 295q57 90 57 211q0 124 -140 189q-94 26 -234 9q-219 -28 -485 -198q-307 -206 -291 -481zM140 1470q15 -264 390 -264q244 18 400 116q107 58 226 193q95 137 103 236v58l-8 37q-91 191 -316 191q-70 0 -214 -29 q-228 -76 -397 -213q-169 -138 -184 -325z" />
<glyph unicode=";" horiz-adv-x="1856" d="M10 -899l430 320q57 61 100.5 121.5t73.5 122.5l-151 151q-122 90 -122 293q11 85 30 149t45 107v-1q40 76 95.5 145.5t127.5 138.5q89 74 178 118q11 5 21 9.5t21 9.5q-173 26 -264 118l-168 168q-128 96 -138 288q19 244 229 416q94 76 204 134.5t240 102.5 q80 16 140 24t103 8q227 0 358 -160l169 -168q30 -30 55 -66.5t46 -80.5l13 -66v-70q-10 -134 -127 -302q-69 -78 -135.5 -134t-127.5 -91q-35 -21 -72.5 -39.5t-79.5 -32.5q125 -32 203 -132l165 -165q69 -69 110 -184l12 -60v-76q-35 -327 -305 -687q-288 -355 -499 -477 l-174 -75q-92 -37 -240 -55.5t-357 -18.5l-197 197h-12zM373 -779q34 0 199 66l169 73q181 105 456 442q250 333 280 618v66l-8 37q-72 206 -287 206q-165 0 -313 -71q-75 -38 -150 -99q-128 -121 -199 -257q-42 -66 -59 -199q0 -197 162 -228q70 0 169 22 q-7 -292 -272 -566zM410 1357q15 -264 390 -264q244 18 400 116q107 58 226 193q95 137 103 236v58l-8 37q-91 191 -316 191q-70 0 -214 -29q-228 -76 -397 -213q-169 -138 -184 -325z" />
<glyph unicode="?" horiz-adv-x="2811" d="M10 854q23 146 48.5 303.5t51 312t49 299t43.5 263.5t35 206t22 126q216 140 540 212q187 36 363 53.5t347 17.5q129 0 254 -10.5t250 -30.5l18 -4q85 -27 157 -57.5t132 -64.5q105 -57 170 -122l200 -200q111 -111 105 -245q1 -8 1.5 -16t0.5 -14q0 -149 -104 -333 q-111 -153 -296 -306t-447 -311h1q-54 -38 -120.5 -72.5t-144.5 -68.5q-60 -312 -105.5 -523.5t-76.5 -329.5q29 -19 52 -51l174 -174q72 -71 89 -239q-17 -252 -364 -504q-163 -121 -386 -201q-168 -50 -285 -50q-236 -5 -353 112l-167 167q-39 29 -70 72q-66 84 -66 217 q6 200 239 409l-21 21l-6 -3q15 69 34 157.5t40.5 190t45 214t48 230t49 238.5t47.5 239q-97 -70 -194 -150.5t-196 -171.5l-198 198zM184 1179q270 251 758 434q224 73 309 73q59 4 73 -51q0 -42 -51 -96q-174 -142 -493 -279q-155 -813 -272 -1339q310 138 684 243 q44 141 191 912q184 73 302 154q503 301 709 584q97 173 84 301q9 216 -484 373q-546 91 -1170 -29q-299 -67 -456 -169q-44 -236 -184 -1111zM248 -714q0 -89 40 -140q77 -114 294 -109q102 -1 250 44q203 73 353 184q305 219 317 412q-13 136 -69 165q-44 55 -299 62 q-286 -7 -604 -227q-276 -211 -282 -391zM1462 -647q22 23 40 46.5t34 47.5q-16 -24 -34.5 -47.5t-39.5 -46.5zM1536 -553q7 11 13.5 21.5t12.5 21.5q-6 -11 -12.5 -21.5t-13.5 -21.5zM2561 2256q21 -39 30 -80q-4 20 -10 39t-15 38q-4 2 -5 3z" />
<glyph unicode="A" horiz-adv-x="2098" d="M-31 304q45 78 90 178.5t91 225.5q77 142 224 565l253 674q185 44 392.5 105.5t440.5 141.5l155 -92q0 -5 1 -7l196 -196q16 -92 29.5 -189t23.5 -193q11 -97 21.5 -193.5t21.5 -193.5q5 -33 8.5 -67t8.5 -67h1q1 -5 1.5 -11.5t1.5 -11.5q3 -27 7.5 -59t9.5 -70 q4 -26 6.5 -49.5t5.5 -43.5q6 -45 10.5 -75t6.5 -46h-1q8 -39 16.5 -108.5t19.5 -171.5q9 -83 17.5 -166.5t17.5 -166.5h1q7 -53 13.5 -106t13.5 -106q5 -46 9.5 -90.5t6.5 -83.5q11 -70 15.5 -132t4.5 -126q-87 -71 -197.5 -137.5t-249.5 -132.5q-21 -14 -52 -34t-67 -43 t-74 -47.5t-73 -47t-64 -41t-47 -30.5l-197 197q-4 -2 -5 -3q-10 89 -20 178.5t-19.5 172t-18 154t-14.5 125.5q-45 -117 -83.5 -194t-74.5 -121q-22 -26 -63.5 -38.5t-112.5 -12.5l-197 197h-5q-94 236 -506 789zM113 313q369 -497 442 -678q7 0 7 8q75 87 184 404 q252 -66 352 -96l16 -124q8 -39 66 -567l229 147q268 128 383 221q0 60 -20 193q-4 78 -15 170l-27 211l-36 335q-20 205 -35 276q-7 46 -29 214q-13 92 -20 152l-18 136l-43 389q-20 192 -52 375q-468 -162 -780 -235l-229 -611q-148 -428 -228 -574q-95 -253 -147 -346z M846 451q31 167 164 518q51 -237 82 -573q-139 10 -246 55z" />
<glyph unicode="B" horiz-adv-x="2793" d="M10 1971q115 108 301.5 211t447.5 202q355 115 646 115q481 0 792 -308l11 -14q1 -1 1 -2t1 -2l185 -184l11 -14q110 -150 112 -315q2 -26 3 -51t1 -47q0 -307 -166 -554q60 -41 107 -101l156 -156q112 -112 164 -311q-5 -440 -178 -699q-82 -142 -199 -248 q-232 -220 -420 -308q-74 -57 -220 -122t-362 -133q-94 -29 -211.5 -48t-260.5 -31q-75 -6 -135 -6q-65 0 -114 7q-94 14 -130 50l-182 181q-36 22 -42 56q-98 742 -150.5 1190.5t-59.5 602.5q-15 118 -29.5 249t-29 266t-27.5 268.5t-23 255.5zM135 1924q44 -503 104 -983 q13 -299 209 -1787q0 -2 20 -2q54 0 254 16q274 22 448 74q436 138 552 243q175 76 405 294q102 93 177 221q158 230 162 626q-59 217 -207 302q-149 106 -390 132q336 292 336 702q0 46 -4 93q0 131 -89 251q-275 273 -707 273q-272 0 -606 -108q-494 -188 -664 -347z M905 1419q184 147 405 154q122 -7 154 -132v-10q0 -182 -480 -433q-48 200 -79 421zM1107 424q226 169 458 177h18q150 0 198 -132q1 -9 1 -18q0 -235 -558 -457q-87 185 -117 430z" />
<glyph unicode="C" horiz-adv-x="2551" d="M10 148q0 187 49 391t140 408q57 119 142 252t193 262q143 170 306 319.5t350 283.5q154 105 296 179t263 116q71 25 142.5 45t140.5 35t133.5 23.5t121.5 9.5l-1 -6l198 -197l-187 -1393q-159 0 -298.5 -36t-260.5 -106q-304 -256 -337 -367q-54 -147 -54 -251 q167 23 394 205q68 68 68 82l218 39l3 -8l195 -195l316 -857q-180 -129 -329.5 -214t-268.5 -126q-327 -139 -657 -139h-23q-408 25 -725 269q-13 11 -25 22t-24 23l-153 153q-52 45 -97 96t-82 108q-108 200 -133 367q-8 50 -11 101.5t-3 105.5zM143 -41q23 -148 115 -319 q65 -101 154 -177q286 -219 656 -243h22q304 0 611 132q225 76 500 273l-272 736q0 -22 -103 -125q-296 -243 -523 -243q-76 10 -125 22q-148 101 -148 298q0 126 60 291q42 142 382 427q273 162 523 162l155 1156q-79 -1 -361 -103q-231 -77 -530 -280q-359 -256 -633 -582 q-211 -254 -317 -486q-179 -396 -179 -750q0 -96 13 -189z" />
<glyph unicode="D" horiz-adv-x="2874" d="M10 1908q164 103 333 187t325 144q180 87 406.5 143t498.5 79h10q424 0 712 -216q46 -35 86 -72.5t74 -78.5l146 -145q70 -70 119.5 -146t78.5 -154q13 -41 25 -81t21 -75.5t14 -63.5t5 -46q0 -279 -111 -565l-1 1q-12 -38 -39 -101.5t-72 -154.5q-410 -643 -999 -983 l-195 -112q-236 -105 -472 -172.5t-477 -98.5l-198 198q-2 0 -2.5 -0.5t-2.5 -0.5l-39 581q-9 96 -19 199t-20 208t-20.5 208t-20.5 198q-20 131 -40.5 272t-42.5 287t-43 288t-40 273zM140 1848l155 -1043q44 -406 81 -819l31 -457q339 43 786 243l191 110q563 324 957 943 q103 214 103 235q103 266 103 523q0 55 -59 228q-63 186 -265 339q-255 191 -640 191q-529 -43 -869 -213q-315 -117 -574 -280zM823 1323q261 252 701 252q26 0 53 -1q240 -58 301 -298q1 -10 1 -20q0 -349 -889 -858q-123 413 -167 925zM1145 1076q11 -108 24 -209.5 t31 -199.5q560 363 558 591h-36q-356 0 -577 -182z" />
<glyph unicode="E" horiz-adv-x="2588" d="M10 2156q87 35 259 83.5t429 108.5q592 156 1314 416l159 -118q0 -2 -0.5 -2.5t-0.5 -1.5l198 -197q-4 -75 -6 -141t-2 -132v-44.5t2 -43.5v-131q0 -29 0.5 -56.5t2.5 -61.5l7 -127q-93 -90 -308 -123q-35 -11 -101 -28.5t-166 -40.5l45 -45l-11 -294v-58q0 -65 3 -129 q63 20 130.5 40.5t140.5 41.5q47 13 117.5 20t158.5 7v-6l197 -197q-2 -78 -4 -165.5t-3.5 -169t-2.5 -150.5t-1 -110v-375q-125 0 -416 -90.5t-751 -270.5q-147 -48 -315 -111.5t-360 -144.5l-198 198q-2 0 -4 -2q-41 96 -72 209t-53 247q-32 236 -88.5 550.5t-139.5 715.5 q-4 19 -10 57.5t-16 95.5q-5 26 -10 57t-11 66q-56 236 -84.5 399t-28.5 254zM130 2076q0 -83 110 -544q37 -224 48 -281q166 -801 229 -1273q40 -250 69 -316q274 116 575 213q938 368 1089 368v258q0 165 8 478q-43 0 -118 -22q-435 -125 -633 -206q-205 -81 -420 -147 h-15q-14 92 -14 155v22l478 169q-22 142 -22 371v56l7 177q-54 0 -537 -155q-15 81 -22 213q132 67 294 118q209 61 295 96q228 54 287 74q185 28 215 56l-5 73q-4 66 -4 122v36v95q-1 45 -1 92q0 129 8 277q-736 -264 -1325 -420q-508 -119 -596 -155z" />
<glyph unicode="F" horiz-adv-x="2482" d="M10 2193q150 24 323.5 54t363 64t389 71.5t401.5 76t401 78t387 77.5v-7l197 -197v-154q-8 -171 -16 -323t-15.5 -272.5t-14 -204t-10.5 -117.5q-180 -25 -336.5 -49.5t-296.5 -50.5l77 -76v-50t1 -88.5t1.5 -118.5t1 -140t1.5 -153l2 -158v-40.5t0.5 -62.5t0.5 -63v-42 q-141 -5 -251 -14t-204 -23q8 -69 24 -176.5t40 -261.5q29 -241 64 -417.5t76 -288.5q-328 -32 -585 -75t-448 -97l-198 198q-1 -1 -2 -1t-2 -1q-33 183 -55 329.5t-30 239.5q-3 36 -6 71t-6 69q-9 99 -17.5 193t-16 174.5t-13.5 142.5t-10 97q-9 88 -58 446t-137 988 q-12 103 -17.5 194t-5.5 159zM130 2091q0 -38 22 -236q177 -1260 195.5 -1436t69.5 -750q17 -195 59 -427q261 74 780 125q-36 99 -95 589q-74 468 -74 552q251 44 464 52q-8 561 -8 655q-186 -44 -515 -103q-7 166 -15 324q424 112 1097 206q15 135 45 817v7 q-1126 -230 -2025 -375z" />
<glyph unicode="G" horiz-adv-x="2634" d="M10 15q0 429 190 813q42 76 93.5 148.5t117.5 144.5q157 145 320 252q61 41 120.5 75t119.5 62q47 23 91.5 41t88.5 33q59 23 140 48t180 50.5t214.5 51t244.5 48.5l499 51l-3 -6l198 -198q-86 -175 -170 -388.5t-169 -470.5q24 5 47 9.5t46 9.5q0 -2 -0.5 -3.5 t-0.5 -3.5l198 -197q-56 -558 -122 -953.5t-142 -627.5q-72 7 -145.5 15t-141.5 15.5t-126.5 14t-99.5 12.5q-220 -105 -414 -155q-186 -47 -355 -47h-14q-164 0 -375 99q-81 39 -157 115l-154 154q-45 37 -87 85t-81 105q-31 38 -62 109t-58 168q-15 111 -23 190.5 t-8 130.5zM130 15q0 -90 29 -295q51 -185 96 -228q114 -169 236 -228q189 -88 324 -88h13q330 0 752 206q163 -22 449 -52q119 364 214 1311q-158 -30 -633 -162q-258 -52 -258 -74v-88q0 -47 -29 -339q0 -54 -229 -103q-228 0 -228 199q9 162 103 339q155 222 383 301 q312 125 523 125h44q184 597 309 854l-280 -29q-528 -96 -751 -191q-338 -102 -706 -442q-109 -120 -184 -258q-177 -360 -177 -758zM1171 -896q16 4 31.5 8t32.5 9q-17 -5 -32.5 -8.5t-31.5 -8.5zM1203 -10h1v2q0 -1 -0.5 -1t-0.5 -1zM1318 -853q6 2 12.5 4.5t13.5 4.5 q-6 -2 -13 -4.5t-13 -4.5zM1344 -844q2 0 2.5 0.5t2.5 0.5q-2 0 -2.5 -0.5t-2.5 -0.5z" />
<glyph unicode="H" horiz-adv-x="2646" d="M-23 -1063q35 316 68 648t64 669t59 674t52 663.5t44 637.5t34 596q199 38 417.5 98t461.5 143l157 -129q0 -1 -0.5 -2t-0.5 -2l198 -197q-3 -21 -6 -40.5t-6 -39.5q296 70 921 337q-1 -3 -1 -8l197 -197q-194 -1330 -305 -2276t-140 -1508l-123 -54 q-97 -46 -174.5 -86.5t-125.5 -69.5q-75 -41 -194.5 -114.5t-288.5 -185.5l-198 198q-2 -1 -2.5 -2t-2.5 -2v64q0 64 1 132q2 100 6 209q-51 -21 -104 -43.5t-103.5 -43.5t-96 -40t-79.5 -33q-57 -20 -107 -38.5t-93 -34.5q-15 -5 -41.5 -15t-59.5 -21.5t-68 -24.5 t-66.5 -24.5t-55.5 -20t-34 -12.5l-197 198q-3 -1 -7 -3zM118 -883q121 44 346 125q163 66 385 160q57 716 69 840l393 148q-110 -1039 -110 -1471v-8q150 99 309 184q105 66 309 162l59 25q55 1060 412 3516q-607 -259 -788 -276q-48 -847 -95 -1307q-114 -57 -206 -96 q-9 0 -177 -81q59 967 191 1914q-495 -170 -802 -228q-86 -1710 -295 -3607z" />
<glyph unicode="I" horiz-adv-x="1585" d="M10 2095q0 406 399 586q166 59 350 67l18 -1q254 -30 375 -139q15 -14 28.5 -28.5t25.5 -30.5l155 -154q70 -68 108 -157q19 -46 29.5 -104t15.5 -130q-24 -192 -168 -335l23 -19v-4l197 -197q0 -261 1 -522.5t2 -511.5t2 -483.5t4 -439.5q-309 -98 -676 -274 q-46 -17 -99.5 -26t-119.5 -9l-197 197h-6q-52 215 -96.5 458.5t-82.5 521.5q-155 922 -168 1119q86 40 218 79q-2 3 -5 5t-5 5q-2 1 -5 4l-178 178q-11 7 -19 16q-115 111 -126 329zM130 2098q7 -167 87 -243q144 -124 288 -124h15q271 21 482 168q171 129 194 307 q-7 117 -35 187q-31 73 -89 127q-92 83 -309 108q-164 -6 -309 -58q-324 -145 -324 -472zM255 1406q8 -115 162 -1030q74 -540 155 -876q11 0 88 29q369 177 597 249q-7 825 -8 1871q-249 -44 -442 -110q-434 -74 -552 -133z" />
<glyph unicode="J" horiz-adv-x="2735" d="M10 359q0 66 4.5 136t14.5 142q20 105 54.5 202t81.5 188q0 1 0.5 1.5t0.5 1.5l15 27q11 19 21.5 37t21.5 35q86 137 200 248q8 8 22 20.5t27 25.5q14 14 28 27t22 21l85 -1q113 -60 186 -98t108 -52q158 -71 285.5 -141.5t229.5 -144.5q-5 85 -14 179.5t-23 202.5l3 -3 q0 1 -0.5 1.5t-0.5 2.5q-11 121 -16.5 219t-5.5 176q0 40 0.5 76.5t4.5 74.5q0 5 2 26.5t4 47.5t3.5 49.5t2.5 28.5q567 19 960 105l139 -79q0 -3 2 -7l196 -196q15 -48 24.5 -162.5t11.5 -294.5q8 -109 11.5 -220.5t3.5 -211.5q0 -266 -25 -500.5t-76 -442.5 q-105 -409 -470 -675q-324 -228 -730 -268q-45 -4 -90.5 -5.5t-92.5 -1.5q-110 0 -209 12t-190 38q-114 39 -202 91t-150 114l-157 157q-20 17 -37.5 34t-32.5 34q-72 87 -130 194.5t-95 231.5q-14 69 -21 142.5t-7 154.5zM148 618q-18 -137 -18 -260q0 -147 26 -272 q64 -218 198 -372q102 -119 323 -196q163 -46 365 -46q82 0 171 8q376 38 673 247q330 240 425 608q97 397 97 914q0 203 -15 424q-5 347 -31 430q-405 -88 -873 -104l-4 -44q-5 -65 -5 -145q0 -160 21 -381l-7 1q-1 -7 6 -8q41 -304 41 -522q0 -368 -118 -486 q-114 -120 -299 -136q-209 4 -209 224q0 34 5 74q16 104 68 186q84 133 278 243q-62 49 -411 205q-76 32 -277 140l-7 1l-64 -61q-277 -260 -359 -672zM1257 439q23 12 43 26.5t37 32.5q35 35 54 107q-77 -61 -104 -106q-9 -14 -16.5 -28.5t-13.5 -31.5z" />
<glyph unicode="K" horiz-adv-x="2602" d="M10 2339q264 118 516 217.5t496 181.5v-8l197 -196l6.5 -104t7 -113.5t6.5 -114t5 -106t3.5 -89.5t1.5 -63q0 -11 -0.5 -21.5t-0.5 -19.5l4 -90v-39q57 63 115.5 130t120.5 141l14 -18l186 -186l531 -686q-81 -89 -161 -176.5t-150 -164.5t-126.5 -139.5t-90.5 -101.5 q-16 -16 -23 -22.5t-13 -12.5t-16 -17t-31 -36q40 -46 100 -109.5t136 -140.5l25 -25q102 -110 208.5 -227t209 -231.5t196.5 -221t171 -194.5q-214 -235 -362 -460q-89 -110 -171 -164t-157 -54l-197 197h-4q-36 45 -79 100.5t-89.5 117.5t-94 128t-93.5 132 q2 -22 4.5 -44.5t5.5 -45.5q0 -64 4.5 -134.5t12.5 -149.5l17 -331q-49 20 -86.5 34.5t-65.5 24.5t-47.5 15.5t-33.5 8.5q-67 12 -306 46h-1q-140 19 -234 33q-20 3 -57.5 6.5t-81.5 7t-89 7t-78 6.5l-197 197h-6l-56 888q0 64 -8 225t-24 425t-28.5 533.5t-22.5 547.5 q-5 138 -8.5 259t-6 214.5t-3.5 154t-1 78.5zM130 2261q0 -70 19 -623.5t51 -1078.5t32 -653l50 -780q135 -10 212 -20q94 -13 234 -33q241 -35 310.5 -47t87.5 -19l-8 143q-18 166 -18 286q-16 132 -16 228q-13 30 -23 336l172 -234q166 -236 227 -298q199 -293 360 -493 q39 0 179 172q152 230 298 391q-306 353 -712 791q-254 257 -329 359q86 100 149 165q136 154 461 508l-382 493q-252 -302 -533 -540v86q0 33 -16 313v298l-4 87q1 20 1 45q0 141 -20 431q-330 -112 -782 -313z" />
<glyph unicode="L" horiz-adv-x="2115" d="M10 2040q105 28 224 61t241.5 68t241 70.5t222.5 68.5l156 -110v-4l197 -197q13 -467 22.5 -769t14.5 -439v-419q53 25 118.5 55.5t143.5 65.5q69 37 150.5 57.5t166.5 20.5q0 -2 -0.5 -3t-0.5 -3l198 -197q-43 -512 -72.5 -793t-47.5 -333q-57 -30 -139.5 -57.5 t-191.5 -55.5q-97 -36 -386.5 -122.5t-765.5 -219.5l-198 198q-2 -1 -2.5 -1t-2.5 -1q-3 114 -9 253t-14 284t-18 287.5t-20 262.5q-25 236 -47.5 445t-40.5 371q-13 125 -29.5 269.5t-34.5 295.5t-37.5 302t-38.5 289zM143 1951q75 -553 126 -1054q37 -331 88 -817 q44 -485 58 -941q867 243 1009 302q206 51 265 81q15 43 88 927q-17 0 -132 -66q-316 -142 -398 -191l-228 -96l-7 296v595q-11 274 -37 1207q-414 -132 -832 -243z" />
<glyph unicode="M" horiz-adv-x="3600" d="M10 -590q7 57 22 160.5l35 241.5t44.5 304.5t51.5 349.5q52 327 95 742.5t78 920.5q37 16 98 42t137 59t163 71t177 77q97 42 195.5 98.5t198.5 127.5q2 -8 4 -11l194 -194q28 -78 52.5 -145t46 -126.5t41 -113.5t39.5 -105v1q14 49 29.5 107t32.5 119q17 60 32.5 119 t29.5 109q114 41 243 90.5t265.5 104t277.5 113.5t279 119l166 -107v-5l197 -197q8 -358 20.5 -660.5t31.5 -562.5h-1q40 -323 80 -591t82 -491q32 -229 68 -418.5t75 -341.5l-204 -136q-37 -22 -87 -53t-108 -68t-122.5 -78.5t-130.5 -84.5t-131 -86t-124 -82l-198 198 q-2 -1 -4 -3q-21 68 -40 150t-35 174t-29 192.5t-22 207.5q-8 83 -18.5 173.5t-24.5 187.5q-17 -49 -38 -121.5t-44 -171.5h-129q-119 0 -512 -54l-198 198q-1 0 -2 -0.5t-2 -0.5q-38 68 -100 214q-17 -207 -30.5 -400.5t-24 -363.5t-17.5 -312t-9 -246q-57 22 -134 51 t-164.5 61t-181.5 66.5t-185 67t-175.5 62.5t-152.5 53l-195 196q-2 1 -4 1t-4 1zM142 -508q409 -140 751 -272q14 525 118 1612q7 0 7 7h-7q29 161 29 221h8q35 -109 250 -589q132 -342 154 -382q321 44 449 44h37q52 218 96 294q88 284 250 678h8q0 -8 -8 -8 q15 -61 44 -353q109 -559 147 -986.5t74 -544.5q355 237 575 368l132 88q-59 226 -124 690q-83 445 -163 1092q-37 516 -52 1229q-554 -242 -1011 -407l-108 -395q-58 -197 -132 -486q-209 445 -420 1023q-82 -59 -287 -147q-358 -158 -508 -221q-66 -938 -169 -1598 q-110 -730 -140 -957z" />
<glyph unicode="N" horiz-adv-x="2840" d="M10 -395q11 94 22.5 198.5t22.5 212t21.5 215t19 207.5t15.5 190t11 162q6 106 15.5 257t22.5 333t28.5 388.5t32.5 423.5l839 390q1 -6 5 -11l193 -193q62 -143 139 -308.5t158 -335.5q14 128 28.5 260t28.5 266q252 100 463.5 194.5t385.5 186.5l172 -130q0 -1 -0.5 -2 t-0.5 -2l198 -197q-22 -111 -41.5 -235t-38.5 -273h-1q-33 -310 -67.5 -632t-69 -646t-68.5 -646t-67 -632q-305 -93 -667 -344l-198 198q-2 -1 -4 -3q-92 257 -192 510t-210 506q-3 -81 -5.5 -161.5t-4.5 -147.5q-44 -20 -112.5 -48.5t-152 -62.5t-177 -71.5t-188 -75 t-185 -72.5t-167.5 -64l-197 198q-2 -1 -3.5 -1.5t-3.5 -1.5zM152 -213q463 176 729 294l17 444l27 476q477 -967 744 -1716q254 176 500 251l265 2481q37 296 81 516q-348 -183 -791 -358q-57 -572 -114 -967q-77 135 -170 294q-243 471 -441 920l-663 -309 q-74 -924 -94 -1329q-24 -433 -90 -997z" />
<glyph unicode="O" horiz-adv-x="2478" d="M10 199q1 144 32.5 293t94.5 305q56 123 108.5 218t102.5 165h-1q20 31 64 83.5t112 122.5q95 98 219 185t281 165q174 70 405 70q27 0 60 -1t62 -3l9 -1q110 -17 210.5 -66t196.5 -132q7 -8 14 -16.5t14 -16.5l170 -169q210 -233 282 -562q22 -125 22 -241 q0 -73 -9 -152h1q-6 -85 -36 -178t-83 -196h1q-126 -256 -499 -542q-259 -189 -506 -285q-143 -68 -447 -93q-131 11 -239.5 61.5t-196.5 138.5l-150 150q-48 39 -90 87t-78 106q-126 226 -126 504zM130 199q0 -244 110 -442q165 -261 450 -287q274 22 397 81 q235 90 486 273q350 267 464 500q95 185 106 330q8 71 8 142q0 110 -19 220q-65 295 -250 501q-157 137 -341 165q-59 4 -114 4q-206 0 -355 -59q-289 -144 -463 -324q-137 -143 -162 -191q-92 -127 -199 -361q-116 -289 -118 -552zM732 310q19 134 125 300q241 328 550 362 q127 -23 162 -212q0 -217 -212 -463q-126 -145 -388 -212q-238 1 -238 199q0 13 1 26zM1106 261q103 49 160 114q45 54 80 105.5t58 101.5q-130 -77 -249 -235h1q-15 -23 -27 -44.5t-23 -41.5z" />
<glyph unicode="P" horiz-adv-x="2445" d="M10 2122q209 181 487.5 315.5t628.5 223.5q130 23 244 23q335 0 632 -178l17 -12q23 -20 43 -40.5t38 -41.5l158 -158q177 -179 177 -421q0 -283 -249 -635l-3 -4q-115 -174 -239 -299.5t-261 -204.5q-62 -39 -102 -64.5t-68 -43t-48 -28.5t-41 -21q39 -134 93 -288 t125 -335l34 -137q-90 -59 -184 -119.5t-184.5 -117.5t-172.5 -108t-148 -92t-112.5 -69t-65.5 -38l-198 198q-1 -1 -2 -1.5t-2 -1.5q-70 300 -138 597.5t-130 573t-115.5 519t-93.5 436.5h-1q-51 215 -81 359t-38 213zM136 2073q7 -66 110 -493q162 -769 442 -1973 q113 63 655 419l-14 52q-162 418 -243 714q87 41 338 199q249 145 464 471q230 325 230 570q0 216 -178 372q-266 160 -570 160q-107 0 -218 -20q-667 -169 -1016 -471zM843 1624q184 147 405 154q122 -7 154 -132v-11q0 -181 -441 -409q-87 177 -118 398z" />
<glyph unicode="Q" horiz-adv-x="2585" d="M21 581q1 262 171 570l44 77q50 88 267 320q305 290 562 384q118 35 226.5 52.5t209.5 17.5q219 0 394.5 -79.5t314.5 -239.5l147 -147q15 -15 29.5 -30.5t28.5 -32.5l13 -19q32 -57 53.5 -106.5t34.5 -91.5q17 -39 31 -110.5t22 -172.5q-35 -576 -384 -885 q46 -38 94.5 -76t101.5 -76q-1 0 -3 -2l197 -197q-118 -78 -227 -158.5t-206 -162.5q-99 -59 -213.5 -142t-248.5 -195l-198 198q-2 -1 -4 -3q-8 32 -17 64.5t-17 63.5q-10 36 -19 70.5t-18 67.5q-76 -23 -153 -35.5t-157 -12.5q-152 0 -312 72t-329 218l-175 175 q-7 6 -13.5 11.5t-13.5 11.5q-233 276 -233 574v27zM141 577v-22q0 -253 197 -488q299 -258 559 -258q259 0 500 147q67 -171 148 -471q134 111 331 228q189 160 294 229q-179 130 -368 353q414 277 449 875q-17 196 -44 243q-19 74 -81 184q-241 285 -626 285 q-182 0 -397 -64q-232 -85 -515 -354q-203 -218 -247 -295l-45 -77q-155 -281 -155 -515zM786 588q18 128 119 285q228 312 588 314q160 -20 171 -218q-31 -224 -154 -373q-204 -214 -499 -221q-226 1 -226 187q0 13 1 26zM1150 517q77 23 146.5 64t126.5 98q57 70 88 163 q-178 -57 -308 -232h1q-32 -48 -54 -93zM2296 1591l2 -2z" />
<glyph unicode="R" horiz-adv-x="2123" d="M-23 -21q7 48 17 122.5t20.5 163.5t21.5 188.5t21 197.5q14 138 31 343t39 484q0 3 0.5 7t0.5 7q2 18 3.5 40.5t3.5 51.5q2 17 3 37.5t3 44.5q5 69 11 157.5t12 177.5q242 209 555 335v1q240 102 391 105q14 1 31 1.5t31 0.5q221 0 407 -105q61 -36 111 -77.5t89 -89.5 l155 -154q100 -100 143 -231q19 -79 19 -167q0 -161 -68 -336t-206 -367q-41 -45 -72 -79t-59 -63t-57 -57.5t-65 -62.5l33 -69l-1 1q94 -189 229 -407t315 -469l-637 -629l-198 198l-3 -3l-134 288q-5 -60 -14 -133.5t-20 -159.5q-28 17 -68.5 41t-88.5 52.5t-100 58.5 t-102.5 59.5t-97.5 56t-84 46.5q-108 60 -418 195l-194 194q-3 2 -9 4zM109 52q245 -107 346 -163q224 -122 392 -224q19 136 19 253v12v27q0 139 8 544l470 -1019l448 442q-306 427 -496 811l-70 145q146 136 309 316q244 339 244 624q0 72 -16 141q-54 165 -243 273 q-160 90 -348 90q-27 0 -56 -2q-125 -2 -349 -96q-297 -118 -486 -282q-26 -367 -34 -475q-44 -555 -71 -829q-39 -395 -67 -588zM873 1336q0 63 7 199q147 103 213 103q9 1 17 1q79 0 79 -104q0 -140 -243 -331l-69 -45z" />
<glyph unicode="S" horiz-adv-x="2957" d="M27 -269q104 -29 174.5 -42t113.5 -13q116 0 292 21q229 21 427 114q132 48 257 120.5t246 169.5q49 38 88.5 83t68.5 96q-42 -14 -74 -23t-55 -13q-42 -4 -77 -6t-62 -2q-53 0 -97 4.5t-81 15.5h-1q-58 17 -125 57.5t-134 96.5q-5 4 -9 7.5t-9 8.5l-173 173q-8 6 -11 9 q-23 18 -46 47t-44 68l1 -1q-38 54 -62 120t-38 146q-5 29 -6.5 59t-1.5 63q0 225 115 503q52 98 101 174.5t90 126.5q39 54 94 109q25 25 52 49q63 55 140 107t168 100q306 139 756 139q60 0 128.5 -2.5t134.5 -7.5l3 -1q78 -10 184 -40t241 -83q-1 -2 -1.5 -2.5t-1.5 -2.5 l198 -197q-164 -289 -309 -811q-136 42 -278 60q92 -48 162 -136l156 -155q17 -18 34 -37.5t33 -41.5q38 -48 67 -114t51 -151q3 -26 5 -51.5t2 -49.5q0 -115 -31 -258.5t-92 -319.5q-40 -103 -82.5 -191.5t-88.5 -163.5q-25 -66 -100.5 -176t-203.5 -268 q-94 -110 -215 -212t-273 -198q-137 -72 -236 -117.5t-159 -62.5q-78 -27 -166.5 -50.5t-191.5 -46.5h-1q-202 -46 -364 -47q-142 1 -254.5 30t-196.5 83l-189 190q-4 2 -7 4t-7 4zM152 -428l22 -710q90 -59 336 -61q151 2 339 44q203 44 353 96q103 29 368 169 q282 177 456 383q251 309 287 419q91 147 169 346q115 328 115 538q0 43 -5 80q-34 135 -95 213q-77 111 -186 153q-115 49 -268 53q-37 2 -68 2q-63 0 -104 -9q-77 0 -272 -66q-171 -81 -263 -81h-9q-7 -1 -14 -1q-48 0 -59 52q0 52 35 120q82 123 209 229q172 116 491 122 q275 0 412 -44q116 417 221 603q-128 50 -265 66q-131 10 -250 10q-423 0 -706 -127q-297 -155 -412 -331q-74 -89 -177 -280q-103 -250 -103 -451q0 -52 7 -101q22 -137 81 -220q35 -65 67 -89q122 -103 216 -129q60 -16 148 -17q52 0 114 6q80 15 301 103q71 26 122 26 q121 0 133 -144q-13 -321 -286 -536q-257 -206 -530 -307q-212 -101 -463 -123q-182 -22 -303 -22q-104 0 -164 16zM2714 1047l4 -4z" />
<glyph unicode="T" horiz-adv-x="2708" d="M10 1524q2 26 4.5 67.5t5.5 90.5t5.5 102.5t5 105t4.5 97t3 78.5q2 59 2 111v103q0 52 -1.5 113t-4 121t-5 112t-4.5 86q125 32 236.5 59t192.5 41q63 15 247 51t485 90q185 42 349 80t301 69q166 38 296.5 68t225.5 52l143 -138q0 -1 -0.5 -2t-0.5 -2l198 -197 q-78 -399 -87 -896q-205 -38 -377.5 -77t-313.5 -79q-23 -152 -52.5 -370.5t-65.5 -497.5t-78 -614.5t-89 -720.5q-192 -66 -334 -123.5t-236 -108.5q-27 -12 -66 -30.5t-83 -39.5t-89.5 -43t-85 -41t-69.5 -33.5t-43 -20.5l-198 198q-2 -1 -3.5 -1.5t-2.5 -1.5 q7 48 17.5 114t22.5 141t25 154t26 154.5t25 143t22 117.5v-1q53 321 88 566t55 425q8 80 17.5 162t18.5 164q-113 -38 -243.5 -85.5t-285.5 -107.5l-197 197q-2 -1 -3 -1t-3 -1zM142 1705q436 171 767 239l-84 -761q-39 -358 -144 -997q-59 -306 -103 -596q76 38 235 110 q192 103 515 214q199 1639 287 2207q310 93 681 162q8 414 87 821q-349 -81 -1173 -270q-611 -110 -728 -140q-169 -29 -331 -73q9 -133 9 -337q0 -102 -2 -222q-5 -198 -16 -357z" />
<glyph unicode="U" horiz-adv-x="2433" d="M10 1004q0 81 10 207t31 300q38 218 92 402t126 339q186 47 399.5 88.5t457.5 76.5l11 -16l188 -187l123 -166q-17 -35 -32.5 -73.5t-30.5 -80.5q168 85 443 171q52 14 116 20.5t139 6.5q0 -3 2 -7l196 -196q142 -486 142 -917q0 -61 -2 -126.5t-7 -127.5 q-5 -191 -75 -404t-205 -454q-66 -108 -170 -221q-173 -187 -345 -268l-1 1q-227 -114 -451 -114q-29 0 -57 1.5t-57 5.5q-80 12 -157.5 44.5t-151.5 83.5q-53 34 -101 83l-149 149q-60 48 -114.5 117.5t-107.5 160.5v-1q-120 201 -197 542q-29 107 -44 229t-18 255 q-2 17 -2.5 37t-0.5 39zM133 935q6 -260 59 -464q74 -323 184 -507q112 -196 235 -275q126 -88 258 -108q49 -6 97 -6q200 0 403 102q150 71 309 242q98 105 155 200q257 457 264 808q9 123 9 244q0 416 -112 801q-48 0 -132 -22q-442 -138 -530 -221q11 -164 11 -301 q0 -304 -55 -471q-61 -162 -199 -162q-66 0 -117 117q-52 133 -52 413q9 123 22 206q66 483 200 767q-471 -69 -788 -149q-112 -243 -184 -655q-40 -337 -40 -489q0 -42 3 -70z" />
<glyph unicode="V" horiz-adv-x="2785" d="M10 2987q103 47 216 72.5t244 36.5h-1q97 20 196.5 29t206.5 9h45l119 -115v-4l197 -197q8 -240 21.5 -479t31.5 -483q66 188 123.5 369t108.5 360l1061 -316l-2 -4l198 -198q-28 -65 -68.5 -159.5t-87 -205t-96.5 -228t-96 -228.5q-81 -188 -155.5 -376.5t-145.5 -383.5 q-161 -372 -283 -722q-3 -7 -5.5 -13t-4.5 -11q-17 -45 -36 -93.5t-36 -92t-30.5 -77.5t-19.5 -50l-260 -25q-92 -10 -188.5 -22t-187 -23.5t-168 -22t-130.5 -17.5l-198 198q-1 0 -2 -0.5t-2 -0.5q-72 235 -132.5 466t-106.5 442q-38 122 -148 811q-26 126 -71 564 t-107 1190zM137 2912q120 -1435 170 -1660q120 -743 144 -796q90 -424 209 -809q212 30 578 71l191 18q27 68 105 271q122 350 284 723q141 389 302 762q185 442 296 700l-817 244q-177 -618 -503 -1424l-53 293q-32 235 -46 421q-60 655 -81 1288q-24 1 -47 1 q-198 0 -383 -38q-243 -19 -349 -65z" />
<glyph unicode="W" horiz-adv-x="3763" d="M10 1848q85 15 227 100.5t348 243.5q57 42 136.5 82t188.5 82q0 -5 1 -7l197 -197q11 -71 23.5 -160.5t28.5 -194.5q77 29 160 61t165 64.5t160 64t146 59.5t122.5 51t90.5 39l3 -9l195 -195q14 -45 29.5 -95.5t31.5 -102.5t31 -103t29 -97q61 295 109.5 510t79.5 330 q142 48 275 92t248.5 82.5t209 69t158.5 50.5l153 -136q0 -1 -0.5 -2t-0.5 -2l198 -197q-38 -195 -86 -398.5t-108 -419.5h-1q-51 -201 -105.5 -427.5t-110.5 -472t-113 -506.5t-114 -532q-261 -141 -503 -290t-467 -309l-198 198q-2 -1 -4 -3l-99 258q-7 26 -13 48.5 t-12 43.5q-13 48 -24 88t-21.5 78.5t-22.5 79.5t-26 90q-11 -48 -23 -98.5t-23 -103.5q-242 -101 -888 -576l-198 198q-2 -1 -4 -3q-16 82 -36 178.5t-42.5 200t-47 211.5t-49 213t-49.5 204.5t-48 186.5q-87 320 -165.5 671t-141.5 709zM149 1751q106 -605 284 -1251 q139 -524 237 -1018q510 375 709 458q124 543 205 811q251 -832 375 -1288l41 -104q332 235 812 494q228 1085 434 1891q118 425 192 809q-258 -81 -826 -272q-94 -349 -307 -1464h-8q-72 168 -110 302q-53 178 -125 404q-42 160 -133 449q-218 -96 -685 -272 q-83 -349 -227 -729q-29 92 -51 206q-96 626 -153 1015q-56 -21 -156 -95q-435 -332 -508 -346z" />
<glyph unicode="X" horiz-adv-x="2893" d="M10 374q167 174 348.5 346t383.5 346q-75 186 -175.5 370.5t-228.5 377.5q128 125 228 209.5t177 135.5v-1q140 113 361 205l154 -58q1 -2 2 -5t2 -5l194 -193q19 -41 35 -76t31 -67t29 -63.5t29 -65.5q138 127 305 258.5t371 275.5q1 -4 5 -12l193 -193 q223 -547 429 -944q-260 -191 -456 -346t-332 -280q88 -189 191 -369.5t221 -358.5q-247 -159 -461 -331t-402 -360l-198 198l-3 -3q-41 79 -90.5 198t-106.5 271q-149 -143 -294 -308.5t-290 -355.5l-198 198q-2 -2 -3 -4q-109 240 -179.5 408t-102.5 264q-16 36 -38 81.5 t-45.5 92t-46 89.5t-39.5 75zM157 354q71 -132 134 -275q57 -175 197 -483q284 371 699 721q53 -156 110 -272q155 -436 177 -479q268 269 670 529q-203 303 -391 722q283 270 780 633q-160 309 -331 728q-440 -310 -750 -640q-164 418 -302 714q-211 -90 -338 -192 q-148 -96 -319 -262q232 -348 392 -768q-439 -374 -728 -676z" />
<glyph unicode="Y" horiz-adv-x="3073" d="M10 144q154 187 302.5 353t295.5 316l87 87t66 65q47 46 75.5 77.5t39.5 48.5q-138 239 -445 622q-11 11 -29 31.5t-38 43.5q-23 25 -44 48t-30 34l671 732q2 -4 3.5 -7.5t3.5 -6.5l192 -191q100 -180 190.5 -333t171.5 -281q108 112 223 253.5t242 318.5 q78 -49 145.5 -106.5t123.5 -119.5l153 -153q25 -25 47 -50.5t42 -51.5q9 -12 18.5 -23t18.5 -22q162 -150 333 -256l-3 -3l198 -198q-148 -140 -238.5 -222t-128.5 -109q-35 -32 -71 -64t-71 -64l-791 -740l-2 -2q-66 -65 -124 -124.5t-113 -119.5q-51 -57 -114 -128.5 t-134 -151.5t-147.5 -166l-153 -172t-151.5 -170t-143 -160l-198 198q-1 -1 -1.5 -2t-1.5 -2q-83 235 -199.5 476t-270.5 495zM157 133q266 -439 368 -729q410 458 713 802q111 120 243 250l795 744l147 132q64 44 250 221q-184 116 -466 447q-110 142 -189 193 q-275 -382 -550 -631q-258 350 -531 837l-486 -530l74 -81q354 -446 493 -706q-32 -58 -324 -353q-288 -295 -537 -596z" />
<glyph unicode="Z" horiz-adv-x="3221" d="M10 933q41 291 62 554t24 500q325 66 648.5 134.5t634.5 138t604 139.5t557 138l120 28l240 -242q-5 -87 -10 -191t-9 -210.5t-6 -208.5t-2 -184q0 -46 0.5 -98t2 -105t2.5 -104.5t3 -95.5q-42 -46 -76 -84.5t-62 -70.5q68 14 135 26.5t136 24.5q0 -2 -0.5 -3.5 t-0.5 -3.5l198 -197q-40 -353 -95 -639t-126 -506q-168 -26 -339.5 -55t-338 -60t-324.5 -63t-300 -65q-312 -84 -643 -192.5t-676 -242.5l-198 198l-6 -3q63 486 63 791q0 36 -1 80t-2.5 90t-3.5 91t-4 82q163 145 311.5 282t286.5 273q-165 -45 -314.5 -80.5t-286.5 -61.5 l-197 197q-2 0 -3.5 -0.5t-3.5 -0.5zM153 1084q469 93 1392 400q-535 -622 -1205 -1211q8 -149 8 -294q0 -312 -38 -604q514 199 1148 368q569 131 1243 235q117 363 177 898q-481 -86 -1045 -243q182 128 729 736q-6 179 -6 363q0 328 20 674q-7 0 -7 15 q-1055 -271 -2354 -533q-4 -388 -62 -804z" />
<glyph unicode="a" horiz-adv-x="2189" d="M-23 27q16 80 37.5 199.5t46.5 264t51.5 308t52.5 333.5q22 186 41.5 343t34.5 279.5t25.5 208t16.5 128.5q7 52 16.5 116t19.5 129.5t20 128t18 110.5q103 16 216 35t226 39.5t222 43t204 43.5l147 -93v-5l197 -181q21 -154 39.5 -265t35.5 -189q26 -119 63.5 -255.5 t87.5 -294.5l125 -420l1 -3q40 -125 80 -250.5t81 -250.5q10 -35 49.5 -139t111.5 -286q-414 -134 -862 -397l-198 183q-1 -1 -2 -1.5t-2 -1.5q-9 27 -18 55.5t-18 55.5q-2 7 -4 12.5t-4 10.5q-8 -85 -14.5 -186.5t-11.5 -222.5q-266 81 -496.5 139t-431.5 93l-196 182 q-2 0 -4 0.5t-4 0.5zM117 115q289 -52 682 -171q16 342 52 530q105 13 264 75q43 -210 133 -490q325 190 644 294q-100 251 -122 332l-162 502l-125 422q-103 328 -154 558q-34 154 -76 461q-379 -86 -790 -149q-32 -193 -61 -401q-23 -179 -118 -958q-103 -683 -167 -1005z M877 909q8 260 54 494q41 -203 100 -463q-45 -28 -154 -31z" />
<glyph unicode="b" horiz-adv-x="2431" d="M10 339q34 572 60 923t45 473q6 93 15 199t19 215t21 216t22 202q210 76 490 76q56 0 122 -2.5t135 -6.5q744 -78 1101 -489l141 -141q83 -83 150 -185l7 -12q55 -110 55 -214q0 -41 -9 -80q-17 -151 -84.5 -263.5t-181.5 -191.5l105 -104q8 -8 15 -15.5t15 -15.5l3 -3 q143 -143 165 -381q-83 -357 -291 -497q-100 -81 -215 -119q-115 -40 -223 -63t-194 -25q-70 -19 -189 -19q-69 0 -157.5 6t-199.5 19q-169 21 -419 98q-218 69 -287 138l-173 172q-60 44 -62 90h-1zM130 332q0 -6 238 -81q240 -75 398 -94q210 -24 342 -24q117 0 172 19h11 q160 0 384 81q102 35 188 105q172 116 239 407q-16 180 -129 292q-112 128 -315 228q374 114 412 475q6 26 6 53q0 75 -43 162q-313 477 -1103 560q-136 8 -247 8q-260 0 -380 -43q-43 -385 -68 -759q-105 -659 -105 -1389zM885 1852q73 19 149 19q111 0 225 -41 q103 -46 111 -150q-17 -141 -484 -166q-5 86 -5 175q0 81 4 163zM900 1050q90 20 176 19q126 0 246 -41q143 -49 166 -171q-19 -167 -444 -167q-52 0 -111 3q-36 129 -36 274q0 41 3 83z" />
<glyph unicode="c" horiz-adv-x="2531" d="M10 389q0 49 3 85q45 512 374 1011q76 114 179.5 228.5t228.5 225.5q121 108 265 190q14 8 27.5 15t27.5 15q1 0 2 1q45 23 91 43.5t95 38.5l42 15q8 3 16.5 6t16.5 5q118 39 245 64t266 36v-6l197 -197l9 -1314q11 11 23 22l24 22l1 -10l197 -196l181 -1056 q-520 -442 -927 -550q-140 -27 -269 -27q-198 0 -382 61q-232 90 -409 267l-134 134q-138 119 -244 281q-35 59 -62 125.5t-48 139.5q-36 175 -36 325zM133 464q-3 -37 -3 -75q0 -135 33 -296q35 -125 96 -230q203 -311 523 -436q166 -54 343 -54q119 0 243 24 q378 101 827 482l-134 776q-523 -491 -795 -491q-58 0 -105 23q-65 31 -105 57q-77 105 -77 241q0 178 131 410q68 140 258 243q115 62 241 62q82 0 168 -26l-7 1064q-514 -40 -894 -387q-243 -214 -388 -432q-313 -475 -355 -955zM1296 287q110 17 302.5 151t466.5 386 q-99 29 -163 44.5t-93 15.5q-46 0 -93 -13t-92 -36q-156 -86 -211 -195q-117 -206 -117 -353z" />
<glyph unicode="d" horiz-adv-x="2540" d="M10 1762q255 106 453 177.5t331 107.5q118 47 261.5 73t301.5 26q44 0 93.5 -2t97.5 -6l14 -2q321 -61 523 -296l150 -149h-1l5 -4q20 -20 38 -40.5t35 -42.5q160 -209 193 -432q13 -98 19 -164q3 -34 3 -60q0 -24 -2 -42q-17 -137 -53.5 -269.5t-96.5 -266.5 q-11 -30 -39.5 -88t-76.5 -149q-97 -144 -205 -269.5t-223 -231.5t-236.5 -191.5t-245.5 -148.5q-18 -9 -39.5 -19.5t-43.5 -21.5t-43.5 -21.5t-38.5 -19.5q-194 -69 -359.5 -103.5t-306.5 -34.5h-164l-197 197h-6q22 152 32.5 288t10.5 262q0 328 -46 813.5t-138 1129.5z M142 1687q173 -1203 173 -1867q0 -256 -26 -431h27q263 0 619 127l162 81q481 239 862 798q105 199 108 219q111 250 142 506q1 10 1 25q0 64 -21 211q-28 194 -169 377q-178 227 -481 285q-95 8 -182 8q-301 0 -524 -93q-261 -69 -691 -246zM891 1160q180 163 424 163 q94 0 198 -24q182 -93 201 -341q-19 -357 -739 -728v26q0 376 -84 904zM1218 912q14 -97 26 -189t21 -180q309 218 329 414l-4 22l-4 22q-19 2 -36.5 3.5t-34.5 1.5q-167 0 -297 -94z" />
<glyph unicode="e" horiz-adv-x="2169" d="M10 1907q0 52 3 90q150 27 357 27q118 0 288 -3q260 5 554 26t618 60l132 -133q0 -1 -0.5 -1.5t-0.5 -1.5l68 -67l130 -131q-13 -99 -20.5 -190t-11.5 -177l-8 -100q-3 -31 -4 -69.5t-3 -83.5v-2q0 -10 -0.5 -29t-0.5 -40t-0.5 -39.5t-0.5 -27.5q-45 -32 -92 -49.5 t-92 -17.5q-24 0 -56 1.5t-71 6.5q-20 -2 -47.5 -2h-61.5q-29 0 -60 0.5t-73 1.5l75 -75q-26 -142 -38 -256.5t-12 -205.5q0 -13 0.5 -35t1.5 -48h9q8 1 21 1h22q34 0 82 -11.5t118 -37.5q0 -2 -0.5 -2.5t-0.5 -2.5l198 -197q-8 -79 -15.5 -162.5t-14 -160.5t-12 -142.5 t-8.5 -107.5q-2 -26 -4.5 -67.5t-5 -86t-5.5 -86t-4 -65.5q-405 -8 -782 -52t-735 -127l-198 198q-2 -1 -2.5 -1t-2.5 -1q-16 193 -35 413.5t-39.5 450.5t-42.5 461.5t-43 447.5q-3 31 -9 108t-14 197q-51 405 -51 604zM125 1895q-1 -8 -1 -21q0 -114 57 -563 q16 -239 22 -301q85 -863 150 -1636q589 136 1301 149l12 198q12 170 42 486q-28 10 -74 10q-14 0 -30 -1q-196 -1 -375 -33q-185 -30 -377 -42l-12 4q-4 59 -4 143q0 56 2 124l2 22l429 49q-5 69 -5 138q0 190 35 381q-13 4 -60 4q-113 0 -419 -24q-5 59 -5 139q0 40 1 85 q122 34 266 45q186 8 264 22q90 -2 151 -2q76 0 105 3q77 -9 124 -9q52 0 67 11l2 77q1 90 8 163l7 96q8 172 33 376q-661 -80 -1187 -87q-170 3 -287 3q-195 0 -244 -9z" />
<glyph unicode="f" horiz-adv-x="2202" d="M10 2204q129 13 278.5 29t311.5 35t334 40t345 43.5t344 45.5t332 46l2 -7l196 -196l39 -137q-3 -163 -7 -310.5t-8.5 -266t-8.5 -200.5t-7 -114q-155 -11 -291.5 -23t-256.5 -26l71 -70q0 -15 2 -62t4 -116t5 -155t6 -180t6 -190.5t6 -186.5q-11 0 -41.5 1t-65 2t-65 2 t-42.5 1q-36 0 -53 0.5t-31 0.5t-33.5 -1.5t-59.5 -5.5q23 -165 62 -356t96 -412q-582 -13 -916 -92l-197 197q-4 0 -5 -1q-15 103 -28.5 204t-26.5 194t-24.5 176.5t-20.5 151.5t-15.5 119t-9.5 79q-10 85 -59 431.5t-138 957.5q-6 48 -11 105.5t-9 109.5t-7 90t-3 47z M135 2096q1 -36 24 -228q178 -1222 197 -1392t106 -790q223 53 669 63q-99 388 -139 759q162 18 306 18q48 0 94 -2q-18 539 -21 630q-158 -29 -441 -63q-10 161 -21 313q365 77 943 118q11 129 23 782l-2 6q-966 -138 -1738 -214z" />
<glyph unicode="g" horiz-adv-x="2530" d="M10 129v27q0 443 198 821q48 91 101 173t108 152q134 175 308.5 328t379.5 271q370 176 714 176q109 0 217 -18l9 -14l190 -189l95 -134q-28 -170 -44.5 -426t-23.5 -596h-159q-134 0 -323 -68q66 -3 139 -3q20 0 51 0.5t68 2t77 2.5t78.5 2.5t72.5 3t58 2.5q-1 -2 -1 -6 l197 -197q-42 -249 -62.5 -455.5t-20.5 -375.5q0 -97 9.5 -234t27.5 -313q-168 50 -315 75.5t-282 30.5q-214 -158 -407 -234q-189 -74 -367 -74h-9h-2q-163 1 -379 111q-75 40 -144 109l-154 154q-99 82 -189 222h1q-61 75 -165 293q-48 245 -51 355q0 6 -0.5 12.5 t-0.5 13.5zM131 105q3 -99 46 -319q101 -212 147 -260q120 -187 243 -252q192 -98 327 -98h8q332 0 737 309q311 -8 501 -63q-20 190 -20 386q0 344 61 708q-141 -7 -257 -7q-204 0 -331 21q-114 17 -163 17q-37 0 -37 -10l3 -97l11 -444q0 -59 -269 -76q-214 30 -220 251 q4 179 92 375q148 246 374 333q308 138 519 138h44q10 572 68 924q-97 16 -196 16q-316 0 -659 -163q-393 -225 -647 -564q-105 -133 -198 -308q-185 -354 -185 -766q0 -26 1 -51zM1240 36q32 -7 46 -23q-2 55 -2.5 104t-2.5 92q-15 -45 -25 -88t-16 -85z" />
<glyph unicode="h" horiz-adv-x="2595" d="M10 2856q511 40 1011 249v-9l197 -196q5 -55 8 -107.5t8 -103.5q249 52 421.5 113.5t272.5 131.5l188 -87v-6l197 -196q36 -456 72 -900.5t70.5 -868t67 -821t62.5 -758.5q-155 -68 -360 -189.5t-465 -298.5l-198 198q-2 -1 -4 -3q-5 51 -10.5 101.5t-10.5 101.5 l-874 -383l-198 198l-5 -3q-22 664 -135 1623t-315 2214zM149 2746q386 -2389 425 -3546l679 298q-44 319 -111 1107l348 171q72 -658 166 -1560q363 247 605 354q-120 1444 -265 3266q-233 -165 -691 -256q80 -575 117 -1192l-331 -151q-77 438 -177 1693 q-366 -153 -765 -184z" />
<glyph unicode="i" horiz-adv-x="1534" d="M24 1576v28q0 387 378 572q165 65 347 79h19q255 -21 380 -127q17 -15 32.5 -30.5t29.5 -32.5l164 -164q31 -30 54.5 -64.5t41.5 -73.5q40 -88 54 -236q-21 -215 -194 -375l144 -143q-58 -470 -87 -879.5t-29 -759.5v-175q-8 0 -34 1.5t-56 3t-56 2.5t-34 1 q-145 0 -329.5 -50.5t-413.5 -151.5l-197 197q-3 0 -5 -2q-16 122 -32.5 270.5t-33.5 313t-33.5 339t-31.5 350t-28.5 345t-23.5 324.5q54 5 105 11t99 11l-78 79l-15 12q-61 54 -94.5 134.5t-42.5 190.5zM144 1583q13 -167 95 -240q143 -114 282 -114q13 0 26 1 q270 30 475 184q167 135 184 314q-11 117 -42 186q-33 72 -93 123q-95 80 -313 98q-163 -12 -307 -69q-307 -151 -307 -461v-22zM177 1031q61 -927 154 -1660q335 149 646 149q32 0 64 -2v57q0 704 117 1648q-122 -101 -981 -192z" />
<glyph unicode="j" horiz-adv-x="2665" d="M10 185q0 27 0.5 61t2.5 62q26 184 121.5 350.5t257.5 315.5q137 -92 325 -172.5t431 -154.5q-1 -2 -3 -4l198 -198q-91 -131 -139.5 -243t-54.5 -198v-25q51 14 91.5 38.5t70.5 60.5h-1q109 187 109 596q0 283 -59.5 697.5t-180.5 960.5q586 69 974 188l151 -94 q0 -5 1 -7l196 -196q76 -461 115 -875.5t39 -783.5q0 -149 -7 -295.5t-21 -292.5q-74 -424 -413 -715q-152 -126 -327.5 -207.5t-378.5 -119.5q-88 -14 -169 -21.5t-156 -7.5q-66 0 -130.5 6t-126.5 17q-261 67 -395 200v-1l-164 164q-11 8 -20 17t-18 17q-164 161 -258 400 q-61 201 -61 460zM133 295q-3 -56 -3 -109q0 -237 55 -421q82 -212 228 -354q111 -110 338 -169q108 -20 232 -20q142 0 305 27q372 69 651 302q309 266 373 641q26 271 26 573q0 729 -152 1639q-396 -121 -861 -176q214 -974 214 -1554q0 -448 -127 -662 q-103 -129 -286 -160q-294 36 -294 344v16q13 210 123 368q-341 103 -551 242q-224 -206 -271 -527z" />
<glyph unicode="k" horiz-adv-x="2720" d="M10 2340q94 26 199 55t213 58.5t214 59t201 56t174.5 48.5t134.5 37v-8l197 -196q3 -40 6.5 -97t7.5 -128.5t8.5 -156t8.5 -177.5q72 72 147.5 155.5t158.5 180.5l85 -89l115 -115l548 -574q-100 -105 -196.5 -206t-179 -186t-146.5 -148.5t-98 -94.5 q-14 -11 -17.5 -13.5t-5 -3.5t-4 -3t-12.5 -12q5 -4 9.5 -7.5t9.5 -7.5q15 -13 30 -25.5t29 -25.5q9 -8 19.5 -17t19.5 -17q84 -74 175 -153t175.5 -153.5t157 -138t120.5 -105.5l-2 -2l198 -198q-117 -105 -214 -204t-173 -193q-178 -178 -311 -178q-11 11 -23.5 23 t-26.5 26l-148 148h-3q-51 48 -122.5 124.5t-162.5 182.5q7 -107 14 -217t14.5 -217t14 -207.5t12.5 -186.5q-85 34 -185 64.5t-198 51.5q-93 20 -229 30.5t-314 10.5h-164l-197 197h-6q-1 598 -70.5 1336.5t-207.5 1616.5zM145 2253q261 -1662 263 -2746h48q370 0 568 -44 q210 -47 228 -53l-65 999l172 -190q166 -191 227 -242q199 -238 271 -303q39 0 179 140q152 186 298 317q-217 190 -623 545q-254 209 -329 292q86 81 149 134q136 125 535 546l-382 400q-326 -379 -607 -572q-16 746 -39 1023q-330 -91 -893 -246z" />
<glyph unicode="l" horiz-adv-x="2208" d="M10 1570q104 30 224 66.5t243 75t242.5 76.5t221.5 73l155 -101v-7l197 -196q37 -395 62.5 -651t38.5 -372q4 -72 9 -148t10 -157q54 26 125 59t155 71q33 19 71 34t78 26t80.5 18.5t78.5 10.5v-6l197 -197q-31 -904 -68 -1002q-55 -29 -134 -58t-186 -58 q-85 -33 -369 -124t-767 -237l-198 198q-2 -1 -2.5 -1t-2.5 -1q-9 96 -22.5 215.5t-29.5 244t-33.5 246.5t-35.5 224q-18 97 -36 191.5t-35 182t-32.5 166.5t-28.5 146q-19 105 -44 230t-52.5 255.5t-56 260.5t-55.5 246zM153 1487q106 -464 183 -886q55 -278 132 -687 q70 -409 108 -795q859 261 998 320q205 56 262 86q13 36 40 791q-17 -1 -129 -65q-310 -139 -390 -186l-225 -97l-22 251q-18 274 -32 505q-26 232 -101 1022q-409 -138 -824 -259z" />
<glyph unicode="m" horiz-adv-x="3687" d="M10 2186q306 78 589.5 183.5t550.5 239.5l3 -10l195 -194l186 -493q38 155 73 307t67 295q519 110 1013 263q0 -2 0.5 -4t0.5 -4l197 -196q273 -1266 477 -1892q56 -174 106 -332t91 -288.5t71 -228.5t47 -152q-65 -43 -143.5 -96.5t-163.5 -112.5t-172.5 -120t-169 -118 t-153 -108t-124.5 -90l-198 198q-2 -1 -4 -3q-15 84 -37.5 194t-51 241t-62 279.5t-71.5 307.5q-32 -149 -56.5 -249.5t-46.5 -163.5q-198 -30 -326 -53t-186 -40l-136 -36l-198 198l-4 -2q-31 72 -56.5 129.5t-47.5 100.5q-3 -146 -3 -281q0 -147 3.5 -276.5t12.5 -252.5 q9 -137 14 -247t4 -186q0 -51 -7 -122.5t-24 -174.5q-98 33 -206 69.5t-211.5 69.5t-193 61t-149.5 45l-236 79l-196 196l-7 2q13 134 20 284.5t7 316.5q0 47 -0.5 96t-1.5 102v12q3 94 4 195.5t1 212.5q0 164 -3 342t-9 378q-11 132 -22 277.5t-21 293t-19.5 290 t-16.5 268.5zM136 2095q30 -502 73 -1028q13 -403 13 -732q0 -220 -6 -407q2 -109 2 -206q0 -332 -19 -520l146 -49q240 -67 632 -201q7 49 7 145q0 153 -18 421q-16 247 -16 543q0 228 10 485q-12 229 -12 321q0 29 1 45q-8 -3 -9 5l8 3q223 -347 355 -606q56 -63 142 -266 l37 11q128 37 456 86q16 47 95 427q140 542 158 661l8 3q9 -60 63 -213l-7 -2q1 -7 8 -5q273 -1056 369 -1577q321 232 708 490q-66 218 -289 916q-205 630 -453 1779q-375 -116 -823 -211q-114 -521 -254 -1027q-118 268 -207 448l-229 608q-423 -212 -949 -347z" />
<glyph unicode="n" horiz-adv-x="3211" d="M10 -216q26 113 53 231.5t53 236t50.5 231t46.5 217t40 193.5t31 161q18 102 46.5 248.5t64 326t77 385t87.5 426.5l887 184q1 -2 1 -4.5t1 -4.5l196 -195q44 -155 97.5 -332.5t113.5 -360.5q26 107 51.5 217.5t51.5 220.5q275 38 500 80t405 90l35 -40l164 -163 l139 -155q-219 -571 -411 -1150t-357 -1164q-163 -8 -332 -49.5t-348 -114.5l-198 198q-2 0 -4 -2q-65 135 -124 265t-115 261q-10 -61 -20.5 -124.5t-21 -125.5t-20 -121.5t-17.5 -111.5q-47 -9 -118 -20.5t-157.5 -25t-183 -27.5t-194 -27.5t-191.5 -26.5t-175 -23 l-197 197q-4 0 -7 -1zM166 -75q484 61 765 113l94 573l86 470q238 -684 501 -1232q275 113 531 127q307 1091 749 2243q-370 -97 -835 -162q-129 -558 -235 -939q-60 154 -133 336q-184 531 -327 1029l-701 -145q-188 -905 -259 -1305q-78 -427 -236 -1108z" />
<glyph unicode="o" horiz-adv-x="2440" d="M10 175q0 172 38.5 337t115.5 327q122 250 422 580q137 100 266.5 173.5t252.5 121.5q143 68 448 93q292 -27 478 -246l157 -156q32 -32 60.5 -68t54.5 -78q127 -231 127 -503q-1 -142 -33 -290.5t-95 -306.5q-114 -247 -209 -381q-20 -32 -64.5 -84.5t-110.5 -121.5 q-189 -195 -499 -350q-88 -35 -188.5 -52t-215.5 -17q-27 0 -60 1t-62 3l-9 1q-215 33 -405 197l-177 177q-6 5 -12.5 10.5t-12.5 10.5q-213 237 -264 525q-2 22 -2.5 48.5t-0.5 48.5zM133 89q43 -244 228 -450q157 -137 341 -165q59 -4 114 -4q206 0 355 59 q289 144 463 324q137 143 162 191q92 127 199 361q116 289 118 552q0 244 -110 442q-165 261 -450 287q-274 -22 -397 -81q-235 -90 -486 -273q-283 -312 -397 -545q-143 -300 -143 -613q0 -42 3 -85zM689 129q0 217 212 463q126 145 388 212q238 -1 238 -199q0 -13 -1 -26 q-19 -134 -125 -300q-241 -328 -550 -362q-127 23 -162 212zM1051 111q133 79 249 232l-1 1q14 23 26.5 44.5t23.5 42.5q-100 -48 -159 -115l-1 -1q-92 -107 -138 -204z" />
<glyph unicode="p" horiz-adv-x="2397" d="M10 2106q0 59 3 98q171 73 354.5 108.5t383.5 35.5q106 0 223 -9t248 -26q239 -51 442 -170.5t376 -313.5l127 -127q18 -18 36 -36.5t35 -38.5l10 -13q139 -210 139 -417q0 -342 -366 -648q-145 -131 -290.5 -210t-297.5 -105q-61 -13 -101 -22t-68.5 -15t-49 -9.5 t-42.5 -5.5q17 -146 43.5 -317t63.5 -372l10 -161q-98 -24 -200.5 -47.5t-200.5 -45.5t-187.5 -41.5t-161.5 -34.5t-122.5 -25t-70.5 -13l-198 198q-2 -1 -5 -1q-18 325 -35 641.5t-31 607.5t-25 548t-18 464q-24 352 -24 523zM128 2122v-21q0 -101 26 -510 q29 -826 102 -2129q121 19 711 161l-5 58q-88 477 -118 801q92 8 364 66q268 47 534 288q328 273 328 561q0 173 -119 352q-317 355 -749 446q-244 33 -451 33q-371 0 -623 -106zM746 1402q99 36 202 36q108 0 220 -40q118 -55 128 -191q-17 -189 -502 -245q-49 183 -49 383 q0 28 1 57zM1371 469q66 23 131.5 56t130.5 76q-131 -85 -262 -132z" />
<glyph unicode="q" horiz-adv-x="2585" d="M21 581q1 262 171 570l44 77q50 88 267 320q305 290 562 384q118 35 226.5 52.5t209.5 17.5q219 0 394.5 -79.5t314.5 -239.5l147 -147q15 -15 29.5 -30.5t28.5 -32.5l13 -19q32 -57 53.5 -106.5t34.5 -91.5q17 -39 31 -110.5t22 -172.5q-35 -576 -384 -885 q46 -38 94.5 -76t101.5 -76q-1 0 -3 -2l197 -197q-118 -78 -227 -158.5t-206 -162.5q-99 -59 -213.5 -142t-248.5 -195l-198 198q-2 -1 -4 -3q-8 32 -17 64.5t-17 63.5q-10 36 -19 70.5t-18 67.5q-76 -23 -153 -35.5t-157 -12.5q-152 0 -312 72t-329 218l-175 175 q-7 6 -13.5 11.5t-13.5 11.5q-233 276 -233 574v27zM141 577v-22q0 -253 197 -488q299 -258 559 -258q259 0 500 147q67 -171 148 -471q134 111 331 228q189 160 294 229q-179 130 -368 353q414 277 449 875q-17 196 -44 243q-19 74 -81 184q-241 285 -626 285 q-182 0 -397 -64q-232 -85 -515 -354q-203 -218 -247 -295l-45 -77q-155 -281 -155 -515zM786 588q18 128 119 285q228 312 588 314q160 -20 171 -218q-31 -224 -154 -373q-204 -214 -499 -221q-226 1 -226 187q0 13 1 26zM1150 517q77 23 146.5 64t126.5 98q57 70 88 163 q-178 -57 -308 -232h1q-32 -48 -54 -93zM2296 1591l2 -2z" />
<glyph unicode="r" horiz-adv-x="2265" d="M10 1372q128 168 298 297t387 220l13 5q75 21 152.5 32.5t152.5 11.5q48 0 94 -5t92 -13q245 -48 366 -197l166 -166q26 -27 49 -58q70 -123 70 -272q0 -229 -171 -524q-33 -44 -56.5 -75t-44 -58t-42 -53t-50.5 -59q115 -97 258 -204.5t315 -223.5l-3 -3l199 -198 l-552 -661l-198 198l-2 -2l-282 295q2 -12 5 -22.5t5 -19.5q12 -54 22.5 -158t18.5 -262q-235 95 -454.5 164.5t-429.5 115.5l-196 196q-2 0 -3.5 0.5t-3.5 0.5q-2 41 -5 105.5t-8.5 142t-12 162.5t-14.5 167q-11 114 -31 286.5t-47 396.5q-3 22 -8.5 65t-13 100.5 t-16.5 127t-19 145.5zM135 1339q40 -303 51 -391q55 -458 78 -685q32 -328 38 -491q336 -74 644 -198q-6 119 -29 217t-97 462l677 -709l385 461q-397 272 -664 536l-100 101q127 145 264 327q151 261 151 458q0 118 -54 213q-86 120 -302 162q-81 16 -164 16 q-132 0 -272 -40q-402 -170 -606 -439zM638 1088q136 118 203 134q25 8 45 8q58 0 73 -69q3 -12 3 -25q0 -109 -194 -298l-64 -53l-37 141q-11 51 -29 162z" />
<glyph unicode="s" horiz-adv-x="2369" d="M10 915q0 209 76 503q29 100 67.5 197.5t76.5 175.5q19 48 65 111l10 12t10 13q2 2 3.5 4.5t3.5 4.5q3 3 7 9q49 60 118 129t159 146q270 161 539 240.5t542 79.5q40 0 108 -4t174 -15l-1 -6l198 -197l-60 -1093q-146 54 -255.5 79.5t-185.5 25.5q-35 0 -70 -3t-72 -8h18 q64 0 109 -9v-1q60 -11 129.5 -45t142.5 -86q32 -24 65 -65l170 -169q16 -17 32 -36t31 -42q79 -99 118 -253q21 -93 21 -196q0 -193 -75 -430q-89 -212 -164 -316q-116 -208 -423 -402q-373 -209 -1001 -212h-5q-78 2 -183.5 23.5t-243.5 64.5l-196 196q-2 1 -4 1t-4 1 q70 153 130.5 362t111.5 478q71 -17 128.5 -27t105.5 -15q-35 19 -67.5 42.5t-61.5 53.5l-158 157q-46 38 -85 86q-42 46 -75 107t-59 136q-11 48 -15.5 96t-4.5 96zM144 761q45 -131 112 -204q86 -104 198 -137q99 -32 221 -32q25 0 51 1q110 3 170 22q77 6 266 88 q171 100 264 103q11 2 21 2q42 0 56 -46q1 -7 1 -15q0 -47 -26 -108q-71 -129 -189 -245q-162 -130 -479 -163q-113 -9 -202 -9q-129 0 -212 19q-81 -425 -170 -619q131 -40 269 -44q596 3 943 196q283 179 383 364q67 95 153 294q68 214 68 388q0 90 -18 170 q-33 134 -99 212q-40 62 -74 83q-131 93 -227 111q-36 7 -82 7q-76 0 -179 -18q-78 -21 -291 -127q-79 -36 -135 -36q-107 0 -129 132q-1 13 -1 27q0 299 307 413q182 57 352 57q172 0 332 -58l45 824q-79 7 -157 7q-510 0 -1012 -299q-306 -263 -332 -376 q-79 -154 -140 -359q-73 -280 -73 -471q0 -86 15 -154z" />
<glyph unicode="t" horiz-adv-x="2670" d="M10 2149q142 24 256.5 39.5t194.5 20.5v-1q69 10 241 25.5t452 36.5q390 49 665 84.5t441 57.5l134 -121v-4l197 -197q-1 -27 -1 -52.5v-52.5q0 -177 17 -386t53 -456q-210 -17 -374 -36t-284 -42q3 -150 10 -347t17 -431.5t22.5 -502t27.5 -558.5q-189 -48 -324.5 -92 t-218.5 -86q-24 -9 -58.5 -23t-72.5 -30t-76.5 -33t-72.5 -31.5t-59.5 -25.5t-36.5 -16l-198 198q-4 -2 -5 -3q-1 24 -1.5 62.5t-1 84t-1.5 94t-1.5 94t-1 84.5t-0.5 64q0 154 3 310q2 40 3 82t1 90q0 94 -3.5 197t-11.5 225l-25 418q-113 -26 -242 -61.5t-276 -81.5 l-198 197q-2 0 -2.5 -0.5t-2.5 -0.5q-3 27 -7 66t-9 84.5t-10.5 95t-11 97t-11 91t-10.5 77.5q-14 91 -31 192t-34.5 196.5t-34 176t-27.5 131.5zM155 2052q47 -210 101 -582q28 -206 45 -369q401 126 715 158l46 -781q15 -245 15 -432q0 -93 -4 -172q-3 -156 -3 -307 t3 -299q68 30 213 86q171 85 471 161q-65 1266 -74 1845q289 61 643 90q-53 373 -53 736q0 54 1 107q-331 -44 -1111 -143q-584 -43 -694 -61q-161 -11 -314 -37z" />
<glyph unicode="u" horiz-adv-x="2430" d="M10 1053q0 158 42 332t129 369q156 5 372.5 62t497.5 165q-14 46 -28 90.5t-29 88.5q26 -2 65 -3.5t84 -4t92.5 -4.5t91.5 -3.5t81 -2.5t61 -1q115 0 216.5 6t194.5 17l118 -59q1 -3 5 -9l193 -193q113 -199 182 -592q42 -356 42 -507q0 -22 -0.5 -40.5t-2.5 -35.5 q-6 -265 -62 -483q-78 -340 -197 -541q-63 -110 -130 -186.5t-139 -124.5q-73 -51 -151 -83.5t-159 -44.5q-29 -4 -56.5 -5.5t-56.5 -1.5q-227 0 -453 114l1 -1q-152 71 -302 223l-129 129q-29 26 -58 54t-58 60q-106 115 -171 221q-133 236 -203 456t-77 409q-4 35 -5 67 t-1 63zM136 927q7 -351 264 -808q57 -95 155 -200q159 -171 309 -242q203 -102 403 -102q49 0 97 6q132 20 258 108q123 79 235 275q110 184 184 507q53 204 59 464q3 28 3 70q0 152 -40 489q-64 367 -169 551q-191 -24 -425 -24q-144 0 -303 9q118 -343 162 -935 q0 -280 -52 -413q-51 -117 -162 -132q-145 15 -205 199q-59 218 -59 450q0 295 95 611q-407 -162 -684 -173q-131 -296 -131 -584q0 -63 6 -126zM1167 999q0 -55 3 -108.5t11 -106.5q13 57 19.5 134.5t7.5 167.5l-8 86t-9 86q-13 -75 -18.5 -139.5t-5.5 -119.5z" />
<glyph unicode="v" horiz-adv-x="2683" d="M10 2249q85 61 187 113t217 96q97 45 199.5 84t205.5 69l149 -95q0 -5 1 -7l196 -196q26 -157 55.5 -311t63.5 -309q45 172 81.5 336t68.5 325l1043 50q-2 -4 -2 -5l198 -198q-13 -38 -31 -93t-39.5 -120.5t-45 -138.5t-48 -147.5t-48 -147.5t-44.5 -139 q-56 -168 -105.5 -333.5t-95.5 -336.5q-57 -168 -104 -325t-85 -310q-13 -45 -26.5 -91.5t-24.5 -87t-20 -72t-13 -46.5l-229 -87l1 -1q-83 -33 -172 -69.5t-172.5 -71t-154.5 -64.5t-119 -51l-198 198q-1 -1 -1.5 -1t-1.5 -1q-101 182 -185 353.5t-147 322.5 q-13 27 -33.5 79.5t-47.5 126.5t-60 168t-70 205q-39 95 -125 428.5t-218 900.5zM145 2198q251 -1077 321 -1236q183 -541 209 -575q126 -304 273 -569q191 82 523 216l175 67q17 60 69 240q77 305 189 638q91 340 202 673q126 394 202 624l-774 -38q-102 -528 -321 -1242 l-77 211q-53 174 -84 313q-121 490 -202 974q-205 -59 -391 -148q-222 -83 -314 -148z" />
<glyph unicode="w" horiz-adv-x="3309" d="M10 1471q79 25 195.5 115.5t277.5 249.5q46 46 118 93t163 94q1 -2 1 -4.5t1 -4.5l196 -195q18 -57 40.5 -127.5t48.5 -153.5q97 51 204.5 109t207.5 113t181.5 101t126.5 72l6 -12l193 -193q18 -36 37 -76t39.5 -81.5t40.5 -83t39 -80.5q5 136 11 255t12 218t12 176 t12 130q120 56 233.5 109t212.5 99t180 83t135 61l168 -113v-4l197 -197q-5 -175 -18 -360.5t-36 -386.5h1q-17 -185 -32.5 -393.5t-29.5 -435t-27 -466.5t-24 -488q-219 -154 -416 -313t-377 -326l-198 198l-3 -3l-131 222q-17 38 -31.5 70.5t-26.5 59.5q-13 29 -24.5 54.5 t-22.5 50.5t-23.5 52t-27.5 59q-4 -47 -6.5 -94.5t-5.5 -96.5q-210 -120 -726 -615l-198 198l-3 -3q-27 72 -59.5 156.5t-68 176t-73.5 186.5t-76.5 187.5t-75 180t-70.5 162.5q-126 279 -246.5 584t-233.5 631zM164 1393q183 -529 436 -1088q201 -454 362 -885 q400 384 565 478q31 495 64 742q347 -717 524 -1112l52 -89q261 242 652 518q44 991 110 1730q43 391 53 741q-218 -97 -697 -322q-33 -322 -60 -1337l-7 -1q-89 144 -142 259q-73 154 -171 349q-61 138 -184 387q-182 -106 -572 -309q-23 -319 -96 -673q-39 80 -76 180 q-177 549 -285 890q-47 -24 -125 -100q-340 -338 -403 -358z" />
<glyph unicode="x" horiz-adv-x="2677" d="M10 1535q94 125 176 218t147 148q57 57 136.5 113.5t180.5 109.5l148 -33q4 -5 7.5 -9.5t6.5 -9.5l185 -184q34 -45 63.5 -84t57.5 -76.5t55.5 -74.5t57.5 -79q216 274 567 591q2 -4 4.5 -7t4.5 -7l191 -190q47 -68 104 -146.5t117.5 -160.5t123 -164.5t121 -158.5 t110.5 -142.5t93 -116.5q-213 -201 -367 -360.5t-254 -283.5q139 -181 291.5 -355t321.5 -345q-418 -341 -693 -731l-198 198q-2 -2 -2 -3q-71 85 -154.5 203.5t-191.5 282.5q-118 -152 -226.5 -331t-210.5 -390l-198 198q0 -1 -0.5 -2t-0.5 -2q-174 230 -288 388.5 t-163 238.5h1q-26 35 -60.5 78.5t-70.5 88.5t-70.5 86.5t-60.5 72.5q120 176 256.5 353.5t288.5 355.5q-128 182 -278.5 361.5t-328.5 360.5zM168 1544q327 -333 601 -740q-338 -385 -546 -693q107 -126 210 -265q104 -169 328 -466q183 376 505 735q95 -151 184 -261 q274 -423 308 -465q195 276 527 548q-285 288 -587 692q210 277 609 653q-244 298 -529 704q-357 -323 -578 -660q-277 404 -496 691q-187 -97 -287 -202q-122 -101 -249 -271z" />
<glyph unicode="y" horiz-adv-x="3073" d="M10 144q154 187 302.5 353t295.5 316l87 87t66 65q47 46 75.5 77.5t39.5 48.5q-138 239 -445 622q-11 11 -29 31.5t-38 43.5q-23 25 -44 48t-30 34l671 732q2 -4 3.5 -7.5t3.5 -6.5l192 -191q100 -180 190.5 -333t171.5 -281q108 112 223 253.5t242 318.5 q78 -49 145.5 -106.5t123.5 -119.5l153 -153q25 -25 47 -50.5t42 -51.5q9 -12 18.5 -23t18.5 -22q162 -150 333 -256l-3 -3l198 -198q-148 -140 -238.5 -222t-128.5 -109q-35 -32 -71 -64t-71 -64l-791 -740l-2 -2q-66 -65 -124 -124.5t-113 -119.5q-51 -57 -114 -128.5 t-134 -151.5t-147.5 -166l-153 -172t-151.5 -170t-143 -160l-198 198q-1 -1 -1.5 -2t-1.5 -2q-83 235 -199.5 476t-270.5 495zM157 133q266 -439 368 -729q410 458 713 802q111 120 243 250l795 744l147 132q64 44 250 221q-184 116 -466 447q-110 142 -189 193 q-275 -382 -550 -631q-258 350 -531 837l-486 -530l74 -81q354 -446 493 -706q-32 -58 -324 -353q-288 -295 -537 -596z" />
<glyph unicode="z" horiz-adv-x="3401" d="M10 685q44 341 103 614t136 484q588 83 1283 269t1497 476q-1 -3 -1 -8l197 -197q-34 -232 -51.5 -418t-17.5 -326q0 -34 1 -77t3 -88t4.5 -88.5t4.5 -78.5q-169 -136 -322.5 -267t-295.5 -262q155 47 315.5 92t328.5 90q-1 -3 -1 -7l197 -197q-45 -283 -68.5 -533 t-25.5 -473q-345 -88 -688.5 -173t-673 -165.5t-640.5 -153.5t-591 -137l-121 -29l-240 236q4 82 9.5 181t10 201t7 198.5t2.5 173.5q0 43 -0.5 94t-2 102.5t-3 101.5t-3.5 92q35 35 66 65.5t57 56.5q-69 -12 -136.5 -23.5t-136.5 -21.5l-197 197q-2 -1 -6 -1zM149 829 q512 81 1111 229q-193 -121 -775 -693q7 -167 7 -340q0 -309 -22 -636q8 0 8 -14q1122 255 2503 606q4 365 66 756q-751 -199 -1480 -480q517 637 1281 1244q-9 141 -9 277q0 293 41 568q-1425 -514 -2543 -672q-124 -341 -188 -845z" />
<glyph unicode="&#xad;" d="M10 1252q474 117 892 240.5t781 253.5l159 -116v-4l197 -197q-1 -23 -1 -44.5v-44.5q0 -137 18.5 -304.5t58.5 -371.5q-881 -199 -1579 -522l-198 198l-4 -2zM167 1167l236 -665q592 274 1375 451q-67 349 -56 680q-736 -264 -1555 -466z" />
<glyph unicode="&#x2000;" horiz-adv-x="1675" />
<glyph unicode="&#x2001;" horiz-adv-x="3350" />
<glyph unicode="&#x2002;" horiz-adv-x="1675" />
<glyph unicode="&#x2003;" horiz-adv-x="3350" />
<glyph unicode="&#x2004;" horiz-adv-x="1116" />
<glyph unicode="&#x2005;" horiz-adv-x="837" />
<glyph unicode="&#x2006;" horiz-adv-x="558" />
<glyph unicode="&#x2007;" horiz-adv-x="558" />
<glyph unicode="&#x2008;" horiz-adv-x="418" />
<glyph unicode="&#x2009;" horiz-adv-x="670" />
<glyph unicode="&#x200a;" horiz-adv-x="186" />
<glyph unicode="&#x2010;" d="M10 1252q474 117 892 240.5t781 253.5l159 -116v-4l197 -197q-1 -23 -1 -44.5v-44.5q0 -137 18.5 -304.5t58.5 -371.5q-881 -199 -1579 -522l-198 198l-4 -2zM167 1167l236 -665q592 274 1375 451q-67 349 -56 680q-736 -264 -1555 -466z" />
<glyph unicode="&#x2011;" d="M10 1252q474 117 892 240.5t781 253.5l159 -116v-4l197 -197q-1 -23 -1 -44.5v-44.5q0 -137 18.5 -304.5t58.5 -371.5q-881 -199 -1579 -522l-198 198l-4 -2zM167 1167l236 -665q592 274 1375 451q-67 349 -56 680q-736 -264 -1555 -466z" />
<glyph unicode="&#x2012;" d="M10 1252q474 117 892 240.5t781 253.5l159 -116v-4l197 -197q-1 -23 -1 -44.5v-44.5q0 -137 18.5 -304.5t58.5 -371.5q-881 -199 -1579 -522l-198 198l-4 -2zM167 1167l236 -665q592 274 1375 451q-67 349 -56 680q-736 -264 -1555 -466z" />
<glyph unicode="&#x2013;" horiz-adv-x="1044" d="M10 1252q231 117 434 240.5t380 253.5l77 -116v-4l96 -197v-44.5v-44.5q0 -137 9 -304.5t28 -371.5q-429 -199 -768 -522l-96 198l-2 -2zM86 1167l115 -665q288 274 669 451q-33 349 -27 680q-358 -264 -757 -466z" />
<glyph unicode="&#x2014;" horiz-adv-x="2068" d="M10 1252q461 117 868 240.5t760 253.5l154 -116v-4l192 -197q-1 -23 -1 -44.5v-44.5q0 -137 18 -304.5t57 -371.5q-857 -199 -1536 -522l-193 198l-4 -2zM163 1167l229 -665q576 274 1338 451q-65 349 -54 680q-716 -264 -1513 -466z" />
<glyph unicode="&#x202f;" horiz-adv-x="670" />
<glyph unicode="&#x205f;" horiz-adv-x="837" />
<glyph unicode="&#x25fc;" horiz-adv-x="2165" d="M0 0v2165h2165v-2165h-2165z" />
</font>
</defs>
</svg>
