<?xml version="1.0" standalone="no"?>
<!DOCTYPE svg PUBLIC "-//W3C//DTD SVG 1.1//EN" "http://www.w3.org/Graphics/SVG/1.1/DTD/svg11.dtd" >
<svg xmlns="http://www.w3.org/2000/svg" xmlns:xlink="http://www.w3.org/1999/xlink" version="1.1">
<metadata></metadata>
<defs>
<font id="the_kings_of_the_houseregular" horiz-adv-x="1552" >
<font-face units-per-em="2048" ascent="1638" descent="-410" />
<missing-glyph horiz-adv-x="512" />
<glyph horiz-adv-x="0" />
<glyph unicode="&#xd;" horiz-adv-x="512" />
<glyph horiz-adv-x="0" />
<glyph horiz-adv-x="0" />
<glyph unicode=" "  horiz-adv-x="512" />
<glyph unicode="&#x09;" horiz-adv-x="512" />
<glyph unicode="&#xa0;" horiz-adv-x="512" />
<glyph unicode="!" horiz-adv-x="626" d="M72 1522q0 43 82 75q70 25 153 35l62 6q8 2 18 2q8 0 8 -2q14 -8 27 -65q23 -109 37 -320q12 -197 12 -356q0 -63 -4 -113q-25 -289 -78 -288q-16 0 -67 10q-92 47 -121 164q-80 303 -115 618q-10 117 -14 234zM174 201q0 84 86 141q41 29 84 29q88 0 133 -111 q20 -49 21 -96q0 -96 -101 -148q-33 -16 -61 -16q-43 0 -81 29.5t-58 81.5q-23 51 -23 90z" />
<glyph unicode="&#x22;" horiz-adv-x="630" d="M72 1255q0 33 8 152q4 63 24 172q14 80 50 121q14 14 28 14h4q119 -14 119 -182v-25q-2 -14 -2 -51v-20v-25q-2 -121 -46 -229.5t-99 -114.5h-4q-25 0 -43 33q-23 37 -35 110q-4 20 -4 45zM358 1458l2 80q0 102 15 145q45 39 78 39q59 0 94 -86q6 -16 10 -94 q0 -53 -4 -151q-4 -80 -16 -134q-45 -186 -107 -186q-20 0 -37 8q-18 80 -28 228q-6 78 -7 151z" />
<glyph unicode="#" horiz-adv-x="1667" d="M84 457v26q0 57 22 127q23 80 68 123q27 23 53 23h115v84q0 29 4 82q-102 8 -176 18t-82 18q-2 2 -2 17v12q4 51 23 127q20 82 67 123q20 20 55 20h29h41h51l19 197q10 82 22 90q2 2 15 2q23 0 38 -2q121 -12 203 -65q43 -31 43 -78v-41v-51q0 -16 -4 -70 q158 -10 285 -31q6 115 16 226q8 90 25 106q2 2 26 2h25q111 -6 203 -67q43 -27 43 -78v-60v-73q-2 -29 -2 -99l20 -4q154 -29 211 -106q14 -37 14 -64q0 -37 -262 -65l-24 -258l28 -6l31 -7q147 -23 213 -102q10 -41 10 -64q4 -39 -319 -73q-18 -117 -19 -117 q-27 -156 -104 -211q-37 -14 -61 -14q-45 0 -74 332h-174q-61 0 -189 4q-4 -33 -8 -52q-8 -37 -10 -55q-23 -154 -103 -211q-35 -14 -63 -14q-43 0 -74 342q-160 14 -184 16q-76 6 -84 21zM655 741q45 -6 144 -14l162 -18v198h-138q-51 0 -153 4l-6 -84z" />
<glyph unicode="$" horiz-adv-x="1064" d="M88 489v25q0 20 2 35q2 12 2 35v24q0 90 62 90q37 0 98 -30q18 -12 33 -25l45 -41l47 -41q20 -20 33 -26q41 -23 92 -23q74 0 90 68q2 8 2 24q0 49 -45 86q-29 23 -88 43q-14 2 -92 35l-56 23l-37 14q-61 20 -90 74q-35 55 -34 145q0 88 39.5 166t121.5 117q66 31 136 49 q-31 74 -41 131q-8 31 -9 59q0 29 13 37q53 35 153 51q37 4 51 4q70 0 76 -34q14 -76 15 -168q0 -27 -5 -72h54q18 0 51 4l16 2q43 0 70 -26.5t53 -88.5q31 -63 31 -108q0 -37 -21 -64q-35 -43 -120 -43q-78 0 -107 25q-35 23 -98 22q-90 0 -103 -77l-2 -17q0 -37 27 -58.5 t78 -41.5q55 -20 108 -35q135 -41 191 -121q25 -43 24 -88v-10v-25q-23 -256 -229 -338q2 -23 10 -71q6 -45 6 -84q0 -18 -4 -51q-4 -31 -18 -39q-37 -31 -164 -31h-18q-145 4 -168 53q-11 18 -11 51q0 49 35 150l-31 6q-135 25 -210 100q-63 63 -64 129z" />
<glyph unicode="%" horiz-adv-x="1685" d="M70 45q0 16 12 53q49 133 270 439q96 131 217 284q270 344 631 766q31 43 180 43l45 -2q72 -6 131 -24q55 -18 56 -39q0 -10 -33 -66q2 4 -84 -133l-127 -192q-139 -213 -328 -476q-217 -302 -350 -456q-78 -92 -153 -168q-70 -70 -246 -74h-37q-35 0 -88 4q-14 2 -40 4 t-41 8.5t-15 28.5zM139 1303q0 63 35 152t78 132q58 51 154 51q68 0 128 -43t95 -111.5t30 -137.5q-8 -260 -239 -261q-31 0 -68 7q-213 35 -213 211zM332 1352q0 -31 8 -64q10 -41 61 -41q86 0 105 45q2 4 2 15q0 39 -29.5 89t-62.5 50q-10 0 -15 -2q-70 -14 -69 -92z M1022 276q0 63 37 146.5t92 139.5t109 50q36 11 59 11q109 0 174.5 -74t65.5 -197q0 -86 -29 -134t-129 -112q-104 -68 -172 -67q-92 0 -149.5 67.5t-57.5 169.5zM1169 346q0 -37 19.5 -60.5t58.5 -23.5q125 0 125 68q0 39 -40 84t-72 45q-8 0 -13 -2q-35 -10 -56.5 -43 t-21.5 -68z" />
<glyph unicode="&#x26;" horiz-adv-x="1482" d="M82 553q0 49 6 100q47 352 358 412q-8 25 -22 55q-51 121 -57 244v12q0 152 153 223q84 39 246 39q262 0 336 -145q25 -49 24 -107q0 -90 -51 -176q-41 -70 -107.5 -122t-144.5 -70q-8 -2 -8 -12l4 -25q20 -68 84 -184q53 -98 107 -170q16 -23 22 -23h1t1 2 q53 131 96 180q25 25 50 25q27 0 57 -25q8 -8 29 -18q43 -31 65 -51q12 -14 12 -27q0 -63 -104 -143q-31 -25 -74 -53q-33 -20 -32 -27q0 -2 36 -39q84 -88 162 -178q37 -43 37 -55t-10 -37q-90 -158 -180 -158q-31 0 -55.5 26.5t-55.5 75.5q-29 45 -88 154q-16 31 -29 43 q-217 -143 -450 -143q-418 0 -418 397zM322 594q0 -115 94 -184q41 -29 135 -41q41 -6 70 -7q33 0 41 7q37 23 59 67.5t24 95.5v9q0 117 -75 184q-70 59 -168 59q-49 0 -88 -10q-45 -10 -66 -57q-27 -53 -26 -123zM629 1280q0 -35 29.5 -57.5t72.5 -22.5q45 -2 83 19.5 t54 66.5q4 16 4 25q0 49 -45 96t-94 47q-70 0 -94 -98q-10 -45 -10 -76z" />
<glyph unicode="'" horiz-adv-x="661" d="M221 1229q0 96 12 149q12 63 39 150q14 59 45 94q25 16 54 16h12q49 -12 66 -75q0 -14 -13 -64q0 -20 -12 -49t-16 -43q-20 -59 -33 -86q-68 -104 -125 -104h-6q-2 2 -23 12z" />
<glyph unicode="(" horiz-adv-x="661" d="M96 696v39q10 244 90 484q76 229 185 368q39 51 69 51q16 0 39 -16q51 -39 51 -72q0 -25 -18 -59q-57 -111 -107.5 -297t-52.5 -354v-45q0 -471 121 -629q23 -29 23 -62q0 -43 -33 -73.5t-76 -30.5q-51 0 -86 55q-76 133 -117 221.5t-64.5 190.5t-23.5 229z" />
<glyph unicode=")" horiz-adv-x="688" d="M106 1550q0 33 50 72q20 16 41 16q30 0 67 -51q113 -143 192 -380.5t87 -471.5v-30q0 -195 -72 -386q-31 -78 -137 -264q-31 -55 -84 -55q-43 0 -77 30.5t-34 73.5q0 35 25 62q123 152 123 536q0 311 -68 541q-43 143 -94 248q-18 35 -19 59z" />
<glyph unicode="*" horiz-adv-x="825" d="M82 1356q0 8 8 33q23 47 82 47q51 0 111 -17q31 -6 45 -6q16 0 16 6q2 2 2 8q-2 10 -47 78q-16 23 -16 56q0 37 20.5 63.5t58.5 26.5q23 0 54 -13q51 -20 59 -84q2 -8 2 -26q0 -41 -18 -82l8 -19l8 -2q14 0 49 25q43 33 80 49q27 12 58 12q33 0 55 -15t22 -42 q0 -12 -6 -31q-18 -45 -48 -63.5t-103 -40.5q-53 -14 -54 -37q0 -12 21 -43q29 -43 41 -78q8 -23 8 -51q0 -31 -13.5 -51.5t-33.5 -20.5q-14 0 -23 4q-63 29 -79 74q-18 57 -43 80q-2 2 -7 2q-20 0 -30 -24q-8 -18 -11 -48q-6 -33 -12 -47q-16 -37 -47 -60.5t-63 -23.5 q-14 0 -29 6q-39 16 -39 70q0 37 14 66q14 33 64 65q53 35 71 55v-1255v1255q0 8 -18 21l-4 2l-57 -2q-49 -2 -88 13.5t-56 33.5q-12 12 -12 31z" />
<glyph unicode="+" horiz-adv-x="1456" d="M119 602q0 12 2 19q10 39 61 104l43 51l35 43q10 10 88 23q70 10 217 20q6 43 6 113q0 100 11 162q2 31 10 61q2 23 14 27q68 16 137 26q23 2 70 2h27q47 -4 49 -26q2 -6 2 -41v-78v-104v-125h147q150 -1 226 -13q41 -10 47 -16q27 -27 26 -84q0 -37 -8 -70 q-25 -98 -65 -153q-10 -10 -43 -17q-70 -16 -199 -16q-45 -2 -141 -2q0 -109 -11 -227l-6 -91q0 -8 -1 -29.5t-7 -33.5t-35 -16q-10 -2 -30 -2q-53 0 -140 20q-45 8 -78 12q-12 4 -18 39q-6 37 -6 92q0 86 12 246q-133 2 -248 17q-115 10 -147 18q-47 10 -47 49z" />
<glyph unicode="," horiz-adv-x="473" d="M51 -154q0 27 10 64q33 76 62 162q16 55 27 71q41 80 126 80q23 0 35 -2q66 -10 88 -20q33 -15 33 -54q0 -45 -43 -118q-61 -111 -123 -195q-55 -82 -125 -82q-16 0 -35 6q-55 20 -55 88z" />
<glyph unicode="-" horiz-adv-x="851" d="M59 598q1 33 54 94q16 16 32 41q4 4 31 10q27 4 170 17q70 6 223 10q121 0 176 -8q29 -4 40.5 -14.5t13.5 -34.5q0 -55 -23 -107q-2 -4 -8 -18.5t-15.5 -22.5t-33.5 -12q-51 -8 -168 -8q-113 0 -223 6q-162 8 -189 12q-6 0 -27.5 3t-37 9.5t-15.5 22.5z" />
<glyph unicode="." horiz-adv-x="432" d="M51 -8q0 20 10 45l17 20q35 29 43 35q29 16 47 25l27 6q14 0 38 4h17q6 -2 16 -2q20 -2 37 -16l33 -25q2 -8 12 -14q10 -12 23 -35l6 -21q0 -10 -8 -39l-21 -41q-12 -18 -22 -28q-25 -18 -45 -21q-49 -6 -56 -6q-12 -4 -20 -4q-6 -2 -19 -2q-6 -2 -18 -2q-25 0 -41 6 q-23 8 -41 21q-20 14 -25 30l-8 35q-2 6 -2 17v12z" />
<glyph unicode="/" horiz-adv-x="995" d="M61 90q0 78 52 217q170 447 387 912q115 244 164 333q41 88 157 88h8q47 -4 84 -12q37 -12 37 -16v-4q0 -20 -30 -99q-41 -104 -215 -462q-168 -338 -256 -506q16 33 -84 -158q-229 -397 -263 -383q-16 10 -34 37q-6 25 -7 53z" />
<glyph unicode="0" horiz-adv-x="1325" d="M106 854v59q0 199 21 332q14 94 50 173t87 124q98 86 228 92q39 2 114 2q160 0 275 -30q160 -47 239 -158q88 -119 113 -332q12 -119 12 -315v-92q0 -371 -181 -540t-476 -169q-143 0 -252 84t-168 236.5t-59 351.5q0 117 -3 182zM453 788q-1 -196 122 -196 q229 0 271 256l2 57q0 326 -172 326q-55 0 -106.5 -66.5t-84 -169t-32.5 -207.5z" />
<glyph unicode="1" horiz-adv-x="1191" d="M94 1075v27q2 51 21.5 81.5t70.5 65.5q57 41 244 144l107 55q59 29 116 61q182 98 242 117q35 10 66 10q100 0 100 -104q0 -35 -17 -166q-47 -387 -47 -897l2 -172q2 -180 -131 -246q-16 -10 -61 -18l-133 -25q-41 -8 -74 -8q-172 0 -180 168v8q0 39 35 244 q41 236 53 350q6 59 6 102v27q-2 53 -25 53q-12 0 -43 -24q-33 -27 -129 -123q-10 -10 -27.5 -28.5t-29.5 -18.5q-4 0 -24 8q-55 29 -103 131q-39 80 -39 178z" />
<glyph unicode="2" horiz-adv-x="1603" d="M106 1280v10q0 41 17.5 63.5t79.5 67.5q150 111 385 178q129 37 282 37q238 0 400 -129q160 -127 180 -313q4 -37 4 -53q0 -178 -129 -342q-174 -221 -518 -371l31 8q45 8 227 47q145 31 250 52q49 8 63 8q43 0 76 -35q57 -60 57 -191q-4 -129 -51 -200q-23 -37 -57 -47 l-53 -11q-25 -4 -226 -34q-150 -23 -278 -25h-76q-117 0 -233 6q-154 8 -250 23q-43 6 -49.5 11t-10.5 38q-4 41 -4 76q0 117 19 200q25 117 67 148q18 12 60.5 23.5t77 18.5t59.5 11q164 31 256 98q119 88 117 262q-8 156 -107 175l-20 2q-68 0 -170 -56q-72 -43 -84 -51 q-10 -6 -33 -21.5t-43.5 -23.5t-40.5 -8q-8 0 -33 4q-94 23 -166 135q-74 113 -76 209z" />
<glyph unicode="3" horiz-adv-x="1314" d="M102 1425q0 59 144 117q139 53 317 78q111 16 209 16q72 0 119 -8q158 -29 176 -104q37 -137 37 -221v-13q-2 -78 -33 -123t-86 -86q-74 -55 -133 -73q-20 -8 -21 -17q0 -6 31 -6q74 -4 172 -51q115 -59 160 -227q16 -58 16 -152q0 -49 -2 -76q-14 -238 -96 -340 q-109 -139 -367 -139h-30q-113 0 -238 63q-147 76 -248 213q-6 10 -6 31q0 35 13 74q25 82 63 129q29 35 55 35q14 0 29 -13q74 -74 152.5 -114.5t142.5 -40.5q63 -2 105 39t51 125l2 28q0 117 -78 185q-63 55 -174 71q-43 6 -74 6h-35q-23 0 -41 31q-23 37 -24 47 q-12 25 -13 56q0 45 29 59q129 61 170 84q92 49 117 92q8 20 8 31q0 39 -55 80q-16 10 -43 10q-35 0 -88 -16q-88 -29 -152 -70q-41 -27 -143 -78l-54 -24q-16 -6 -20 -7h-2q-23 41 -41 164l-14 90z" />
<glyph unicode="4" horiz-adv-x="1284" d="M113 1186q0 92 2 135q6 123 16 181.5t43 84.5q37 31 113 33l30 4q45 10 101 10q18 0 26 -2q51 -6 52 -63q0 -8 -4 -33l-7 -66l-4 -81q-4 -61 -4 -91l-4 -147l-2 -35v-10q0 -82 41 -78q41 0 94 16q63 16 64 41v60q-4 61 -4 112v17q0 127 32 158q29 23 90 28q66 8 211 15 q45 0 56 2h12q43 -6 43 -82q0 -47 -12.5 -97.5t-14.5 -60.5q-10 -41 -34 -121q-20 -61 -21 -80q0 -35 37 -41l14 -2q14 0 39 6q33 4 43 5q35 0 35 -39l2 -19l4 -47q2 -22 2 -55v-17q-8 -37 -30 -47q-29 -10 -54 -12q-8 -2 -43 -6t-58.5 -20.5t-23.5 -45.5l-8 -225 q-2 -43 -2 -123q0 -45 4 -98v-23q0 -35 -2 -51q-14 -100 -119 -133q-131 -47 -235 -47q-37 0 -70 6q-80 10 -80 68q0 18 7.5 49t11.5 49q23 121 51 250l25 112l20 86q8 41 8 39q0 8 -18 15q-29 4 -45 4q-51 0 -76 -6l-51 -15q-33 -6 -51 -14q-47 -14 -109 -14h-23 q-70 10 -88 66.5t-21 125t-3 88.5q-8 123 -8 281z" />
<glyph unicode="5" horiz-adv-x="1404" d="M123 1120q0 68 2 107l6 149q2 33 2 76v21v10q0 86 49 123q37 27 115 26q41 0 59 -2q12 -2 35 -2h12h37q90 0 150 -2l133 -4q94 -4 139 -4q164 0 228 10q41 8 69 8q66 0 86 -161q0 -35 -43 -64q-49 -29 -135 -47q-8 -2 -37 -2q-59 0 -123 8q-53 4 -114 12q-137 14 -213 17 h-17q-63 0 -86 -23q-25 -23 -24 -49v-16v-35q0 -55 49 -90q20 -14 59 -15h14l150 19q76 12 119 12q41 0 76 -8q104 -27 204 -100q109 -80 158 -213q20 -68 21 -136v-16q-16 -360 -154 -530q-154 -199 -471 -199q-246 0 -404 106q-66 41 -100 87q-37 47 -37 92q0 33 2 55 q6 125 33 192q12 31 27 31q6 0 8 -2q123 -55 225 -90q82 -27 129 -37q29 -6 45 -6l15 2l20 2q70 0 119 100q29 55 43 158v10q0 68 -39 129q-51 80 -176 80l-29 -2h-49q-29 -2 -90 -2h-88l-45 -2q-57 0 -92 12q-53 18 -62 64q-10 47 -10 141z" />
<glyph unicode="6" horiz-adv-x="1304" d="M98 664q0 156 44 307t112 246q45 61 121 135q117 113 241 180q168 90 351 102q45 2 69 -57q35 -80 56 -178q10 -39 12 -68q2 -10 2 -28q0 -35 -39 -46q-55 -10 -88 -20q-31 -8 -92 -20q-145 -23 -250 -123q-78 -76 -125 -181q-12 -27 -27 -69q-10 -35 -10 -39 q0 -6 10 -12q16 -10 43 -11q12 0 37 4q25 2 51 17q68 29 136 28q111 0 213 -57q82 -45 138 -119.5t68 -160.5q3 -14 3 -41q0 -182 -203 -342q-150 -113 -303 -113q-29 0 -41 2q-139 10 -269 111q-98 76 -151 153q-109 154 -109 400zM508 358q0 -100 133 -110q14 -2 39 -2 q154 0 162 119q2 74 -48.5 117.5t-119.5 43.5q-63 0 -109.5 -36.5t-54.5 -108.5z" />
<glyph unicode="7" d="M96 1552q0 57 34 70.5t132 13.5h57l87 -2l161 -6q121 -8 199 -10l199 -8l161 -8l86 -3q133 0 168 -59q27 -47 27 -94q0 -41 -18.5 -93.5t-49 -108.5t-39.5 -73q-84 -162 -102 -202l-49 -101q178 -29 229 -51q27 -12 27 -33q0 -27 -29 -55q-61 -63 -145 -90q-23 -8 -76 -8 q-57 0 -121 8q-115 -242 -139 -373q-8 -80 -18 -123l-13 -55q-33 -68 -207 -84q-53 -4 -82 -4q-45 0 -118 8q-102 10 -133 33q-12 6 -13 14q0 4 2 6q217 338 353 639q-18 2 -101 21l-63 14q-35 8 -59.5 33t-28.5 55q-2 4 -2 15q0 66 90 94q47 16 104 16q76 0 158 -22 q63 156 96 278q27 98 27 111q0 25 -39 24l-57 -2l-115 -6l-144 -8q-121 -10 -251 -14l-50 -2q-27 0 -65 69l-33 60q-27 43 -33 73q-4 20 -4 43z" />
<glyph unicode="8" horiz-adv-x="1357" d="M119 287q0 14 4 51q18 119 115 268q66 106 131 162q-242 88 -248 301q-2 92 42 189.5t124 181.5t180 136t203 58h35q258 0 405 -172q111 -131 111 -305q-1 -37 -7 -72q-20 -98 -85.5 -170.5t-176.5 -97.5q252 -301 285 -502q4 -33 4 -47q0 -123 -106 -192 q-86 -55 -261 -72q-61 -4 -88 -4h-28h-72l-63 -2q-287 0 -410 96q-94 72 -94 193zM434 412q0 -29 10 -76q16 -76 91 -105q25 -12 51 -12q41 0 67 31q37 41 37 127q0 41 -8 82q-12 47 -82 67q-20 6 -47 6q-49 0 -80 -24q-39 -29 -39 -96zM582 1171q0 -78 59 -129 q35 -33 92 -32q39 0 66 16q73 43 73 174q0 29 -2 43q-8 68 -46 99.5t-117 31.5q-31 0 -58 -26q-41 -41 -59 -123q-8 -25 -8 -54z" />
<glyph unicode="9" horiz-adv-x="1507" d="M111 1163q0 23 2 33q14 133 149 254q113 102 245 144t300 42q217 0 355 -72.5t196 -209.5q37 -92 37 -205q0 -225 -142 -512q-63 -133 -94 -215q-98 -242 -205 -336q-53 -45 -139 -66.5t-176 -21.5q-37 0 -53 2q-154 8 -224 66q-59 47 -69 106q-6 25 -6 39q0 53 53 90 q49 31 113 64q129 68 176 104q90 66 176 143q109 98 143 138q23 29 23 34q-18 92 -86 93q-25 0 -39 -5q-35 -6 -109 -32q-102 -41 -211 -41q-29 0 -90 8q-86 12 -186 78q-47 31 -90 106q-49 80 -49 172zM612 1276q-2 -156 76 -211q29 -23 68 -23t78 23q84 43 90 129v10 q0 90 -101 164q-29 16 -67 16q-25 0 -60 -10q-84 -29 -84 -98z" />
<glyph unicode=":" horiz-adv-x="610" d="M94 930q0 74 84 135q84 68 158 68q154 0 153 -150q0 -92 -34 -149q-2 -6 -29 -17q-63 -25 -131 -35q-61 -8 -88 -8q-31 0 -43 4q-27 3 -33 17q-37 61 -37 135zM117 295v31q0 76 24 112q18 23 65.5 37t102.5 17h15q116 0 147 -37q37 -57 37 -127q0 -66 -64 -135 q-76 -84 -221 -84h-30q-37 2 -62 73q-14 39 -14 113z" />
<glyph unicode=";" horiz-adv-x="514" d="M88 80q0 31 8 57q12 25 56 146l14 39q2 12 10 24q39 74 115 74q20 0 31 -2q51 -8 79 -19q29 -16 29 -49q0 -35 -39 -106l-45 -76q-82 -141 -137 -164q-18 -8 -43 -8q-18 0 -29 4q-49 18 -49 80zM131 975q0 66 21 74q47 25 98 24h12q39 -2 76 -38t59.5 -84t20.5 -87 q-8 -119 -123 -119q-74 0 -127 37q-6 4 -12 25q-20 47 -23 108q-2 20 -2 60z" />
<glyph unicode="&#x3c;" horiz-adv-x="759" d="M41 467v6l4 8l6 11q0 2 12 16l72 72q35 33 105 86q63 47 196 135q117 78 180 108q27 14 37 15q8 0 17 -29q18 -55 18 -113v-14q-2 -33 -22 -47q-59 -47 -232 -148q-59 -35 -170 -88q143 -47 309 -120q74 -35 111 -58q25 -14 29 -65v-17q0 -41 -6 -71l-9 -33 q-2 -12 -6 -17h-6q-12 0 -35 9q-92 33 -190 84q-162 84 -205 108q-72 39 -111 70l-45 35q11 -7 -34 28q-23 16 -25 29z" />
<glyph unicode="=" horiz-adv-x="1146" d="M96 682q0 25 19 51q26 39 63 82q25 31 27 33q6 8 41 14q76 12 217 23q133 8 289 12q156 0 227 -8q39 -6 52 -20.5t16 -45.5v-10q0 -59 -29 -127q0 -2 -8.5 -19.5t-19.5 -29.5t-44 -19q-74 -12 -217 -12q-162 0 -291 8q-190 12 -239 19q-51 6 -72 11t-27 18q-4 6 -4 20z M133 352q0 37 17 60q2 8 40 14q61 10 222 20q143 8 295 13q152 0 231 -13q39 -6 50 -15t20 -38q8 -41 8 -65q0 -29 -6 -58q-14 -72 -64 -100q-18 -10 -47 -10h-16q-164 23 -424 22l-150 -4h-33q-33 0 -73 4q-35 0 -60 94q-10 41 -10 76z" />
<glyph unicode="&#x3e;" horiz-adv-x="763" d="M57 227q0 33 9 56q6 16 20 24q104 57 244 115q53 20 176 63q-102 47 -297 164q-49 31 -105 72q-23 16 -22 65q0 16 4 50q4 23 16 59q8 29 17 29q10 0 37 -15q47 -25 180 -108q188 -129 196 -135q57 -45 103 -86l72 -72q12 -14 12 -16l8 -11q2 -2 2 -8v-6q-2 -12 -24 -29 q-45 -35 -35 -28q-55 -47 -92 -68q-39 -27 -158 -88q-150 -78 -217 -107q-68 -31 -82 -34q-23 -8 -37 -9h-6q-4 4 -6 17q-4 10 -13 76q-2 10 -2 30z" />
<glyph unicode="?" horiz-adv-x="999" d="M-20 1309q0 59 55 100q123 94 211 129q96 37 237 39h23q182 0 291 -119q92 -100 121 -282l2 -23q0 -94 -78 -211q-76 -115 -162 -184q-18 -16 -18 -60q0 -35 10 -86l18 -92q8 -41 8 -65q0 -96 -53 -111q-31 -6 -70 -6l-43 2l-51 4l-28 2h-9q-70 0 -77 60q-27 143 -27 167 q0 45 -2 68v21q0 57 14 92q8 20 27 34q106 72 160.5 156t54.5 160l-2 20q-6 55 -43 88t-96 33q-39 0 -80 -14q-74 -29 -133 -96q-63 -72 -88 -86l-17 -5q-8 0 -18 7q-16 8 -37 51q-25 59 -70 129q-31 47 -30 78zM375 78v14q2 43 13 81t24 46q20 12 94 23q37 4 53 4 q37 0 62 -6l20 -9q51 -14 70 -94q4 -29 4 -43q0 -35 -13 -69q-14 -39 -70.5 -62.5t-121.5 -23.5q-47 0 -80 12q-55 18 -55 127z" />
<glyph unicode="@" horiz-adv-x="1589" d="M61 526q0 168 45 410q47 254 113 336q141 182 338 198q49 4 76 5q51 0 106 -7q82 -10 197 -14q223 -2 364 -154q115 -127 164 -331q31 -131 31 -275l-2 -63q-2 -74 -12 -123q-8 -49 -19 -62q-76 -92 -170 -92q-39 0 -57 6l-49 15q-49 12 -90 41q-18 12 -25 30 q-10 27 -22 39q-8 8 -17 13q-47 -53 -110 -78q-68 -27 -125 -29q-94 0 -162 58q-96 84 -96 262l2 43q6 82 14 130t33 87q63 94 190 94q39 0 109 -12q74 -14 117 -43q106 -70 116 -248v-25q0 -53 -10 -100h4h6q47 0 86 37q63 59 64 151q-4 129 -131 295q-14 18 -84 64 q-74 41 -131 43l-78 8q-53 4 -84 4q-86 0 -154 -18q-147 -43 -217 -177q-39 -76 -45 -194q-2 -25 -2 -74q0 -258 160 -397q145 -125 416 -148q43 -4 129 -4q156 0 294 21q88 10 140 18q16 4 37 4q12 0 12 -4v-264v264q-47 -162 -287 -229q-131 -37 -293 -37q-106 0 -204 14 q-291 41 -476 168q-211 145 -211 344zM725 672q0 -18 10 -43q29 -43 70 -43q35 0 94 39q31 31 31 71q0 45 -33 97q-20 31 -49 30q-31 0 -63.5 -30.5t-49.5 -69.5q-10 -31 -10 -51z" />
<glyph unicode="A" horiz-adv-x="1288" d="M45 221q0 20 14 82q12 55 60 201l190 583l84 275q25 86 39 123q23 59 47 98q12 20 23.5 27.5t38.5 13.5q37 6 125 10q51 0 96 4h35h45h73l52 -6l8 -2q39 -8 66.5 -46t27.5 -99v-17q-4 -57 -4 -88q0 -168 63 -528q41 -225 54 -293q27 -145 28 -240q0 -10 4 -55l9 -67 l6 -64q2 -13 2 -29t-19 -32q-29 -27 -88 -47q-39 -12 -51 -15q-92 -10 -123 -10l-30 2q-18 0 -31 4q-12 4 -19 4q-102 25 -102 140q0 25 6 53q12 57 12 104q0 29 -8 66q-20 76 -71 76q-33 0 -70 -31q-45 -37 -94 -137q-41 -86 -98.5 -152t-100.5 -76q-20 -4 -31 -4 q-53 0 -143 47q-49 27 -68 41q-2 2 -20.5 14.5t-25.5 24.5t-9 29zM618 891q12 -92 84 -98h7q31 0 59.5 29.5t46.5 82.5q27 84 27 152q0 33 -6 61q-8 41 -43 45h-5q-39 0 -92 -67q-29 -35 -53.5 -92.5t-24.5 -98.5v-14z" />
<glyph unicode="B" horiz-adv-x="1417" d="M61 1118q0 266 25 359q10 35 82 59q10 4 74.5 24.5t172 46t222.5 29.5q49 2 141 2q213 0 289 -45q115 -70 137 -170q8 -39 8 -59q2 -23 2 -64q0 -176 -67 -262q-68 -90 -215 -116q33 4 49 4q125 0 238 -84q135 -103 135 -250q0 -23 -2 -35q-37 -303 -203 -436 q-129 -106 -342 -117q-29 -2 -88 -2q-55 0 -84 2q-111 4 -146 4q-354 0 -372 154q-55 530 -56 956zM387 1219q0 -10 4 -35q13 -72 62 -146t90 -84q14 -4 41 -4q113 0 190 121q45 72 45 143q0 53 -31 91q-39 43 -124 45h-9q-84 0 -233 -66q-35 -14 -35 -65zM479 580 q0 -84 66 -164q71 -88 157 -88h7q53 4 95 44t62 99q20 57 21 111q0 66 -31 114q-47 70 -141 70q-51 0 -101 -16q-123 -37 -133 -148z" />
<glyph unicode="C" horiz-adv-x="1366" d="M51 731q0 303 152 565q53 90 156.5 163t232.5 118q172 61 350 61q70 0 135 -12q111 -20 173 -80q56 -54 56 -137q0 -8 -1 -16q-10 -104 -88 -195q-78 -88 -150 -88q-16 0 -25 2q-141 31 -219 31q-68 0 -110 -19q-150 -61 -152 -344q0 -221 107 -262q25 -10 65 -10 q55 0 174 33q143 39 191 39q31 -1 45 -5q100 -30 100 -221v-8q-2 -172 -135 -264q-119 -82 -305 -82h-17q-305 8 -520 175t-215 556z" />
<glyph unicode="D" horiz-adv-x="1667" d="M55 119l2 16q0 41 2 80q0 137 9 432q4 336 18 590q6 113 16 219q8 66 16.5 90.5t30 36.5t78.5 25q135 30 326 30h12q76 0 115 -2q301 -12 547 -110q270 -106 346 -328q20 -55 20 -127q0 -68 -18 -143q-82 -356 -309 -584q-184 -184 -449 -268q-186 -61 -411 -74 q-29 -2 -76 -2q-45 0 -62 2l-63 4q-76 6 -113 31.5t-37 81.5zM489 1071q4 -94 5 -127v-76v-100v-86v-37q0 -72 12 -94q6 -14 20 -14q6 0 11 2q59 18 180 86q119 66 217 157q104 99 104 191q0 115 -145 176q-92 39 -203 39q-45 0 -65 -4q-135 -20 -136 -105v-8z" />
<glyph unicode="E" horiz-adv-x="1130" d="M45 729q0 41 2 49l10 131q0 45 11 99q0 8 14 79l22 123q18 86 33 181q12 76 19 94q33 90 110.5 115.5t146 28.5t87.5 3q121 6 221 6h63q139 -4 193 -16q6 -2 22.5 -6t23.5 -14.5t19 -34.5q16 -39 17 -90v-39q0 -35 2 -54q2 -20 2 -51v-30q0 -61 -19 -109q-16 -43 -45 -43 q-8 0 -12 2q-121 37 -184 43l-66 4q-63 0 -116 -12q-63 -14 -66 -49l-4 -37l-2 -8l-1 1l-1 1q2 -55 49 -56q12 0 16 -2l9 -2l20 2q55 10 74 11q55 0 55 -50l-2 -14l-8 -70q-2 -14 -8 -34q-25 -43 -97 -43q-61 6 -104 6q-20 0 -74 -4q-6 -12 -6 -29l2 -18q2 -16 2 -48 q0 -108 81 -108h1q12 0 21 2q16 2 84.5 8t140.5 31q109 39 151 39q63 0 80 -72t17 -127v-57q-2 -115 -21 -182l-6 -21v-256v256q0 -76 -37 -98q-51 -29 -86 -37l-123 -39q-127 -41 -239 -61q-113 -23 -193 -23h-18q-270 14 -271 317v45l-4 80q-2 31 -2 101l-4 102 q-2 31 -2 84z" />
<glyph unicode="F" horiz-adv-x="1435" d="M41 199q0 18 12 61q37 152 56 266q12 90 18 203q10 221 66 512q27 135 40 193q25 88 29 98q51 106 201 106q61 0 94 -6q156 -25 379 -35q121 -6 299 -6q63 0 111 -39q65 -56 65 -174q0 -90 -27 -157q-6 -18 -20 -47q-8 -18 -12 -31q-33 -119 -187 -119h-14q-33 0 -178 31 q-150 27 -187 39q-8 2 -22 2q-53 0 -88 -52q-41 -57 -41 -131v-10q0 -65 34 -65h1q23 0 45 8q74 18 137 20q39 0 111 -10q39 -8 38 -70v-10q-2 -57 -24 -108q-14 -37 -33 -39l-51 -11q-20 -4 -31 -4q-25 0 -55 7q-53 8 -78 8q-63 0 -104 -29q-31 -25 -31 -90v-12 q2 -27 2 -58v-41q0 -10 4 -55q8 -78 10 -100q-2 20 8 -51q2 -14 3 -37q0 -82 -74 -113q-80 -35 -322 -43h-5q-89 0 -138 72q-41 59 -41 127z" />
<glyph unicode="G" horiz-adv-x="1476" d="M41 532q0 70 16 179q37 236 197 465q160 227 338 311q145 72 332 117q141 34 246 34h6q55 0 96 -8q86 -14 111.5 -39.5t25.5 -68.5v-39q0 -100 -23 -195l-16 -82q-4 -16 -45 -28q-78 -27 -195 -37l-43 -2l-28 2q-39 6 -80 6q-51 0 -109 -10q-100 -20 -145 -68 q-236 -244 -246 -405v-15q0 -119 129 -184q106 -53 258 -53h29q43 0 74 6q41 10 43 18l12 37q27 57 27 86q0 10 -4.5 15.5t-21.5 6.5t-24 1l-135 2h-49q-45 0 -45 49q0 8 4 29q4 29 17 79q18 70 30 90q6 12 60 25q115 23 247 27h15q70 0 129 -12.5t65 -34.5q27 -102 29 -156 v-23q0 -96 -27 -227q-40 -185 -157 -291q-84 -76 -209 -112q-92 -27 -211 -27q-88 0 -203 16q-162 31 -239 58q-139 43 -185 127q-68 119 -86 219q-10 57 -10 112z" />
<glyph unicode="H" horiz-adv-x="1341" d="M35 78v4q6 76 16 151q37 289 49 707q4 82 4 260q0 190 -4 293v8q0 63 50 96q53 39 196 41h57q16 -2 41 -2q86 -6 117 -43q51 -55 51 -118q0 -16 -2 -25q-28 -221 -28 -287q0 -39 2 -53q12 -135 112 -137h33q45 0 68 6q27 6 37 41q6 25 6 72v32l-2 84l2 111v24q0 39 -6 78 q-6 35 -7 64q0 68 35 108q31 37 113 37q20 0 61 -4q119 -12 185 -24q39 -10 41 -17q18 -27 18 -112q0 -49 -6 -121l-8 -86l-15 -162l-18 -207l-21 -229l-55 -602q-2 -49 -127 -58l-45 -2l-45 2l-55 2q-72 2 -97 62q-12 25 -12 75l2 52l2 39q0 61 -10 107t-12 58l-8 50 q-4 35 -39 51q-47 22 -95 22h-4q-12 0 -16 -2q-33 -14 -33 -80l-6 -67q-8 -96 -12 -160q-4 -135 -15 -178q-8 -23 -27.5 -30t-66.5 -9h-43q-86 0 -160 8q-113 12 -172 41q-27 16 -26 29z" />
<glyph unicode="I" horiz-adv-x="667" d="M51 244q0 65 29 157q27 90 43 197l29 188q10 76 10 74q4 76 10 105.5t23.5 42t58.5 12.5q33 0 74 -8l65 -6l66 -7q49 -12 61 -110q31 -295 31 -473v-31l-4 -219q0 -102 -25.5 -134t-99.5 -32q-35 0 -55 2q-106 4 -173 23.5t-105 70.5t-38 148zM178 1479q0 159 135 159h2 q31 0 62 -8q109 -25 167 -101.5t58 -172.5q0 -125 -86 -150q-61 -16 -94 -16q-49 0 -106.5 35t-97.5 100.5t-40 153.5z" />
<glyph unicode="J" horiz-adv-x="1280" d="M47 487q0 76 33 131q27 45 67.5 70t81.5 25q92 0 117 -31q10 -18 14.5 -60t6.5 -61q12 -133 88 -199q30 -26 59 -26h2q41 0 70 41q57 78 57 270q0 43 -2 66q-4 111 -16 200q-8 45 -50 174q-43 123 -61 277l-4 61l-2 25q12 76 135 123q49 18 98.5 28.5t59.5 12.5 q118 24 194 24h6q158 0 166 -106q4 -45 15 -107q29 -201 39 -411l2 -86q0 -220 -43 -447q-27 -139 -80 -258q-47 -106 -176 -170q-109 -53 -254 -53q-197 0 -320 51q-195 82 -278 305q-25 63 -25 131z" />
<glyph unicode="K" horiz-adv-x="1492" d="M51 211v10q0 23 6 55q4 35 14.5 101.5t24.5 181.5q10 76 21 219l26 412q8 133 9 203q-2 23 -2 61q0 20 4 49q8 76 61 101q18 10 100 20q66 8 146 12q18 2 53 2q18 0 47 -4q135 -16 135 -215q0 -70 -14 -156.5t-18 -117.5q-18 -123 -23 -137q-2 -6 -2 -17q0 -31 31 -30 q33 0 59 36q119 154 187.5 278t99.5 263q16 88 112 88q74 0 152 -43q90 -53 88 -51l33 -19q65 -48 65 -112q0 -16 -2 -25q-4 -35 -22 -69q-74 -137 -219 -283q-61 -61 -127 -121q-57 -53 -117 -115q100 -92 149 -151q154 -182 195 -340q6 -18 6 -37q0 -12 -2 -16 q-2 -39 -110 -119l-48 -37q-23 -20 -51 -39q-70 -49 -114 -49q-49 0 -66 55q-66 215 -152 330q-68 82 -139 94h-2q-31 0 -41 -65q-8 -35 -8 -80l2 -35q8 -59 12 -125v-6q0 -60 -74 -92q-78 -32 -190 -33q-47 0 -90 6q-86 12 -143.5 53t-61.5 109z" />
<glyph unicode="L" horiz-adv-x="1306" d="M53 199q0 47 25 239q0 8 45 357l45 359v-1q18 170 20 190q12 139 97 189l184 59l109 33q45 14 61 14q86 -8 86 -98q0 -45 -27 -147q-55 -207 -92 -394q-31 -147 -31 -272q0 -82 11 -131q25 -133 143 -133q41 0 76 10q94 25 250 133q53 31 84 31h8q29 -4 51 -33 q20 -31 25 -108q0 -40 10 -97q8 -49 10 -98q6 -33 6 -61q0 -14 -4 -39q-6 -86 -53 -122t-158 -56q-115 -16 -301 -21q-59 -2 -184 -2h-172q-63 0 -125 4q-115 12 -158 62q-41 41 -41 133z" />
<glyph unicode="M" horiz-adv-x="1800" d="M45 168q0 485 53 942q25 211 41 295q23 115 29 125q41 72 119 80q72 8 141 8q168 0 246 -59q41 -33 55 -75t21 -104q4 -63 22 -184q23 -152 53 -231q38 -113 82 -113h2q51 2 109 160q41 117 76 288l20 115q10 55 10 53q25 113 133 150q57 20 158 20h49q12 -2 41 -8l17 -4 q53 -12 81.5 -50t39 -132t12.5 -115q23 -211 51 -577q10 -188 10 -289v-49q-4 -88 -8 -129q-14 -129 -35 -174q-43 -92 -153 -93q-74 0 -113 -8q-47 -10 -59 -10q-125 2 -125 99l6 233v30q-4 96 -19 179q-10 45 -18 71q-12 29 -29 29h-1q-45 0 -93 -170q-25 -84 -88 -152 q-60 -67 -99 -67h-1q-45 0 -82 24q-57 37 -90 134q-16 49 -52 188q-20 80 -51 80q-74 0 -78 -72l4 -53q4 -45 5 -80q0 -70 -11 -168q-16 -162 -106 -239q-49 -43 -164 -43q-100 0 -154 36q-57 39 -57 109z" />
<glyph unicode="N" horiz-adv-x="1417" d="M55 1403v98q8 70 119 92q35 8 74 9l31 -3q14 -2 38 -2q43 0 60 -18l12 -25q8 -18 19 -34q156 -246 276 -400q49 -63 86 -104l59 -72q57 -68 82 -78q12 -4 19 -4q25 0 24 51v11l-4 57q-14 104 -16 152q-14 147 -23 204q-23 113 -22 113q-10 45 -10 57q0 104 217 127 q61 4 80 4q41 0 55 -2l24 -4q96 0 97 -116v-1154q0 -100 -2 -129q-2 -45 -7 -49q-23 -78 -215 -98q-55 -6 -96 -6q-90 0 -137 43q-27 25 -84 125q-35 61 -147 201l-82 92q-35 35 -47 34h-3q-45 -8 -45 -100q0 -12 9 -53l6 -37l10 -53q2 -23 25 -94q12 -49 12 -78 q0 -53 -64 -66q-41 -10 -75 -24q-119 -51 -166 -64q-25 -6 -47 -6q-49 0 -78 39q-25 35 -27 94l-10 234q-14 297 -23 792z" />
<glyph unicode="O" d="M61 911q0 236 80 400q86 178 260 266q125 61 242 61q168 0 326 -55q190 -72 286 -188q127 -161 172 -267q57 -135 58 -346q0 -424 -252 -618q-90 -70 -277 -117q-184 -47 -335 -47q-250 0 -398 199q-68 90 -96.5 204.5t-52.5 317.5q-12 102 -13 190zM514 956 q0 -70 29 -133q45 -94 123.5 -160.5t152.5 -66.5q80 0 127 84q68 121 68 217q0 111 -90 190q-135 82 -230 82q-88 0 -134 -62.5t-46 -150.5z" />
<glyph unicode="P" horiz-adv-x="1292" d="M55 1245q0 53 2 78q10 174 54 248q42 67 108 67h2h12l60 -2q154 -4 305 -14q205 -14 334 -37q65 -13 92 -29q209 -137 209 -405q0 -129 -49 -238q-61 -141 -187 -215q-117 -67 -270 -67h-4q-47 0 -98 6q23 -2 30 -43q14 -61 35 -229q10 -66 25 -117q10 -31 10 -64 q0 -16 -29 -34q-63 -41 -176 -80q-100 -37 -188 -60q-41 -10 -47 -10q-39 0 -68 78q-18 43 -35 121q-127 686 -127 1046zM496 1235q0 -49 2 -78q8 -125 47 -164q6 -8 20 -8q18 0 41 12q63 38 90 56q96 61 97 127q0 88 -187 123q-43 6 -84 6q-25 0 -24 -6q-2 -10 -2 -68z" />
<glyph unicode="Q" d="M45 760v37q20 432 207 649q163 192 417 192h3q186 0 340 -49q180 -57 258 -184q125 -199 133 -498v-12q0 -100 -47 -215q-35 -74 -41 -86q-18 -35 -33 -80q12 -35 23.5 -52.5t37.5 -45.5l58 -58l55 -61q25 -27 25 -61q0 -61 -78 -140q-2 0 -21 -20q-47 -53 -108 -74 q-6 -2 -19 -2q-57 0 -114 84q-49 72 -74 143q-27 63 -55 64h-6q-14 -2 -48 -23q-111 -70 -260 -104q-37 -8 -67 -8q-84 0 -180 32q-174 53 -283 191q-123 158 -123 381zM524 766q0 -88 56.5 -146.5t132.5 -58.5q74 0 136 60.5t89 181.5q14 66 14 125q0 145 -104 172 q-41 12 -76 12q-176 0 -242 -289q-6 -31 -6 -57z" />
<glyph unicode="R" horiz-adv-x="1286" d="M55 1430q0 61 74 96q51 25 184 67q143 45 222 45q322 0 487 -104q178 -115 186 -354v-6q0 -47 -30 -109q-32 -66 -88 -127q-53 -61 -111.5 -105.5t-106.5 -52.5h9q43 0 100 -47q51 -47 88 -94q123 -154 152 -373q6 -61 6 -110v-31l-4 -68q0 -10 -39 -16q-63 -10 -178 -14 l-58 -2q-35 0 -51 47q-76 231 -160 370q-90 145 -151 146q-14 0 -31 -6q-23 -8 -23 -62q0 -37 17 -119q20 -86 35 -176q12 -82 12 -112q0 -20 -4 -29q-6 -14 -41 -27q-170 -57 -299 -57q-96 0 -125 37t-29 125l2 135v39q-4 182 -18 588.5t-21 447.5zM467 1141l2 -35v-111 q4 -55 37 -63l14 -2q47 0 120 30.5t132 83.5q106 96 107 175q0 88 -152 131q-49 14 -96 14q-121 0 -152 -121q-12 -53 -12 -102z" />
<glyph unicode="S" horiz-adv-x="1409" d="M55 360q0 23 2 37v49q4 78 4 86q0 133 91 134q53 0 141 -45q14 -6 115 -99q100 -92 114 -98q66 -31 133 -31q109 0 133 101q4 25 5 36q0 70 -66 121q-49 39 -131 64q-8 2 -53 20l-80 31l-133 53q-176 59 -176 311q0 43 2 66q18 258 227 352q172 84 358 90q33 0 60 -2 q160 -6 194 -6q53 0 103 6q10 2 26 2q55 0 97 -34q39 -37 82 -129q43 -94 43 -158q0 -55 -31 -92q-53 -63 -172 -64q-104 0 -156 35q-51 33 -143 33q-72 0 -104.5 -26.5t-45.5 -84.5q-2 -8 -2 -26q0 -92 152 -146q57 -23 157 -51q201 -61 277 -176q39 -53 39 -144l-2 -34 q-27 -307 -242 -445q-152 -96 -373 -96q-121 0 -247 27q-186 35 -303 147q-94 88 -95 186z" />
<glyph unicode="T" horiz-adv-x="1421" d="M51 1403q0 235 147 235h1h18q162 -16 416 -16h131q164 0 235 2q117 0 191 -8q96 -10 113 -23q37 -25 36 -114l2 -64q2 -43 13 -237l2 -60q0 -57 -58 -71q-18 -6 -41 -7q-31 0 -57 11q-78 30 -124 30h-3q-57 0 -94 -18q-51 -25 -51 -72l8 -459l6 -376q0 -82 -35 -115 q-43 -41 -133 -41q-55 0 -127 14q-104 18 -139 64q-20 20 -21 53q0 29 13 72q63 252 63 577q0 96 -12 154q-10 51 -41 64.5t-94 13.5l-64 -4l-63 -4l-94 10q-35 4 -43 6q-72 23 -72 100q0 15 -8 56q-8 43 -13 86q-8 80 -8 141z" />
<glyph unicode="U" horiz-adv-x="1486" d="M51 1044v68q0 45 2 72l4 80l4 82q2 27 2 71q2 51 74 80q39 10 117 35q125 37 182 37q29 0 45 -8q53 -31 54 -109v-18q-4 -53 -5 -68q0 -43 2 -74v-100v-109v-106q-2 -35 -2 -100q0 -137 33 -210t127 -73l25 2q131 12 178 154q22 71 22 156v7q0 76 -16 174q-14 76 -47 181 q-39 119 -55 147q-14 18 -21 47v8q0 51 103 105q43 25 75 33q20 4 74 18q43 12 92 12h4q65 0 111 -30q43 -29 53 -115q16 -150 51 -268q78 -289 78 -490q0 -84 -8 -151q-47 -389 -340 -529q-113 -55 -272 -55q-168 0 -318 51q-211 68 -309 287q-84 184 -113 516 q-6 90 -6 190z" />
<glyph unicode="V" horiz-adv-x="1679" d="M41 1409q0 145 195 195q127 34 189 34h3q74 0 121 -66.5t60.5 -182t15.5 -127.5q29 -274 80 -385q33 -68 81 -68q45 0 70 47q23 41 51 164q10 47 47 166q35 115 78 207q49 104 88 125q41 20 113 20q86 0 178 -29q82 -27 136.5 -65.5t54.5 -79.5q0 -10 -5 -31l-8 -35 q-45 -203 -192 -510q-117 -240 -260 -479l-99 -157q-4 -6 -22.5 -36t-34.5 -45.5t-66 -37.5q-49 -27 -133 -33h-8q-45 0 -112 20q-88 29 -103 43q-88 100 -123 199q-78 231 -250 672q-119 301 -127 348q-18 86 -18 127z" />
<glyph unicode="W" horiz-adv-x="2437" d="M0 1524q0 35 8 50t52 27.5t59 16.5q74 20 145 20q68 0 135 -20q186 -57 271 -291q74 -217 117.5 -325.5t80.5 -151.5q25 -27 41 -27q25 0 41 66l27 108q33 143 125 213q39 31 112 31q90 0 136 -39q68 -57 82 -176q10 -123 34 -164q12 -23 43 -22h11q37 0 63 26 q31 31 64 148q35 123 57 379q12 119 256 135q-4 0 49 4q53 6 80 10q78 14 127 14h3q103 0 103 -69q0 -6 -4 -27q-2 -12 -20 -129q-33 -233 -217 -686q-106 -256 -281 -559q-12 -23 -86 -37q-76 -16 -147 -20l-115 -6l-57 -5q-109 0 -123 70q-2 8 -2 31v18q2 23 2 72 q0 102 -21 147q-23 49 -80 50q-16 0 -41 -7q-39 -10 -63 -110q-39 -162 -53 -201q-23 -53 -68 -70q-39 -18 -121 -18q-41 0 -63 2h-45h-33l-20 -2q-16 0 -58 6q-35 2 -88 70q-100 131 -225 428q-123 293 -213 635q-41 147 -72 325q-8 33 -8 60z" />
<glyph unicode="X" horiz-adv-x="1832" d="M51 1511q0 92 197 117q70 10 289 10q66 0 120 -245q20 -106 105 -234q37 -53 63 -80q31 -33 47 -32q8 0 31 40l53 105q92 180 166 276q113 147 215 156q12 0 37 -8q43 -10 164 -55q16 -6 65.5 -22.5t96.5 -43.5t47 -70q0 -33 -29 -77q-8 -12 -47 -56q-125 -139 -194 -221 q-119 -135 -179 -225q-26 -38 -26 -62q0 -33 43 -94q43 -63 86 -121q141 -188 190 -290q31 -57 31 -89q0 -25 -61 -53q-123 -57 -299 -127q-33 -12 -56 -12q-41 0 -53 35q-16 49 -37 102q-31 84 -57 137q-55 115 -115 215q-27 43 -35 43q-6 0 -22 -28q-35 -61 -86 -172 l-45 -105l-37 -90q-23 -57 -21 -51q-18 -47 -127 -68q-84 -16 -202 -16q-27 0 -82 6l-146 17q-51 6 -65.5 19t-14.5 56q0 76 146 305q106 174 190 275q74 92 74 121q0 20 -18 41q-53 61 -151.5 209.5t-174.5 284.5t-76 177z" />
<glyph unicode="Y" horiz-adv-x="1587" d="M61 1458q0 41 29 73t80 48t55 18l137 37q12 4 31 4q72 0 135 -125l99 -196q94 -190 153 -234q18 -12 31 -12q10 0 21.5 8t26.5 29.5t20 28.5q70 92 143 219q39 74 51 119q43 159 178 159h2h25l47 -4q41 -4 61 -4l58 -4q72 -17 72 -113q0 -10 -5 -55q-12 -104 -114 -274 q-59 -98 -191 -275l-80 -104q-43 -53 -63.5 -94t-28.5 -105q-8 -63 -8 -141q0 -49 4 -139v-35q0 -125 -47 -189q-29 -39 -82 -57t-135 -33q-14 -2 -43 -8t-51 -6q-113 0 -113 182q0 80 19 240q4 43 20 131q4 18 4 43q0 23 -4 28q-123 295 -326 541q-72 88 -133 154 q-51 53 -64.5 81.5t-13.5 63.5z" />
<glyph unicode="Z" horiz-adv-x="1744" d="M35 213q0 37 8 72q12 49 39 88t90 86q80 57 168 116q295 199 465 343q18 16 63 49q84 57 107 77q18 16 18 29q0 86 -151 101q-49 4 -78 4q-106 0 -246 -21l-166 -24q-25 -4 -65.5 -15.5t-65.5 -11.5q-94 0 -94 188v37v25q0 47 2 63v27q0 82 7 120t34 55t84 17q27 0 57 -8 q236 -29 582 -39q221 -4 334 -4q166 0 307 6h12q115 0 115 -118q0 -41 2 -66v-43q0 -63 -10 -106q-8 -35 -31 -64q-111 -152 -381 -371q-248 -201 -407 -311q-39 -27 -43 -43v-2q0 -14 20 -20t57 -7q27 0 84 4l74 7l43 4l123 6l200 8h-1h-17h19q63 0 84 -18l36 -33 q68 -63 68 -158q0 -23 -2 -35q-8 -68 -84 -151q-16 -16 -76 -23q-100 -12 -280 -12h-72q-147 0 -221 2q-147 0 -217 2h-62q-170 0 -256 -20q-98 -25 -155 -25q-39 0 -68 12q-39 14 -39 78q0 18 -6 45q-8 45 -8 78z" />
<glyph unicode="[" horiz-adv-x="626" d="M92 719v26q6 246 68 496q59 236 139 379q8 18 63 18h17l47 -4l29 -4q12 0 28 -16q39 -39 39 -74q0 -31 -14 -61q-12 -27 -47 -27l-33 2q-31 0 -50.5 -10t-25.5 -45q-25 -115 -45 -279q-23 -188 -22 -268q0 -240 8 -358q14 -209 49 -287q16 -31 47 -31q14 0 23 2 q25 4 34 4q18 0 27 -12q16 -29 16 -64q0 -43 -24.5 -74.5t-54.5 -31.5q-43 0 -86 10q-68 16 -78 39q-84 205 -101 270q-53 180 -53 400z" />
<glyph unicode="\" horiz-adv-x="1044" d="M76 1610v2q0 4 37 16t86 12q51 0 94 -16q47 -18 69 -72q154 -297 340 -725q96 -225 211 -520q51 -135 52 -221q0 -33 -4 -49q-20 -31 -35 -37q-35 -16 -262 383q-66 113 -207 393q-152 299 -258 531q-45 94 -90 202q-33 82 -33 101z" />
<glyph unicode="]" horiz-adv-x="591" d="M92 1540q0 35 39 74q12 16 29 16l28 4q55 6 62 6q12 0 37 -4q23 -4 28 -16q80 -143 140 -379q61 -250 67 -496v-24q0 -213 -53 -402q-16 -66 -100 -270q-10 -23 -78 -39q-43 -10 -86 -10q-31 0 -55.5 31.5t-24.5 74.5q0 35 16 64q8 12 27 12q10 0 35 -4q6 -2 22 -2 q31 0 45 31q37 82 52 287q8 119 8 358q0 80 -23 268q-20 164 -45 279q-6 35 -26.5 45t-51.5 10l-32 -2q-38 0 -46 27q-14 31 -14 61z" />
<glyph unicode="^" horiz-adv-x="1705" d="M420 1049q0 2 14 22q20 27 105 111q37 37 129 118q33 27 80 64q25 16 38 25l31 18q10 8 14 8q12 4 17 4h6q14 0 29 -12l26 -23l33 -26q41 -37 68 -68l102 -127q33 -41 80 -112q6 -14 6 -23v-4l-14 -2q-33 -8 -72 -8q-14 -2 -43 -2q-51 0 -63 18q-63 76 -107 148 q-14 20 -63 106q-61 -88 -156 -178q-29 -33 -68 -66q-12 -12 -57 -12q-33 0 -49 2q-39 4 -57 8q-29 6 -29 11z" />
<glyph unicode="_" horiz-adv-x="1705" d="M186 -43l2 23q12 70 60 114q27 23 59 23h8q129 16 324 16q115 0 252 -6q178 -8 403 -49q45 -4 62 -4q66 -4 94 -15q18 -10 33 -28q14 -35 14 -54q0 -43 -332 -71q-90 -4 -239 -4h-78q-264 0 -424 10q-82 6 -160 16q-68 10 -76 19l-1 3t-1 7z" />
<glyph unicode="`" horiz-adv-x="411" d="M53 1413q0 31 27 43q25 10 72 17q10 2 28 2q68 0 101 -64q6 -10 20 -57q25 -76 49 -129q8 -25 8 -51q0 -51 -43 -70q-14 -6 -30 -6q-53 0 -99 65q-37 51 -57 88l-41 68q-35 59 -35 94z" />
<glyph unicode="a" horiz-adv-x="978" d="M86 231q0 16 4 62q14 100 27 129q25 70 80 113q106 82 200 86q35 0 76 -11l78 -20h2q12 0 20 24q6 18 7 43q0 53 -31 101q-23 35 -78 51q-2 2 -25 2q-33 0 -51 -2l-63 -4l-64 -4q-20 -2 -49 -2l-22 -2q-8 -2 -21 -2q-43 0 -64.5 24.5t-21.5 61.5v7q0 36 18 66 q20 34 56 39q215 29 311 35h29q148 0 244 -90q115 -106 122 -344l19 -547q0 -33 -60 -61q-41 -23 -84 -23q-10 0 -26 4q-61 14 -62 86q0 14 -2 19q-6 12 -4 10l-2 4q-2 0 -2 2q-23 0 -74 -37q-59 -43 -106 -45q-49 -6 -111 -6h-24q-111 0 -178 59q-68 53 -68 172zM289 305 l2 -26l10 -19q27 -41 66 -57q20 -10 43 -10q37 0 71 24q35 25 63.5 65t28.5 70q0 10 -2 15q-18 70 -116 84l-21 2q-82 0 -125 -68q-20 -35 -20 -80z" />
<glyph unicode="b" horiz-adv-x="1105" d="M70 879q0 147 6 258q10 199 28 317q12 84 181 100q45 4 61 5q23 0 55 -5q10 0 31 -2t29 -9t8 -42v-33q-2 -74 -31 -360l-20 -195q96 63 239 64q20 0 58 -4q182 -20 241 -119q102 -162 103 -367q0 -250 -148.5 -359.5t-349.5 -111.5h-14q-171 0 -250 97q-45 -113 -92 -113 q-16 0 -43 11.5t-39 15.5q-41 31 -41 75q0 10 4 35q4 33 12 66q6 23 6 43l-2 28q-32 300 -32 588v17zM383 516q0 -123 86 -166q29 -14 66 -14h4q51 0 90 26q84 53 84 158q0 119 -84 172q-43 27 -90 27q-35 0 -70 -19q-86 -49 -86 -184z" />
<glyph unicode="c" horiz-adv-x="948" d="M53 455q0 199 105 366q70 117 264 183q116 40 231 40h6q37 0 95 -8q154 -31 153 -141v-10q-2 -59 -59 -127q-53 -57 -100 -58q-12 0 -19 2q-92 18 -147 19q-51 0 -78 -12q-102 -43 -103 -224q0 -143 74 -170q29 -8 45 -8q41 0 117 23q94 26 129 26h2q11 0 31 -4 q67 -17 67 -138v-11q-2 -111 -92 -170q-84 -53 -209 -53h-12q-205 6 -352.5 114.5t-147.5 360.5z" />
<glyph unicode="d" horiz-adv-x="1060" d="M51 492q0 203 103 366q37 55 94 107.5t121 78.5q55 23 108 23q104 0 193 -90q-10 131 -15 184q-14 197 -14 289v33q0 41 4 56t28.5 16t31.5 1q110 0 198 -47q43 -27 53 -75q37 -227 37 -541q0 -98 -2 -152q-4 -221 -30 -493v-12q0 -33 12 -56q6 -10 25.5 -45t21.5 -61v-4 q0 -20 -29 -43q-25 -10 -90 -27h-4q-39 0 -82 113q-80 -97 -253 -97h-11q-201 2 -350.5 113t-149.5 363zM397 522q2 -63 29 -113.5t68 -76.5q35 -27 81 -27q41 0 74 25q59 47 60 159q0 41 -4 66q-12 86 -91 129q-45 23 -90 23q-30 -1 -55 -13q-72 -42 -72 -165v-7z" />
<glyph unicode="e" horiz-adv-x="1003" d="M41 506q0 152 81 292t206 203q121 63 293 64q86 0 158.5 -40t115.5 -112q57 -96 57 -217q0 -102 -75 -161q-125 -98 -273 -111l-43 -2q-35 0 -65 6q-72 10 -103 10q-20 0 -28 -4q-16 -10 -17 -35v-8q4 -106 111 -133q25 -6 47 -6q41 0 104 22q55 20 70 27q51 18 80 18 q24 0 51 -10q35 -16 59 -53q18 -25 19 -51q0 -63 -92 -121q-57 -37 -140.5 -60.5t-160.5 -23.5q-176 0 -265 41q-106 47 -153 168q-37 90 -37 297zM367 717q0 -49 57 -94q29 -27 78 -27q27 0 51 6q61 14 117 76q43 43 43 96q0 14 -2 21q-18 90 -115 90l-25 -2 q-49 -6 -98 -32t-78 -63q-28 -38 -28 -71z" />
<glyph unicode="f" horiz-adv-x="778" d="M4 1366q0 137 88 201q115 82 268 82q70 0 101 -9q119 -33 166 -93t59 -167q2 -18 2 -61q0 -158 -37 -322q-59 -270 -164 -393q0 -25 13 -53q10 -23 12 -53q20 37 66 98q25 33 38 47l144 -237q-18 -23 -39 -31q-49 -23 -80 -53q-20 -20 -39 -64q33 -119 60 -192 q78 -231 88 -349q2 -16 2 -47q0 -156 -86 -235q-100 -92 -246 -119q-8 -2 -27 -2q-68 0 -139 47q-88 53 -111 117q-32 83 -32 239v9q0 86 8 161q27 283 155 549l-30 -35q-37 -40 -68 -63q-25 -20 -61 -41l-92 274q72 2 116 31q31 18 72 70q-49 160 -92 276q-94 250 -111 361 q-4 37 -4 57zM289 1333q0 -53 14 -116q12 -72 84 -302q6 14 29.5 69.5t43 119t19.5 125.5v18q-6 80 -174 154q-16 -18 -16 -68zM336 -201q0 -41 12 -94q27 -104 82 -104q27 0 47 30q33 47 33 121q0 35 -6 72q-12 80 -74 278q-94 -154 -94 -303z" />
<glyph unicode="g" horiz-adv-x="1056" d="M37 492q0 248 144.5 354t346.5 112h14q169 0 251 -92q43 111 77 111h4l41 -10l50 -17q41 -33 41 -82q0 -16 -2 -26l-13 -66q-6 -20 -6 -45l2 -26q8 -254 8 -308l-8 -397q-4 -205 -12 -256q-10 -104 -29 -170q-18 -55 -52 -83t-93 -38q-102 -16 -152 -22q-51 -10 -127 -11 q-133 0 -237 41q-139 55 -140 162q0 23 11 58q39 123 129 126q35 0 80 -16q109 -45 176 -51q8 -2 22 -2q82 0 105 82q27 94 30 217l4 79v-1q-37 -47 -111.5 -77t-160.5 -34h-24q-184 0 -269 127q-100 158 -100 361zM338 483v-7q0 -141 80 -181q27 -14 63 -14h4q48 0 95 26 q39 23 67.5 61t32.5 81q6 41 6 73q0 125 -68 178q-39 29 -83 29q-45 0 -91 -29q-45 -29 -74.5 -86t-31.5 -131z" />
<glyph unicode="h" horiz-adv-x="927" d="M51 72v4q4 61 15 145q37 319 49 670q4 156 4 248q0 82 -4 278q0 35 -9 58q-6 16 -6 28q0 27 31 41q20 8 88 12h51q25 0 35 -2q76 -4 103 -38q2 -4 22.5 -35t20.5 -78q0 -16 -2 -25q-27 -201 -27 -301q0 -37 2 -55q10 -150 96 -150h2h23q170 0 252 -114q72 -106 75 -279 v-30q0 -164 -59 -383q-2 -45 -55 -54q-10 -2 -31 -2h-12q-14 2 -31 2q-68 2 -84 58q-10 37 -10 80l2 40l12 97q10 55 10 102q0 82 -30 141q-29 53 -105 72q-20 4 -28 4q-29 0 -39 -28q-8 -18 -9 -50l-6 -65q-10 -90 -12 -168q-4 -186 -12 -242q-8 -37 -29.5 -46t-75.5 -9 q-113 0 -184 37q-33 16 -33 37z" />
<glyph unicode="i" horiz-adv-x="573" d="M35 224q0 59 24 136q23 74 39 179l29 170q8 51 8 65q4 66 9.5 93.5t20.5 39t52 11.5q33 0 66 -9q76 -4 118 -10q45 -8 56 -100q26 -279 26 -414v-10v-29l-2 -196q0 -92 -22.5 -121t-87.5 -29q-33 0 -52 2q-147 6 -215.5 48t-68.5 174zM150 1331q0 143 122 144q31 0 56 -9 q98 -23 150 -91t52 -154q0 -113 -77 -136q-49 -14 -84 -14q-45 0 -96.5 31t-87 90t-35.5 139z" />
<glyph unicode="j" horiz-adv-x="741" d="M-53 -137q0 53 22 88q38 65 101 65h2q63 0 78 -20q6 -6 10 -31q0 -10 4 -51q6 -68 45 -112q37 -42 80 -42h4q41 2 76 62q26 45 26 144v7v43l-4 64q-4 78 -18 125q-18 51 -21 63q-31 88 -41 187l-4 43v16q8 51 90 82q31 12 62 18q20 4 78 19l18 6q10 4 37 4q47 0 59 -18 l6 -23q0 -20 2 -33l9 -71q16 -141 24 -279q2 -25 2 -74q0 -150 -26 -284q-45 -227 -150 -291q-59 -35 -149 -35q-131 0 -215 35q-133 55 -191 205q-16 43 -16 88zM184 893q0 31 17 61q8 18 32 43q82 96 193 97q57 0 115 -29q84 -47 84 -111q0 -14 -2 -20q-10 -53 -27 -80 q-25 -53 -127 -94q-31 -15 -70 -15q-57 0 -129 37q-86 47 -86 111z" />
<glyph unicode="k" horiz-adv-x="1130" d="M61 164v10q0 20 7 53q31 215 38 279l19 213l27 399q6 111 6 166v33v37q0 51 2 69q2 8 2 21q0 12 -2 16q-6 25 -6 41v8q0 8 12 27q20 10 43 12q82 8 129 8q23 0 51 -4q133 -16 133 -206q0 -72 -14 -157t-19 -114q-16 -115 -22 -133v-10q0 -37 29 -37q27 0 55 35 q35 43 62.5 93t46 99t20.5 56q18 53 31.5 75.5t38.5 22.5h8q70 -10 112 -39l-6 3l92 -50q29 -14 33 -21q63 -49 64 -112q0 -12 -2 -21q0 -8 -29 -37l-74 -71q-158 -154 -207 -203q113 -108 146 -145q147 -176 190 -330q4 -33 4 -43v-10q-6 -43 -108 -117q-23 -23 -115 -53 q-33 -12 -67 -21q-6 -2 -17 -2q-14 0 -16 8q-70 231 -144 377q-70 139 -129 148h-2q-16 0 -26 -33q-27 -82 -31 -182v-33q0 -51 6 -101l4 -61v-6q0 -80 -135 -109q-33 -8 -35 -8l-12 -4q-8 0 -14 2l-35 4q-76 10 -107.5 48t-36.5 110z" />
<glyph unicode="l" horiz-adv-x="489" d="M61 1556v17q2 65 47 65h1q25 0 45 -10q31 -6 81 -13t72.5 -23.5t32.5 -78.5q27 -176 47 -512q27 -438 35 -813v-22q0 -160 -86 -166q-12 0 -43 8l-148 25q-61 18 -65 71l22 230q6 41 7 123l-3 108q-4 166 -18 432q-10 199 -20 418z" />
<glyph unicode="m" horiz-adv-x="1486" d="M76 143v17q0 49 8 147q6 68 6 193q0 121 -2 176t-2 155q0 78 8 130q4 33 19 47q20 20 80 32l71 17l29 4q39 0 39 -41l-2 -19q-6 -25 -6 -67q0 -66 10 -80q6 -8 12 -8h6q12 4 31 31l41 38q78 78 178 125q59 27 107 27q55 0 102 -35t78 -121l37 39q49 55 110 88 q29 14 54 15q43 0 90 -35q83 -70 155 -283q37 -113 74 -286q25 -115 25 -195v-21q0 -41 -12.5 -65.5t-32 -34.5t-25.5 -12q-35 -20 -66 -29l-36 -12q-25 -8 -52 -8q-53 0 -88 45q-43 51 -53 159q-6 47 -6 93q0 35 4 88l4 67l2 33q0 55 -19.5 91t-54.5 36l-12 -2 q-98 -10 -123 -117q-10 -47 -10 -96q0 -37 8 -115q8 -98 8 -141q0 -27 -4 -63q-16 -90 -98 -91q-127 0 -172 117q-29 74 -29 191v30q4 63 8 92l5 48q0 111 -86 125q-8 2 -23 2q-129 0 -133 -271q0 -41 14 -166l8 -96q2 -45 7 -57v-2q0 -20 -64 -47q-37 -12 -45 -19 q-12 -4 -18 -4h-27h-31h-6q-53 0 -84 57q-16 33 -16 84z" />
<glyph unicode="n" horiz-adv-x="972" d="M55 145v21l6 55q6 61 11 92q16 131 20 371q0 197 17 289q4 31 16 45q6 6 27 16q16 6 53 13l74 14l28 4q39 -4 39 -37q0 -8 -4 -24q-8 -41 -8 -70l-2 -31q0 -35 8 -49q6 -10 14 -10h6q10 2 33 30q2 4 31 29q70 61 135 101q96 57 168 59h6q77 0 109 -92q12 -39 12 -97 q0 -29 -2 -43v-10q0 -25 10 -69q14 -57 17 -127l8 -78q8 -72 20 -150q18 -143 19 -184q0 -25 -2 -35q-4 -68 -29 -84q-63 -35 -78 -39q-37 -14 -72 -20q-25 -6 -47 -6q-80 0 -114 92q-25 66 -25 172q0 49 2 72q4 72 8 104l6 53v15q0 96 -81 116q-10 2 -27 2 q-125 0 -139 -266v-18q0 -59 6 -150l10 -158v-2q0 -18 -68 -43l-26 -10q-18 -8 -35 -8q-2 -2 -12 -2t-17 2h-30q-55 0 -86 63q-14 27 -15 82z" />
<glyph unicode="o" horiz-adv-x="1058" d="M70 592q0 150 53 260q53 115 168 174q80 39 155 39q109 0 213 -35q119 -45 187 -123q81 -106 112 -174q37 -88 37 -225q0 -274 -164 -402q-61 -49 -180 -75q-123 -31 -219 -31q-162 0 -258 129q-45 59 -63.5 134t-32.5 206q-8 59 -8 123zM362 625q0 -45 21 -90 q29 -61 80 -104.5t100 -43.5q53 0 82 55q43 81 43 142q0 72 -57 123q-88 53 -152 53q-57 0 -87 -39t-30 -96z" />
<glyph unicode="p" horiz-adv-x="1056" d="M51 135v131q4 219 31 498l2 33q0 16 -4 41q-12 66 -12 88q0 12 4 37q6 27 37 49q12 6 26 6q66 0 101 -90q79 96 252 96h14q205 -2 354.5 -112.5t149.5 -364.5q0 -211 -105 -369q-92 -141 -256 -170q-20 -4 -59 -4q-125 0 -187 76q16 -223 19 -379q0 -109 -2 -150 q-4 -61 -17 -71q-2 -2 -26 -6q-18 -4 -64 -4q-41 0 -63 2q-86 6 -131 43q-27 23 -29 53q-35 209 -35 567zM344 526q0 -20 4 -69q12 -102 111 -158q57 -31 108 -31q37 1 70 17q86 46 86 202v7q-8 160 -115 233q-45 31 -100 31q-49 0 -90 -31q-74 -59 -74 -201z" />
<glyph unicode="q" horiz-adv-x="1095" d="M43 578q0 266 157.5 382.5t372.5 118.5h14q186 0 267 -100q37 92 107 92q16 0 24 -4q47 -37 47 -90q0 -16 -2 -25q-2 -18 -10 -69q-6 -25 -6 -49l2 -29q35 -338 35 -664q0 -143 -7 -254q-10 -199 -32 -340q-10 -63 -90 -88q-51 -16 -123 -16h-29q-27 0 -59 4q-27 4 -29 6 q-14 12 -18 78q-4 70 -5 119q0 63 9 235q8 129 14 201q-68 -80 -199 -80q-37 0 -57 4q-82 12 -154.5 57.5t-119.5 120.5q-109 164 -109 390zM342 498q0 -147 90 -195q31 -16 76 -16h4q57 0 106 30q100 55 117 164q4 27 4 76q0 150 -75 211q-41 33 -95 33q-53 0 -106 -35 t-86 -98.5t-35 -147.5v-22z" />
<glyph unicode="r" horiz-adv-x="1003" d="M70 143v21l6 55q6 61 10 92q16 131 20 371q0 197 17 289q10 49 145 73l76 15l27 4q37 -2 37 -41q0 -12 -2 -21q0 -14 -3 -26q-4 -41 -4 -64v-24q0 -45 19 -45h6q10 2 33 30q4 6 32 29q84 66 150 100q111 57 186 60h7q86 0 122 -92q14 -37 15 -99q0 -27 -2 -41 q0 -10 -19 -32q-35 -43 -114 -113q-72 -63 -125 -96q-20 -12 -31 -13h-4q-8 2 -19 13q-20 20 -57 47q-23 10 -41 16q-10 2 -27 2q-125 0 -139 -266q0 -25 8 -168l4 -98q4 -59 5 -60q4 -18 -43.5 -35.5t-92.5 -23.5q-33 -4 -51 -4h-20h-31q-55 0 -86 63q-14 27 -14 82z" />
<glyph unicode="s" horiz-adv-x="907" d="M33 233q0 12 2 23v33q0 23 2 33v24q0 86 59 86q33 0 90 -31q23 -8 76 -61q57 -57 74 -66q41 -20 86 -20q72 0 88 65q2 8 2 25q0 45 -43 80q-20 14 -84 39q-70 27 -88 35l-86 34q-115 39 -115 197q0 31 2 47q12 164 148 230q109 53 233 59q20 0 39 -2q66 -4 125 -4 q23 0 68 4h12q43 0 68 -23q18 -16 53 -82q26 -57 26 -97q0 -77 -67 -97q-35 -10 -64 -10q-61 0 -102 22q-35 23 -92 23q-47 0 -68.5 -18.5t-27.5 -55.5l-3 -16q0 -59 99 -95q53 -20 104 -34q129 -39 178 -113q25 -43 25 -102v-15q-16 -197 -158 -289q-96 -61 -243 -61 q-84 0 -160 16q-123 23 -197 97q-61 55 -61 120z" />
<glyph unicode="t" horiz-adv-x="913" d="M-106 1110l4 20q29 141 57 173q24 24 81 24h5q31 0 51 -2l6 59l4 62l7 53q2 14 2 33q8 106 131 106q57 0 155 -24q88 -23 109 -164v-25q2 10 -4 -61q0 -14 -8 -72q12 -2 32 -2h9h22h25q53 0 92 -28q49 -37 65 -91q2 -8 2 -22q0 -41 -43 -68q-37 -22 -122 -22h-7h-24h-99 q-23 -92 -30 -146q-8 -51 -8 -106l-5 -94q-2 -27 -2 -76q0 -188 45 -262q23 -41 56 -41q23 0 47 26q55 66 67 201q4 98 17 121q18 31 92 31q33 0 64.5 -24.5t52.5 -70.5q26 -55 26 -126v-5q0 -63 -20 -131q-68 -223 -219 -305q-96 -51 -248 -51q-131 0 -191 78 q-39 53 -65 205q-55 371 -55 661q0 84 2 127q-14 0 -105 8q-41 4 -53 8q-20 6 -20 23z" />
<glyph unicode="u" horiz-adv-x="1089" d="M57 477v25q0 139 33 295q2 14 10 47l13 51l12 53q10 45 10 47q6 35 62 43q31 2 88 11q66 8 104 8q43 0 62 -13q26 -17 26 -54q0 -13 -4 -34q-6 -16 -10 -45l-8 -47l-13 -65l-26 -140q-20 -106 -21 -149q0 -111 107 -117h16q80 0 129 80q45 78 45 217q0 33 -12 123 q-14 76 -23 102q-8 14 -8 33q0 35 86 62q37 12 58 12q18 0 32 2q37 4 60 4q12 0 41 -4q59 -10 82 -51q10 -20 10 -47v-13v-34q0 -74 6 -146l6 -82q2 -27 2 -76v-15q0 -294 -151 -447q-117 -123 -299 -123q-76 0 -152 20q-193 41 -278 140q-94 106 -95 327z" />
<glyph unicode="v" horiz-adv-x="1120" d="M49 885v12q0 84 117 127q25 8 127 35h4q46 0 80 -40q35 -42 49 -117t16 -83q37 -184 76 -250q20 -39 53 -39q31 0 47 35t25 109q14 96 41 186q39 137 74 156q30 22 96 22h6h19q68 -2 137 -30q68 -31 69 -66q0 -12 -2 -18q-2 -8 -2 -25q-20 -143 -100 -348 q-74 -193 -143 -332l-58 -110q-2 -4 -13 -25t-20.5 -32t-39.5 -29q-31 -18 -89 -29h-8q-16 0 -26 2l-45 6q-53 6 -70 23q-18 10 -43 45q-39 47 -49 77q-111 238 -205 431l-68 141q-29 57 -36 82q-16 59 -19 84z" />
<glyph unicode="w" horiz-adv-x="1660" d="M51 985q0 23 5 34t37 19.5t36 8.5q49 12 104 12q57 0 97 -12q141 -41 194 -191q10 -31 37 -103.5t49.5 -127t42.5 -78.5q18 -18 27 -19q16 0 27 43l18 72q20 92 80 137q27 20 76 21q59 0 88 -25q43 -39 51 -114q8 -84 22 -107q8 -14 27 -14h8q25 0 41 16q20 20 41 96 q23 82 37 246q8 78 168 88q-2 0 31 4q20 0 51 6q51 8 82 9q69 0 69 -43q0 -12 -2 -19l-12 -84q-23 -162 -141 -446q-61 -150 -182 -363q-8 -14 -58 -24q-41 -10 -96 -15l-72 -4q-18 -2 -39 -2q-47 0 -64.5 17.5t-17.5 48.5l2 34l3 33q0 63 -27 103q-12 16 -37 16 q-8 0 -29 -4q-27 -8 -41 -72l1 3q1 0 -17 -66q-12 -45 -20 -68q-23 -57 -160 -57l-41 2h-29h-20h-13q-23 0 -41 2q-23 4 -55 45q-68 86 -147 281q-78 186 -138 411q-33 113 -47 211q-6 16 -6 39z" />
<glyph unicode="x" horiz-adv-x="1212" d="M53 973q0 59 127 76q35 6 189 6q43 0 77 -160q14 -68 70 -152q23 -33 41 -53t31 -20q4 0 18 26l37 70q61 117 107 178q74 94 139 103l24 -7l107 -34q12 -4 44 -15.5t61.5 -28.5t29.5 -44q0 -23 -18 -52l-31 -37l-57 -63q-45 -53 -70 -80q-82 -96 -115 -147 q-18 -25 -18 -41q0 -18 28 -60q47 -66 58 -78q96 -133 123 -188q20 -39 20 -57t-41 -35q-96 -45 -194 -84q-29 -8 -35 -8q-25 0 -35 24l-25 66l-12 35q-10 16 -24 55q-51 102 -74 139q-18 27 -25 27q-4 0 -14 -19q-14 -23 -55 -110l-29 -70l-25 -57l-14 -33q-10 -31 -82 -45 q-51 -10 -131 -10l-53 4l-94 10q-35 4 -44.5 12.5t-9.5 36.5q0 53 95 199q80 125 125 178q47 63 47 80q0 12 -13 27q-55 66 -157.5 231.5t-102.5 204.5z" />
<glyph unicode="y" horiz-adv-x="1380" d="M45 834q0 41 25.5 66.5t80 45t162.5 47.5q6 2 27 2q66 0 121 -112q123 -244 164 -308q33 -53 61 -75q12 -10 27 -11q10 0 18 7.5t21.5 24t21.5 26.5q59 74 127 194q31 57 45 109q41 141 162 141h22l41 -4l105 -6q63 -12 63 -100v-23q0 -18 -2 -29q-12 -84 -104 -243 q-59 -102 -166 -246l-72 -92q-33 -41 -41 -60q-51 -86 -92 -194q-109 -283 -207 -412q-63 -84 -159 -112q-104 -31 -183 -31l-34 2q-68 2 -68 156q0 10 25 51q43 72 137 202q72 104 131 195q20 35 20 39v2q-98 238 -291 481q-98 117 -118 138q-45 47 -57.5 72.5t-12.5 56.5z " />
<glyph unicode="z" horiz-adv-x="1181" d="M61 133q0 25 7 51q12 59 86 113l108 76q174 115 301 221l41 33q47 31 70 51q12 10 12 18q0 55 -98 66q-14 2 -47 2q-53 0 -164 -12l-107 -17q-14 -4 -40.5 -11t-45.5 -7q-61 0 -61 123v24v17q0 31 2 41v16q0 78 13.5 101.5t66.5 23.5q8 0 37 -4q115 -16 379 -25 q143 -4 217 -4q80 0 198 4h8q76 0 76 -78q0 -27 2 -41q0 -65 -8 -98q-6 -27 -20 -41q-59 -86 -246 -241q-117 -96 -266 -203q-27 -18 -27 -27v-2q0 -8 12 -12q8 -4 35 -4q39 0 57 2l48 4l28 2l80 4l119 6q51 0 65 -12l25 -23q43 -39 43 -100q0 -14 -2 -23q-6 -43 -53 -100 q-12 -12 -47 -14q-72 -8 -232 -8q-104 0 -284 4q-147 0 -207 -15q-74 -16 -103 -16q-27 0 -43 8q-25 10 -24 51l-4 29q-6 18 -7 47z" />
<glyph unicode="{" horiz-adv-x="698" d="M92 803q0 10 43 49q41 33 41 47q2 82 21 172q4 25 16 78l23 92q61 244 137 379q10 18 65 18h17l47 -4l28 -4q12 0 29 -16q39 -45 39 -74q0 -18 -14 -61q-12 -27 -47 -27l-33 2q-31 0 -51.5 -10t-26.5 -45q-20 -90 -43 -258q-23 -166 -23 -244q0 -16 -49 -49 q-47 -31 -47 -51q0 -14 49 -47q49 -37 49 -50q0 -131 15 -284q12 -143 41 -209q16 -31 47 -31q14 0 22 2q25 4 35 4q18 0 27 -12q16 -29 16 -64q0 -43 -24.5 -74.5t-55.5 -31.5q-43 0 -86 10q-68 12 -77 37q-82 207 -103 270q-51 180 -51 383q0 6 -12 21l-25 31 q-11 10 -27 30q-12 16 -12 21z" />
<glyph unicode="|" horiz-adv-x="462" d="M90 1556v17q2 66 47 65q25 0 45 -10q43 -18 43 -20q47 -10 69.5 -52.5t31 -131.5t10.5 -119q25 -250 45 -709q10 -203 12 -408v-22q0 -160 -86 -166q-12 0 -43 8q-4 0 -34.5 6t-73.5 25.5t-47 64.5l22 230q6 41 6 123l-2 108q-4 166 -18 432q-10 199 -21 418z" />
<glyph unicode="}" horiz-adv-x="677" d="M82 1540q0 35 39 74q16 16 29 16l28 4q55 6 62 6q12 0 36 -4q23 -4 29 -16q80 -143 139 -379l23 -92q18 -70 29 -158l6 -92q0 -16 43 -47q43 -35 43 -49q0 -4 -13 -21l-24 -30q-10 -10 -27 -31q-12 -14 -12 -21q0 -188 -53 -383q-16 -63 -101 -270q-10 -25 -77 -37 q-43 -10 -86 -10q-31 0 -55.5 31.5t-24.5 74.5q0 35 16 64q8 12 27 12q12 0 37 -4q6 -2 22 -2q31 0 45 31q29 66 41 209q10 115 14 284q0 12 50 50q49 33 49 47q0 18 -49 51t-50 49q0 94 -20 244q-20 143 -45 258q-6 35 -25.5 45t-50.5 10l-33 -2q-39 0 -47 27 q-14 31 -14 61z" />
<glyph unicode="~" horiz-adv-x="825" d="M51 635q0 14 6 22q12 16 52 45q39 29 77 46q51 23 82 24q12 2 37 2q51 0 113 -24q41 -18 90 -62q39 -35 49 -35l6 2q20 2 41 27q18 23 33 45q14 25 29 27h10q14 0 31 -9l24 -20l31 -27q18 -12 18 -34q0 -39 -55 -105q-59 -72 -100 -82q-25 -4 -33 -4q-20 0 -51 10 q-41 14 -82 49l-35 25q-39 39 -84 39h-8q-43 -2 -109 -43q-37 -23 -53 -39l-12 -10q-4 -4 -6 -4q-4 0 -7 2q-2 2 -14 6q-20 16 -39 39q-25 25 -35 59q-6 17 -6 29z" />
<glyph unicode="&#xa1;" horiz-adv-x="626" d="M72 104q2 203 53 504q25 162 76 348q29 117 121 164q51 10 67 10q53 0 78 -288q4 -49 4 -111q0 -162 -12 -356q-14 -213 -37 -320q-12 -59 -27 -67q0 -2 -8 -2q-10 0 -18 2q-63 4 -140 20q-92 20 -133 53q-25 18 -24 43zM174 1425q0 39 23 91q20 51 58 80.5t81 29.5 q29 0 61 -16q100 -51 101 -148q0 -47 -21 -96q-45 -111 -133 -111q-43 0 -84 29q-86 59 -86 141z" />
<glyph unicode="&#xa2;" horiz-adv-x="956" d="M86 453q0 190 100 354q72 115 248 172v51v47v39v19q8 39 74 43q63 0 74 -29q4 -16 4 -51q0 -25 -4 -82q43 6 86 6q86 0 147 -25q96 -39 94 -129q-12 -72 -59 -123q-51 -55 -98 -55q-10 0 -17 2q-102 20 -143 21q-41 -1 -72 -13q-98 -41 -98 -217q-2 -137 70 -161 q25 -8 43 -9q41 0 112 23q94 23 123 22q12 0 33 -4q68 -16 65 -141q0 -102 -80 -160q-80 -53 -194 -57l-4 -64l-4 -51q0 -33 -51 -33h-13q-59 4 -88 33q-14 14 -14 76l2 57q-70 14 -135 56q-201 117 -201 383z" />
<glyph unicode="&#xa3;" horiz-adv-x="1568" d="M98 96v6q0 20 13 48q31 78 139 223q41 53 69 168q12 59 31 202q-33 -8 -106 -20q-82 -14 -97 -18l-16 -5q-18 0 -18 23v6l8 41q4 33 4 57q0 37 -2 52q-2 6 -2 18q0 27 16 37q14 10 42 20.5t50 12.5q49 0 74 -9l33 -6h8h8q4 -2 15 -2q18 147 59 281q51 164 137 262 q106 123 258 137q47 6 86 6q88 0 176 -30l86 -31q39 -16 78 -16q51 0 84 -29q47 -41 47 -135q0 -63 -18 -115l-14 -37q-6 -10 -11 -22q-31 -94 -151 -91q-12 0 -94 44l-54 30q-33 18 -43 21q-35 10 -55 10q-57 0 -104 -43q-53 -47 -86 -135q-10 -29 -15 -56l-2 -14 q0 -8 4 -8h2l41 8q61 12 127 12q45 0 88 -8q33 -2 33 -92q0 -74 -16 -117q-12 -29 -27 -30l-37 -7q-8 -2 -26 -2q-25 0 -39 5q-82 12 -113 12q-20 0 -29 -2q-25 -4 -24 -41q0 -20 4 -37q6 -27 8 -74q2 -18 2 -76q0 -174 117 -208q27 -8 67 -9q76 0 187 35q90 29 135 45 q145 53 195 53h10q31 -2 35 -38q2 -33 12 -86l6 -35l6 -51l6 -50v-12q0 -20 -2 -29q0 -25 -10 -41t-33.5 -28.5t-29.5 -16.5q-57 -37 -300 -47q-135 -4 -217 -4q-211 0 -428 4q-47 0 -77 -8q-25 -6 -41 -6l-21 2q-51 2 -117 10q-61 8 -82 25q-8 8 -20 14q-29 10 -29 47z" />
<glyph unicode="&#xa5;" horiz-adv-x="1521" d="M0 1458q0 61 63.5 96t235.5 82q6 2 31 2q72 0 135 -125l98 -194q94 -190 154 -234q18 -12 31 -12q10 0 21 8.5t26.5 30t19.5 27.5q70 92 143 219q39 74 52 119q43 158 180 157h24q-6 2 48 -4q37 -4 59 -4l57 -4q72 -16 72 -113v-24q0 -10 -4 -31q-12 -104 -115 -274 q-61 -100 -188 -273l-80 -106q-37 -47 -54.5 -79t-27.5 -77q-14 -51 -16 -96q61 0 86 2h20q49 0 70 -21q18 -18 18 -41q0 -20 -12 -38q-25 -35 -98 -41q-14 -2 -36 -4.5t-50 -4.5q0 -18 2 -20q0 -8 2 -10v-11v-20l55 4q27 0 37 2h8q45 0 57 -31q2 -8 2 -22v-10 q-4 -25 -4 -37t-51 -25q-61 -14 -129 -22q-6 -12 -6 -29v-10v-13q0 -49 -35 -84q-27 -27 -84 -45t-115 -16q-37 0 -131 4q-25 0 -47 62q-23 57 -24 112q-45 2 -88 15q-47 12 -47 69q-1 25 38 37q20 4 48 18h12h16q12 0 21 3q0 16 4 32l4 17l4 28q-209 12 -242 19 q-47 10 -55 24q-2 2 -2 9q0 8 14 20q45 33 181 57q10 2 34 2h39q31 0 49 2q6 43 7 68q0 16 -2 21q-119 289 -324 538q-72 88 -133 154q-51 53 -64.5 81.5t-13.5 63.5z" />
<glyph unicode="&#xa8;" horiz-adv-x="966" d="M74 1358v16q0 25 8 41l16 21q25 23 43 32q23 16 47 25q16 6 45 10q14 0 21 2h16q6 -2 17 -2q20 -2 37 -16q31 -25 30 -25q6 -8 15 -14q12 -14 20 -35l4 -16l2 -4q0 -18 -6 -39l-20 -41l-4 -6l-7 -7l-12 -16l-6 -4l-14 -8q-25 -10 -52 -12q-10 -2 -28 -3q-43 -6 -39 -6 q-6 -2 -19 -2q-10 0 -38 8q-29 8 -44 19q-14 12 -22 31q-8 16 -8 34q-2 6 -2 17zM559 1337v17q0 25 8 41l17 20q25 23 43 33q23 16 47 25q16 6 45 10q14 0 20 2h17q6 -2 16 -2q20 -2 37 -17q31 -25 31 -24q6 -8 14 -15q12 -14 20 -34l7 -21q0 -18 -7 -39l-20 -41 q-12 -18 -23 -28q-16 -10 -45 -19q-33 -8 -55 -8q-43 -6 -39 -6q-6 -2 -18 -2q-10 0 -39 8t-43 18q-14 12 -23 31q-8 16 -8 35q-2 6 -2 16z" />
<glyph unicode="&#xa9;" horiz-adv-x="452" d="M59 1483v16q0 25 9 41q8 14 36 39l21 14q20 14 49 25q12 4 45 10l37 2q6 -2 16 -2q20 -2 37 -16l31 -25q6 -8 14 -14q12 -14 21 -35l6 -20q0 -16 -6 -39l-21 -41q-18 -27 -22 -29q-16 -10 -45 -18q-37 -8 -56 -9q-43 -6 -38 -6q-6 -2 -19 -2q-8 0 -41 8q-27 6 -41 19 q-14 12 -22 31q-8 16 -9 34q-2 6 -2 17zM72 1499l2 -14v-12q0 -10 4 -27q2 -12 14 -21q6 -10 25 -16l12 -8q18 -8 47 -8q16 0 27 2l26 4h13h12q8 0 25 4q14 2 30 14q4 2 13 10l12 13q8 8 24 33q8 20 9 34v9q-4 27 -11 36q-10 16 -24 29l-17 8l-18 8q-4 2 -27 13q-8 4 -28 4 h-9q-8 0 -10 -2q-16 -4 -20 -4q-18 0 -33 -11l-31 -16l-20 -12q-10 -6 -31 -27q-14 -18 -14 -33zM143 1493q0 33 15 57q10 18 41 29q14 6 30 6l19 -2q23 -4 22 -22q0 -8 -8 -21q-8 -8 -14 -8h-4l-25 4q-6 0 -8 -2q-16 -6 -16 -37q0 -10 4 -18q6 -8 12 -9h6l25 7q2 2 6 2 t6 -2q10 -4 10 -23q0 -17 -14 -27q-10 -10 -33 -10q-74 4 -74 76z" />
<glyph unicode="&#xaa;" horiz-adv-x="417" d="M41 1006q0 16 2 26q0 31 10 51q10 27 31 45q45 31 80 35q10 0 31 -4l30 -8h2q4 0 9 10q2 4 2 19q0 23 -13 37q-8 14 -30 20h-11h-20l-51 -2q-8 -2 -19 -2h-10l-10 -2q-31 0 -31 35v4q0 16 8 27.5t21 13.5l63 8q31 6 62 6q35 0 59 -8q57 -16 84 -82q10 -31 14 -84l6 -217 q0 -12 -22 -25q-14 -8 -31 -8q-10 0 -14 2q-25 6 -25 33v8l-2 4q-2 0 -2 2q-8 0 -28 -14q-25 -16 -43 -18h-21q-10 -2 -35 -3q-45 0 -69 23q-27 23 -27 68zM123 1026q0 -2 4 -6q8 -14 27 -25q8 -4 14 -4q12 0 31 13q35 25 34 51v6q-10 29 -45 33h-8q-35 0 -51 -25 q-6 -12 -6 -31v-12z" />
<glyph unicode="&#xab;" horiz-adv-x="1038" d="M-18 504q0 6 2 10q-2 -2 4 10l6 17q4 8 45 71q12 18 67 84q27 33 46 49l22 23q27 33 66 66l69 63q39 35 56 45q18 12 24 12t21 -26q33 -78 36 -129v-11q0 -20 -8 -36q-43 -45 -159 -148q-47 -39 -123 -88q119 -43 268 -121q74 -39 100 -57q20 -12 35 -64q10 -39 10 -88 v-34q0 -14 -2 -17h-4q-8 0 -33 10q-49 18 -165 84q-117 63 -183 107q-49 31 -100 72q-53 38 -76 61q-16 16 -22 31zM428 569l2 6q0 4 14 15q0 4 13 12q16 12 28 25q35 29 82 57l117 66q25 12 31 12q49 25 180 82q37 14 72 24q43 6 30 6q4 0 6.5 -3t3.5 -12t1 -15 q0 -88 -11 -127q-10 -33 -26 -41q-80 -41 -211 -90q-70 -27 -152 -47q100 -76 221 -185q31 -31 76 -80q12 -12 13 -41q0 -18 -3 -28q-4 -27 -22 -84l-12 -29q-4 -8 -11 -14h-2q-4 0 -26 18q-70 53 -133 121q-102 106 -142 150l-43 49l-30 43q-18 23 -31 43l-21 35 q-14 23 -14 32z" />
<glyph unicode="&#xad;" horiz-adv-x="851" d="M59 598q1 33 54 94q16 16 32 41q4 4 31 10q27 4 170 17q70 6 223 10q121 0 176 -8q29 -4 40.5 -14.5t13.5 -34.5q0 -55 -23 -107q-2 -4 -8 -18.5t-15.5 -22.5t-33.5 -12q-51 -8 -168 -8q-113 0 -223 6q-162 8 -189 12q-6 0 -27.5 3t-37 9.5t-15.5 22.5z" />
<glyph unicode="&#xae;" horiz-adv-x="534" d="M74 1466v15q0 35 12 55q6 12 43 45l25 18q23 16 57 31l33 6q14 0 22 2q29 4 45 4t43 -10q18 -8 41 -26l17 -15q22 -23 30 -37q16 -29 19 -47q0 -23 -8 -45q-16 -37 -25 -51q-18 -29 -27 -35q-20 -12 -53 -22q-27 -8 -67 -8l-25 -5l-23 -4q-6 -2 -20 -2q-27 0 -49 8 q-27 8 -49 25q-14 10 -29 37q-8 16 -8 41zM90 1468q2 -6 2 -16q0 -12 4 -29q4 -14 17 -28q4 -2 28 -19l17 -8q16 -8 43 -8h14q20 0 31 2q20 0 33 2q4 2 14 2h16q12 0 29 4q31 12 37 19q6 2 16 12l12 12l17 21q16 20 22 43q2 4 2 14q0 29 -12 59q-12 20 -31 33q-8 6 -43 21 l-14 6q-14 8 -33 12q-6 2 -18 2h-10q-4 -2 -13 -2l-12 -4q-4 -2 -12 -2q-14 0 -39 -12q-12 -8 -19 -11q-14 -10 -16 -10q-29 -12 -47 -31q-20 -20 -27 -34q-8 -14 -8 -35v-15zM203 1548v6q0 10 8 13l8 2l12 4l13 4q4 2 12 2q35 0 53 -12t21 -39q0 -12 -15 -27 q-16 -16 -24 -16q6 0 8 -2l6 -4l4 -4l4 -7q8 -8 13 -20q6 -14 6 -35l-2 -8h-4q-12 -4 -19 -4h-6q-2 0 -6 6q-10 27 -19 41q-10 14 -16 14h-2q-4 0 -4 -6q0 -4 4 -12q0 -8 4 -21v-10q0 -6 -6 -8q-18 -6 -33 -6q-16 0 -16 24v13q0 100 -4 112zM248 1507q0 -6 4 -6h4 q12 0 25 12q12 10 12 19q0 12 -17 14q-4 2 -10 2q-12 0 -16 -12q-2 -2 -2 -8v-8v-13z" />
<glyph unicode="&#xb0;" horiz-adv-x="448" d="M63 1176q0 53 21 94q23 45 63 65q29 14 58 15q39 0 80 -13q49 -18 69 -47q33 -38 43 -63q12 -37 13 -84q0 -104 -62 -152q-25 -18 -65 -26q-43 -12 -82 -13q-61 0 -97 49q-27 33 -36 125q-4 37 -5 50zM174 1186q0 -20 8 -35q10 -23 28.5 -39t37.5 -16q20 0 31 22 q16 33 16 53q0 27 -21 46q-33 20 -55 20q-45 0 -45 -51z" />
<glyph unicode="&#xb1;" horiz-adv-x="1003" d="M119 905l2 13q6 25 39 65q25 31 26 33q4 4 23 28q6 8 57 15q51 6 137 12l3 29q0 23 4 96q0 61 8 88q2 12 10 16q82 20 135 21h15q16 0 23 -6t8 -18.5t1 -18.5v-49v-68q0 -53 -2 -80h97q98 0 141 -8q23 -2 31 -10q16 -18 16 -55q0 -12 -4 -41q-14 -66 -43 -99 q-4 -8 -25 -10q-37 -10 -127 -10q-29 -2 -90 -2l-4 -72l-4 -72q-2 -23 -2 -57q0 -6 -1 -20.5t-5 -21.5t-21 -9h-14q-45 0 -94 12l-51 8q-6 0 -11 25q-4 29 -4 59q0 6 6 154q-33 2 -155 12l-94 10q-31 8 -31 31zM125 352q0 33 53 94q16 16 33 41q4 4 31 11q27 4 170 16 q70 6 223 10q121 0 176 -8q29 -4 40 -14t13 -35q0 -55 -22 -107q-2 -4 -8.5 -18t-15.5 -22.5t-34 -12.5q-51 -8 -168 -8q-113 0 -223 6q-162 8 -188 12q-6 0 -27.5 3.5t-37 9.5t-15.5 22z" />
<glyph unicode="&#xb4;" horiz-adv-x="393" d="M63 1262q0 27 9 51q25 53 49 129q14 47 20 57q33 63 101 64q18 0 28 -2q47 -6 72 -17q27 -12 27 -43q0 -35 -35 -94l-39 -68q-74 -125 -123 -145q-16 -8 -35 -8q-16 0 -31 6q-43 18 -43 70z" />
<glyph unicode="&#xba;" horiz-adv-x="458" d="M63 1176q0 53 21 94q23 45 63 65q29 14 58 15q39 0 80 -13q49 -18 69 -47q33 -38 43 -63q12 -37 13 -84q0 -104 -62 -152q-25 -18 -65 -26q-43 -12 -82 -13q-61 0 -97 49q-27 33 -36 125q-4 37 -5 50zM174 1186q0 -20 8 -35q10 -23 28.5 -39t37.5 -16q20 0 31 22 q16 33 16 53q0 27 -21 46q-33 20 -55 20q-45 0 -45 -51z" />
<glyph unicode="&#xbb;" horiz-adv-x="1038" d="M-18 227q0 43 10 90q10 31 26 39q80 41 211 90q70 27 152 48q-100 76 -221 184q-31 31 -76 80q-10 10 -10 35q0 23 2 34q6 43 22 84l13 31q2 6 8 12h2q4 0 26 -16q86 -70 136 -121l139 -149l43 -52q20 -29 33 -43q20 -29 28 -43l21 -32q14 -27 14 -35l-2 -6q0 -4 -14 -15 q0 -2 -13 -12q-16 -12 -28 -24q-35 -29 -82 -58q-61 -37 -117 -63q-23 -14 -31 -15q-86 -41 -180 -80q-39 -18 -71 -24q-23 -6 -31 -6t-8 22v8zM420 848v33q0 14 2 16h4q4 0 33 -8q61 -27 168 -84q86 -49 182 -109q31 -20 98 -69q62 -50 76 -64q16 -16 23 -31l2 -4 q0 -6 -2 -8l-5 -12l-6 -14q-2 -6 -45 -72q-14 -20 -65 -86l-45 -49l-25 -23q-25 -29 -63 -65l-70 -62q-29 -27 -55 -45q-25 -14 -27 -14q-6 0 -18 28q-31 61 -37 127v17q0 18 6 31q51 53 162 147q41 37 121 88q-119 43 -269 121q-74 39 -100 57q-20 12 -35 64q-10 39 -10 90 z" />
<glyph unicode="&#xbf;" horiz-adv-x="1062" d="M39 313q0 94 67 215q70 121 150 191q16 16 16 55q0 35 -14 92l-25 90q-10 37 -10 80q0 88 47 99q47 12 111 12q18 -2 53 -2l19 -2l10 2h12q61 0 76 -58l27 -102q8 -35 8 -61q4 -41 8 -66q2 -12 2 -35q0 -45 -12 -80q-10 -27 -23 -38q-100 -72 -149.5 -154t-49.5 -156 q0 -25 3 -35q10 -53 45.5 -84.5t91.5 -31.5q41 0 86 18q63 27 129 105q57 72 84 90q6 4 16 4q12 0 19 -4q16 -8 38 -49q41 -80 76 -125q33 -43 35 -78v-8q0 -31 -11 -50.5t-40 -44.5q-109 -92 -203 -137q-86 -41 -235 -53q-18 -2 -54 -2q-160 0 -264 104q-98 96 -137 275z M188 1389q0 35 9 61q12 43 74.5 70.5t131.5 27.5q23 0 60 -8q63 -20 63 -137q0 -45 -9 -84t-21 -47q-23 -16 -90 -27q-41 -8 -76 -8h-13q-33 2 -49 10q-53 12 -75 90q-5 38 -5 52z" />
<glyph unicode="&#xc0;" horiz-adv-x="1288" d="M45 211q0 27 12 76q8 39 58 190q133 393 180 549l78 260q12 41 39 117q25 63 43 92q14 20 23 27.5t34 11.5q35 6 119 10q51 0 92 4h33h41h69l49 -6l9 -2q37 -8 62.5 -43t25.5 -92v-16q-2 -25 -2 -74q0 -197 57 -510l51 -277q23 -125 27 -227q0 -10 4 -51l8 -64l6 -59 q2 -11 2 -25q0 -18 -18 -34q-29 -29 -82 -45q-29 -8 -49 -13q-86 -10 -115 -10l-29 2q-18 0 -30 4l-17 4q-41 6 -68.5 41t-27.5 96q0 12 4 46q12 57 12 104q0 31 -6 55q-18 72 -69 72q-31 0 -66 -29q-49 -43 -90 -131q-37 -80 -91 -142.5t-95 -70.5q-20 -4 -31 -4 q-53 0 -135 43q-43 25 -62 39q-4 2 -20.5 14.5t-23.5 23.5t-9 28q-2 4 -2 16zM471 1905q0 31 27 43q25 10 71 16q10 2 29 2q68 0 100 -63q6 -10 21 -58q25 -76 49 -129q8 -25 8 -51q0 -51 -43 -70q-14 -6 -31 -6q-53 0 -98 66q-37 51 -57 88l-41 67q-35 59 -35 95zM588 842 q8 -86 78 -92h6q66 0 100 104q27 79 27 145q0 31 -6 58q-8 39 -41 43h-4q-37 0 -89 -64q-27 -31 -49 -85t-22 -95v-14z" />
<glyph unicode="&#xc1;" horiz-adv-x="1288" d="M45 193v10q0 25 12 80q10 45 58 188l106 336q35 98 117 360l31 105q12 41 39 117q23 59 43 90q12 18 22 26t35 13q33 6 117 10q49 0 90 4h33h40h70l49 -6l6 -2q37 -8 62.5 -43t25.5 -92v-17q-4 -57 -4 -86q0 -154 60 -489l49 -275q25 -145 27 -223q0 -10 4 -51l8 -64 l6 -59q2 -11 2 -23q0 -20 -18 -36q-31 -27 -82 -43q-25 -8 -47 -13q-86 -10 -115 -10l-29 2q-16 0 -28 4t-19 4q-41 6 -67.5 40t-26.5 95q0 12 4 45q12 59 12 103q0 31 -6 55q-18 72 -67 72q-31 0 -66 -29q-49 -43 -88 -129q-39 -80 -92 -141.5t-94 -71.5q-8 -2 -25 -2 q-61 0 -139 43q-37 18 -62 37q-6 4 -21.5 15.5t-22.5 22.5t-9 28zM580 834q12 -86 79 -93h7q63 0 98 105q27 84 27 145q0 29 -7 53q-8 39 -41 43h-4q-39 0 -86 -63q-27 -33 -50 -85t-23 -91v-14zM680 1665q0 27 8 51q25 53 49 129q14 47 21 58q33 63 100 63q18 0 29 -2 q47 -6 71 -16q27 -12 27 -43q0 -35 -35 -95l-39 -67q-74 -125 -123 -146q-16 -8 -34 -8q-14 0 -31 6q-43 19 -43 70z" />
<glyph unicode="&#xc2;" horiz-adv-x="1288" d="M45 199q0 25 12 73q18 80 54 183l106 321q63 190 111 350l30 101l19 61q16 55 39 98q25 55 41 64q14 14 90 18l57 5q47 0 88 4h31h41h65l48 -7l6 -2q37 -6 61.5 -39.5t24.5 -89.5v-16q-4 -57 -4 -88q0 -156 57 -467q10 -59 40 -222t34 -257q0 -10 4 -51l6 -62l6 -55 q2 -11 2 -23q0 -18 -16 -35q-31 -29 -80 -43q-16 -6 -45 -10q-86 -10 -111 -10l-28 2q-14 0 -27 4q-12 4 -19 4q-39 6 -64.5 39t-25.5 88q0 12 4 45q10 61 11 99q0 31 -6 55q-18 70 -66 70q-27 0 -61 -29q-47 -37 -86 -125q-37 -74 -89.5 -134.5t-89.5 -70.5q-8 -2 -26 -2 q-59 0 -131 41q-37 18 -62 37q-2 0 -18.5 11t-22.5 22.5t-8 27.5q-2 4 -2 15zM322 1575q0 27 8 51q25 53 49 129q14 47 20 57q33 63 101 64q18 0 28 -2q47 -6 72 -16q27 -12 27 -43q0 -35 -35 -95l-39 -67q-74 -125 -123 -146q-16 -8 -35 -8q-14 0 -30 6q-43 19 -43 70z M563 803q8 -82 76 -88h6q59 0 94 100q25 69 25 137q0 31 -6 56q-8 37 -39 41h-4q-35 0 -84 -62q-25 -31 -46.5 -81t-21.5 -89v-14zM682 1843q0 31 27 43q25 10 71 17q10 2 29 2q68 0 100 -64q6 -10 21 -57q25 -76 49 -129q8 -25 8 -51q0 -51 -43 -70q-16 -6 -31 -6 q-53 0 -98 65q-37 51 -57 88l-41 68q-35 59 -35 94z" />
<glyph unicode="&#xc3;" horiz-adv-x="1288" d="M45 184v9q0 27 12 77q20 82 54 181l104 319q76 236 109 346l30 98l19 62q16 53 37 96q23 47 41 66q27 14 88 18q39 0 57 2q51 0 88 4h31h39h67l45 -6l8 -2h-4q37 -4 61.5 -37t24.5 -90v-16q-2 -23 -2 -70q0 -174 56 -481l47 -262q25 -137 26 -213q0 -12 4 -49l7 -60 l6 -55q2 -10 2 -23q0 -18 -17 -35q-31 -27 -77 -43q-25 -8 -47 -12q-63 -8 -107 -8l-31 2q-14 0 -26 4q-6 2 -17 2q-90 23 -90 127q0 12 4 45q10 61 11 99q0 31 -7 55q-18 68 -63 67q-27 0 -62 -28q-45 -37 -86 -123q-37 -76 -87 -134.5t-89 -68.5q-8 -2 -26 -2 q-57 0 -129 41q-39 20 -60 37q-4 2 -17 11t-21.5 19.5t-12.5 30.5zM330 1696q0 14 6 22q12 16 51 45t78 45q51 23 82 25q12 2 37 2q51 0 112 -25q41 -18 90 -61q39 -35 50 -35l6 2q20 2 41 27q18 23 32 45q14 25 29 27h10q14 0 31 -9l25 -20l30 -27q18 -12 19 -35 q0 -39 -55 -104q-59 -72 -101 -82q-25 -4 -33 -4q-20 0 -51 10q-41 14 -82 49l-35 25q-39 39 -84 39h-8q-43 -2 -108 -43q-37 -23 -53 -39l-13 -10q-4 -4 -6 -4q-4 0 -6 2t-14 6q-20 16 -39 39q-25 25 -35 59q-6 17 -6 29zM557 797q4 -39 24.5 -63.5t49.5 -26.5 q63 -4 100 100q25 72 25 137q0 28 -6 53q-8 37 -39 41h-4q-35 0 -82 -59q-25 -33 -46.5 -82t-21.5 -86v-14z" />
<glyph unicode="&#xc4;" horiz-adv-x="1288" d="M45 221q0 33 14 82q12 55 60 201l190 583l84 275q25 86 39 123q23 59 47 98q12 20 23.5 27.5t38.5 13.5q37 6 125 10q51 0 96 4h35h45h73l52 -6l8 -2q39 -8 66.5 -46t27.5 -99v-17q-4 -57 -4 -88q0 -168 63 -528q39 -227 54 -293q27 -145 28 -240q0 -10 4 -55l9 -67 l6 -64q2 -13 2 -29t-19 -32q-29 -27 -88 -47q-39 -12 -51 -15q-92 -10 -123 -10l-30 2q-18 0 -31 4q-12 4 -19 4q-102 25 -102 140q0 25 6 53q12 57 12 104q0 29 -8 66q-20 76 -71 76q-33 0 -70 -31q-45 -37 -94 -137q-41 -86 -98.5 -152t-100.5 -76q-20 -4 -31 -4 q-53 0 -143 47q-49 27 -68 41q-2 2 -20.5 14.5t-25.5 24.5t-9 29q-2 4 -2 16zM354 1831v16q0 25 8 41l17 21q25 23 43 33q23 16 47 24q16 6 45 10q14 0 21 2h16q6 -2 16 -2q20 -2 37 -16l31 -25q6 -8 14 -14q12 -14 21 -35l4 -16l2 -4q0 -18 -6 -39l-21 -41l-4 -6l-6 -6 l-12 -17l-6 -4l-15 -8q-25 -10 -51 -12q-10 -2 -29 -2q-43 -6 -39 -7q-6 -2 -18 -2q-10 0 -39 9q-29 8 -43 18q-14 12 -22 31q-8 16 -9 35q-2 6 -2 16zM618 891q12 -92 84 -98h7q31 0 59.5 29.5t46.5 82.5q27 84 27 152q0 35 -6 61q-8 41 -43 45h-5q-39 0 -92 -67 q-29 -35 -53.5 -92.5t-24.5 -98.5v-14zM840 1810v17q0 25 8 41l16 20q25 23 43 33q23 16 47 25q16 6 45 10q14 0 21 2h16q6 -2 17 -2q20 -2 37 -17q31 -25 30 -24q6 -8 15 -14q12 -14 20 -35l6 -21q0 -18 -6 -39l-20 -41q-12 -18 -23 -28q-16 -10 -45 -19q-33 -8 -55 -8 q-43 -6 -39 -6q-6 -2 -19 -2q-10 0 -39 8t-43 19q-14 12 -22 30q-8 16 -8 35q-2 6 -2 16z" />
<glyph unicode="&#xc5;" horiz-adv-x="1196" d="M45 205q0 25 12 74q10 43 58 184l174 536l45 152l51 164q18 59 39 100q25 51 43 66q14 14 90 18l59 4q49 0 91 4h30h41h70l47 -6l6 -2q37 -6 62.5 -41t25.5 -90v-16q-4 -57 -4 -90q0 -162 57 -478q25 -143 50 -270q25 -141 26 -219q0 -12 4 -53q8 -57 13 -119l2 -27 q0 -16 -17 -30q-25 -23 -80 -43q-25 -8 -47 -13q-86 -10 -112 -10l-29 2q-16 0 -29 4q-12 4 -18 4q-41 6 -66.5 40t-25.5 91q0 12 4 45q10 66 10 101q0 33 -6 57q-18 70 -68 70q-29 0 -63 -29q-47 -41 -86 -127q-37 -78 -90.5 -138.5t-91.5 -70.5q-20 -4 -31 -4 q-49 0 -131 43q-37 18 -62 37q-4 4 -19.5 15.5t-22.5 21.5t-9 26q-2 4 -2 17zM541 1782q0 53 20 94q23 45 64 66q29 14 57 14q41 0 80 -12q49 -18 69 -48q33 -39 43 -63q12 -37 13 -84q0 -104 -62 -152q-25 -18 -65 -26q-43 -12 -82 -12q-63 0 -96 49q-27 33 -37 125 q-4 37 -4 49zM573 819q12 -84 78 -90h6q59 0 97 102q26 76 26 142q0 31 -6 55q-8 39 -41 43q-39 0 -88 -61q-27 -31 -49.5 -84.5t-22.5 -91.5v-15zM651 1792q0 -14 8 -35q10 -23 29 -39t37 -16q20 0 31 22q16 33 16 54q0 27 -20 45q-33 20 -56 20q-45 0 -45 -51z" />
<glyph unicode="&#xc6;" horiz-adv-x="2052" d="M45 221q0 20 14 82q12 55 60 201l190 583l84 275q25 86 39 123q23 59 47 98q12 20 23.5 27.5t38.5 13.5q37 6 125 10q51 0 96 4h35h45h73l52 -6l8 -2q33 -8 57.5 -34.5t32.5 -71.5q41 72 113.5 92t136 23t82.5 3q121 6 221 7h63q139 -4 193 -17q6 -2 22.5 -6t23.5 -14 t19 -35q16 -39 17 -90v-39q0 -35 2 -53q2 -20 2 -52v-30q0 -61 -18 -109q-16 -43 -46 -43q-8 0 -12 2q-119 37 -184 43l-66 4q-63 0 -116 -12q-63 -14 -66 -49l-4 -37l-2 -8l-1 1l-1 1q2 -55 49 -55q12 0 16 -2l9 -2l20 2q55 10 74 10q55 0 55 -49l-2 -15l-8 -69 q-2 -14 -8 -35q-25 -43 -97 -43q-61 6 -104 6q-20 0 -74 -4q-6 -12 -6 -29l2 -18q2 -16 2 -47q0 -109 82 -109q12 0 21 2q16 2 84.5 8.5t140.5 30.5q109 39 151 39q63 0 80 -71.5t17 -127v-57.5q-2 -115 -21 -182l-6 -21q0 -76 -37 -98q-51 -29 -86 -37l-123 -39 q-127 -41 -239 -61q-113 -23 -193 -23h-18q-53 2 -95 17l-6 -2q-39 -12 -51 -15q-92 -10 -123 -10l-30 2q-18 0 -31 4q-12 4 -19 4q-102 25 -102 140q0 25 6 53q12 57 12 104q0 29 -8 66q-20 76 -71 76q-33 0 -70 -31q-45 -37 -94 -137q-41 -86 -98.5 -152t-100.5 -76 q-20 -4 -31 -4q-53 0 -143 47q-49 27 -68 41q-2 2 -20.5 14.5t-25.5 24.5t-9 29zM618 891q12 -92 84 -98h7q31 0 59.5 29.5t46.5 82.5q27 84 27 152q0 33 -6 61q-8 41 -43 45h-5q-41 0 -92 -67q-29 -35 -53.5 -92.5t-24.5 -98.5v-14z" />
<glyph unicode="&#xc7;" horiz-adv-x="1366" d="M51 731q0 303 152 565q53 90 156.5 163t232.5 118q172 61 350 61q70 0 135 -12q111 -20 172.5 -79.5t55.5 -153.5q-10 -104 -88 -195q-78 -88 -150 -88q-16 0 -25 2q-141 31 -219 31q-68 0 -110 -19q-150 -61 -152 -344q0 -223 107 -262q27 -10 65 -10q55 0 174 33 q143 39 191 39q31 0 45 -5q102 -31 100 -229q-2 -172 -135 -264q-106 -74 -272 -82l-5 -8q-61 -111 -122 -195q-55 -82 -125 -82q-16 0 -35 6q-55 23 -55 89q0 27 10 63q31 74 59 156q-227 55 -369.5 223t-142.5 479z" />
<glyph unicode="&#xc8;" horiz-adv-x="1130" d="M106 670q0 37 3 43q4 35 10 121q0 35 8 90q8 57 35 186l31 164q8 68 16 86q31 86 104.5 109.5t136 25.5t74.5 2q143 4 199 4h63q135 -4 175 -14q8 -2 23 -5t22.5 -12.5t15.5 -31.5q14 -31 14 -84v-37q0 -31 2 -47q2 -18 2 -47v-29q0 -66 -16 -100q-18 -39 -43 -39 q-6 0 -10 2q-102 33 -170 39l-60 4q-51 0 -106 -10q-57 -14 -60 -46l-4 -34l-2 -9l-1 1l-1 2q2 -49 45 -50q12 0 15 -2l8 -2q23 0 59 8q10 2 27 3q51 0 51 -43l-2 -15l-8 -63l-6 -33q-20 -39 -88 -39q-57 6 -97 6q-18 0 -67 -4q-6 -12 -6 -27l2 -16q2 -14 2 -43 q0 -100 76 -100l18 2l92 10q53 4 115 25q102 37 139 36q57 0 72.5 -64.5t15.5 -160.5v-10q-2 -90 -18 -166l-6 -20q0 -68 -35 -91q-41 -23 -78 -32q-10 -4 -113 -35q-94 -33 -219 -58q-109 -20 -178 -20h-16q-248 12 -248 291v41l-4 74q-2 29 -2 92l-4 94q-2 29 -3 78z M369 1884q0 31 26 43q25 10 72 17q10 2 29 2q68 0 100 -64q6 -10 20 -57q25 -76 50 -129q8 -25 8 -51q0 -51 -43 -70q-14 -6 -31 -6q-53 0 -98 65q-37 51 -58 88l-41 68q-35 59 -34 94z" />
<glyph unicode="&#xc9;" horiz-adv-x="1069" d="M45 682q0 10 6 121l4 49q0 39 11 90l34 191l31 167q8 70 16 89q33 82 106 106.5t136.5 27.5t79.5 3q113 6 207 6h59q127 -4 180 -14q6 -2 22.5 -6.5t24 -13.5t17.5 -32q14 -31 14 -86v-37q0 -31 2 -49t2 -47v-28q0 -61 -18 -103q-18 -39 -43 -39q-6 0 -10 2 q-106 33 -172 39l-62 4q-53 0 -108 -10q-61 -14 -62 -47l-4 -35l-2 -8l-1 1l-1 1q2 -51 45 -51q12 0 16 -2l9 -2l18 2q51 10 70 10q51 0 51 -45l-2 -14l-8 -66q-2 -12 -8 -33q-23 -41 -91 -41q-59 6 -98 6q-18 0 -67 -4q-6 -12 -7 -26l2 -17q2 -14 2 -45q0 -100 76 -100 q12 0 21 2l94 10q49 2 117 27q104 35 141 35q57 0 73.5 -66.5t16.5 -163.5v-10q-2 -94 -18 -170l-6 -18v-240v240q0 -74 -35 -92q-37 -23 -82 -35l-49 -17l-64 -20q-121 -37 -225 -58q-109 -20 -180 -20h-17q-254 14 -254 297v41l-4 76q-2 31 -2 94q-2 33 -2 94q-2 31 -2 80 zM516 1655q0 27 8 51q25 53 49 129q14 47 21 57q33 63 100 64q18 0 29 -2q47 -6 72 -17q27 -12 26 -43q0 -35 -35 -94l-38 -67q-74 -125 -123 -146q-16 -8 -35 -8q-14 0 -31 6q-43 19 -43 70z" />
<glyph unicode="&#xca;" horiz-adv-x="1130" d="M45 682q0 8 6 119l4 49q0 41 11 90l34 190l31 170q8 68 16 86q33 84 105 108t135.5 27t79.5 3q115 6 209 6h59q123 -4 178 -14q6 -2 22.5 -6.5t24 -13.5t17.5 -32q14 -31 14 -86v-37q0 -31 2 -49t2 -47v-28q0 -57 -18 -101q-16 -41 -43 -41q-6 0 -10 2q-119 37 -172 39 l-62 4q-53 0 -108 -10q-59 -14 -62 -47l-4 -33l-2 -8l-2 2q2 -53 47 -53q10 0 14 -2h5q23 0 63 8q10 2 29 2q51 0 51 -45l-2 -14l-8 -66q-2 -25 -6 -31q-25 -41 -91 -41q-59 6 -98 6q-18 0 -67 -4q-6 -12 -7 -26l2 -17q2 -16 2 -45q0 -102 76 -102l19 2q14 2 78.5 8 t132.5 29q102 37 141 37q57 0 73.5 -66.5t16.5 -163.5v-10q-2 -94 -18 -170l-7 -18v-240v240q0 -74 -34 -92q-37 -23 -80 -35l-49 -17l-66 -20q-117 -37 -223 -58q-113 -20 -182 -20h-17q-252 16 -252 297v41l-4 76q-2 29 -2 94q-2 33 -2 94q-2 31 -2 80zM201 1624 q0 27 8 51q25 53 49 129q14 47 21 58q33 63 100 63q18 0 29 -2q47 -6 71 -16q27 -12 27 -43q0 -35 -35 -95l-39 -67q-74 -125 -123 -146q-16 -8 -35 -8q-14 0 -30 6q-43 19 -43 70zM561 1892q0 31 27 43q25 10 71 17q10 2 29 2q68 0 100 -64q6 -10 21 -57q25 -76 49 -129 q8 -25 8 -51q0 -51 -43 -70q-16 -6 -30 -6q-53 0 -99 65q-37 51 -57 89l-41 67q-35 59 -35 94z" />
<glyph unicode="&#xcb;" horiz-adv-x="1130" d="M45 729q0 41 2 49l10 131q0 45 11 99q0 8 14 79l22 123q18 86 33 181q12 76 19 94q33 90 110.5 115.5t146 28.5t87.5 3q119 6 221 6h63q139 -4 193 -16q6 -2 22.5 -6t23.5 -14.5t19 -34.5q16 -39 17 -90v-39q0 -35 2 -54q2 -20 2 -51v-30q0 -63 -19 -109q-16 -43 -45 -43 q-8 0 -12 2q-121 37 -184 43l-66 4q-66 0 -116 -12q-63 -14 -66 -49l-4 -37l-2 -8l-1 1l-1 1q2 -55 49 -56q12 0 16 -2q0 -2 9 -2q12 0 20 2q55 10 74 11q55 0 55 -50l-2 -14l-8 -70q-2 -16 -8 -34q-25 -43 -97 -43q-61 6 -104 6q-20 0 -74 -4q-6 -12 -6 -29l2 -18 q2 -16 2 -48q0 -109 82 -108q12 0 21 2q16 2 84.5 8t140.5 31q109 39 151 39q63 0 80 -72t17 -127v-57q-2 -115 -21 -182l-6 -21q0 -78 -37 -98q-53 -29 -86 -37l-123 -39q-127 -41 -239 -61q-113 -23 -193 -23h-18q-270 14 -271 317v45l-4 80q-2 31 -2 101l-4 102 q-2 31 -2 84zM219 1806v17q0 25 8 41l17 20q25 23 43 33q23 16 47 25q16 6 45 10q14 0 20 2h17q6 -2 16 -2q20 -2 37 -17q31 -25 31 -24q6 -8 14 -15q12 -14 21 -34l4 -17l2 -4q0 -18 -6 -39l-21 -41l-4 -6l-6 -6l-12 -16l-7 -4l-14 -9q-25 -10 -51 -12q-10 -2 -29 -2 q-43 -6 -39 -6q-6 -2 -18 -2q-10 0 -39 8t-43 18q-14 12 -23 31q-8 16 -8 35q-2 6 -2 16zM705 1786v16q0 25 8 41l16 21q25 23 43 32q23 16 47 25q16 6 45 10q14 0 21 2h16q6 -2 17 -2q20 -2 36 -16l31 -25q6 -8 14 -14q12 -14 21 -35l6 -20q0 -18 -6 -39l-21 -41 q-12 -18 -22 -29q-16 -10 -45 -18q-33 -8 -55 -8q-43 -6 -39 -7q-6 -2 -19 -2q-10 0 -39 9q-29 8 -43 18q-14 12 -22 31q-8 16 -8 34q-2 7 -2 17z" />
<glyph unicode="&#xcc;" horiz-adv-x="667" d="M74 219q-1 61 24 141q23 74 39 179l29 170q8 51 8 65q4 66 9 93.5t20.5 39t52.5 11.5q33 0 66 -9q76 -4 118 -10q45 -8 56 -100q27 -289 26 -424v-29l-2 -196q0 -92 -22.5 -121t-87.5 -29q-33 0 -52 2q-147 6 -215.5 48t-68.5 169zM98 1374q0 31 27 43q25 10 72 17 q10 2 28 2q68 0 101 -64q6 -10 20 -57q25 -76 49 -129q8 -25 8 -51q0 -51 -43 -70q-16 -6 -30 -6q-53 0 -99 65q-37 51 -57 88l-41 68q-35 59 -35 94z" />
<glyph unicode="&#xcd;" horiz-adv-x="622" d="M43 219q0 61 25 141q23 74 38 179l29 170q8 51 8 65q4 66 9.5 93.5t20.5 39t52 11.5q33 0 66 -9q76 -4 119 -10q45 -8 55 -100q27 -289 27 -424v-29l-3 -196q0 -92 -22.5 -121t-87.5 -29q-33 0 -51 2q-147 6 -216 48t-69 169zM266 1135q0 27 8 51q25 53 50 129 q14 47 20 57q33 63 100 64q18 0 29 -2q47 -6 72 -17q26 -12 26 -43q0 -35 -34 -94l-39 -68q-74 -125 -123 -145q-16 -8 -35 -8q-16 0 -31 6q-43 18 -43 70z" />
<glyph unicode="&#xce;" horiz-adv-x="667" d="M-14 1227q0 27 8 51q25 53 49 129q14 47 20 57q33 63 101 64q18 0 29 -2q47 -6 71 -17q27 -12 27 -43q0 -35 -35 -94l-39 -67q-74 -125 -123 -146q-16 -8 -35 -8q-14 0 -30 6q-43 18 -43 70zM51 244q0 65 29 157q27 90 43 197l29 188q10 76 10 74q4 76 10 105.5t23.5 42 t58.5 12.5q33 0 74 -8l65 -6l66 -7q49 -12 61 -110q31 -295 31 -473v-31l-4 -219q0 -102 -25.5 -134t-99.5 -32q-35 0 -55 2q-106 4 -173 23.5t-105 70.5t-38 148zM346 1495q0 31 27 43q25 10 71 16q10 2 29 2q68 0 100 -63q6 -10 21 -57q25 -76 49 -129q8 -25 8 -52 q0 -51 -43 -69q-14 -6 -30 -6q-53 0 -99 65q-37 51 -57 88l-41 68q-35 59 -35 94z" />
<glyph unicode="&#xcf;" horiz-adv-x="667" d="M-49 1292v17q0 25 8 41l16 20q25 23 43 33q23 16 48 24q16 6 45 11q14 0 20 2h16q6 -2 17 -2q20 -2 37 -17q31 -25 30 -24q6 -8 15 -15q12 -14 20 -34l4 -17l2 -4q0 -18 -6 -39l-20 -41l-4 -6l-6 -6l-13 -16l-6 -5l-14 -8q-25 -10 -51 -12q-10 -2 -29 -2q-43 -6 -39 -6 q-6 -2 -18 -2q-10 0 -39 8t-43 18q-14 12 -23 31q-8 16 -8 35q-2 6 -2 16zM51 244q0 66 29 157q27 88 43 197l29 188q10 76 10 74q4 76 10 105.5t23.5 42t58.5 12.5q33 0 74 -8l65 -6l66 -7q49 -12 61 -110q31 -295 31 -473v-31l-4 -219q0 -102 -25.5 -134t-99.5 -32 q-35 0 -55 2q-106 4 -173 23.5t-105 70.5t-38 148zM436 1272v16q0 25 8 41l17 21q25 23 43 32q23 16 47 25q16 6 45 10q14 0 20 2h17q6 -2 16 -2q20 -2 37 -16l31 -25q6 -8 14 -14q12 -14 21 -35l6 -20q0 -18 -6 -39l-21 -41q-12 -18 -22 -29q-16 -10 -45 -18q-33 -8 -56 -9 q-43 -6 -39 -6q-6 -2 -18 -2q-10 0 -39 8t-43 19q-14 12 -23 31q-8 16 -8 34q-2 6 -2 17z" />
<glyph unicode="&#xd1;" horiz-adv-x="1417" d="M55 1356v94q8 68 117 90q35 8 70 8l28 -2q14 -2 39 -2q41 0 58 -18l12 -25l16 -33q143 -229 269 -385q25 -37 81 -102l60 -70q53 -61 80 -73q6 -4 16 -4q25 0 25 47v10l-4 57q-14 102 -17 146q-18 164 -22 198l-21 109q-10 45 -10 55q0 100 211 123q57 4 76 4q39 0 53 -2 l25 -4q92 0 92 -113v-1114q0 -98 -2 -125q-4 -45 -7 -47q-20 -78 -206 -94q-51 -6 -95 -6q-90 0 -131 41q-33 33 -82 121q-51 84 -141 194l-80 88q-35 35 -47 35h-2q-43 -8 -43 -98q0 -10 8 -51l6 -37l11 -49q4 -31 22 -93q12 -45 12 -75q0 -51 -61 -64q-29 -6 -74 -22 q-96 -43 -159 -62q-25 -6 -45 -6q-47 0 -76 39q-20 27 -25 90l-10 225q-12 283 -23 766zM274 1765q0 14 7 23q12 16 51 45t78 45q51 23 82 25q12 2 36 2q51 0 113 -25q41 -18 90 -61q39 -35 49 -35l6 2q20 2 41 26q18 23 33 46q14 25 29 26h10q14 0 31 -8l24 -21l31 -26 q18 -12 19 -35q0 -39 -56 -104q-59 -72 -100 -82q-25 -4 -33 -4q-20 0 -51 10q-41 14 -82 49l-35 25q-39 39 -84 38h-8q-43 -2 -109 -43q-37 -23 -53 -38l-12 -11q-4 -4 -6 -4q-4 0 -6 2t-15 6q-20 16 -39 39q-25 25 -34 60q-7 16 -7 28z" />
<glyph unicode="&#xd2;" horiz-adv-x="1441" d="M78 848q0 219 76 375q78 166 243 247q113 57 224 58q162 0 303 -51q176 -63 266 -177q117 -143 160 -247q53 -129 53 -322q0 -393 -234 -575q-86 -66 -258 -109q-168 -43 -311 -43q-231 0 -371 184q-43 59 -73.5 147.5t-48 210.5t-17.5 128q-12 96 -12 174zM397 1892 q0 31 27 43q25 10 72 17q10 2 28 2q68 0 101 -64q6 -10 20 -57q25 -76 49 -129q8 -25 8 -51q0 -51 -43 -70q-16 -6 -30 -6q-53 0 -99 65q-37 51 -57 89l-41 67q-35 59 -35 94zM502 893q0 -68 24 -123q43 -88 116 -150.5t140 -62.5q78 0 121 80q62 115 62 201q0 104 -84 178 q-123 76 -211 76q-82 0 -125 -58.5t-43 -140.5z" />
<glyph unicode="&#xd3;" d="M59 813q0 217 74 369q76 162 234 239q117 55 217 56q145 0 293 -52q170 -59 258 -168q118 -153 155 -241q51 -127 51 -311q0 -381 -227 -558q-86 -63 -250 -104q-162 -43 -301 -43q-225 0 -358 178q-61 82 -87 185.5t-48 285.5q-10 98 -11 164zM467 862q0 -61 27 -121 q39 -84 110.5 -144t136.5 -60q74 0 115 75q59 113 59 197q0 102 -79 172q-117 72 -207 72q-80 0 -121 -55.5t-41 -135.5zM547 1610q0 27 8 51q25 53 49 129q14 47 21 57q33 63 100 64q18 0 29 -2q47 -6 71 -17q27 -12 27 -43q0 -35 -35 -94l-39 -67q-74 -125 -123 -146 q-16 -8 -34 -8q-14 0 -31 6q-43 18 -43 70z" />
<glyph unicode="&#xd4;" d="M59 805q0 199 70 344q74 154 229 233q106 53 211 54q145 0 285 -50q164 -59 252 -163q112 -146 151 -234q49 -123 50 -303q0 -373 -222 -543q-80 -61 -241 -102q-164 -41 -295 -41q-217 0 -348 174q-59 78 -83 178.5t-46 278.5q-12 96 -13 174zM207 1524q0 27 8 51 q25 53 49 129q14 47 21 57q33 63 100 64q18 0 29 -2q47 -6 71 -17q27 -12 27 -43q0 -35 -35 -94l-39 -67q-74 -125 -123 -146q-16 -8 -34 -8q-16 0 -31 6q-43 18 -43 70zM457 840q0 -63 24 -119q39 -82 108.5 -140.5t133.5 -58.5q74 0 113 74q57 102 57 188q0 96 -78 168 q-119 74 -203 74q-76 0 -115.5 -54t-39.5 -132zM567 1792q0 31 27 43q25 10 72 16q10 2 28 2q68 0 101 -63q6 -10 20 -57q25 -76 49 -129q8 -25 8 -52q0 -51 -43 -69q-14 -6 -30 -6q-53 0 -99 65q-37 51 -57 88l-41 68q-35 59 -35 94z" />
<glyph unicode="&#xd5;" horiz-adv-x="1335" d="M59 766q0 197 68 338q74 152 221 225q104 51 203 51q139 0 274 -47q160 -55 242 -157q108 -140 145 -226q47 -117 48 -291q0 -360 -211 -522q-78 -57 -234 -98q-150 -39 -285 -39q-209 0 -333 168q-39 53 -68 132t-44 190.5t-15 117.5q-10 96 -11 158zM246 1577 q0 14 6 22q12 16 51 46q39 29 78 45q51 23 82 24q12 2 37 2q51 0 112 -24q41 -18 90 -62q39 -35 50 -35l6 2q20 2 41 27q18 23 32 45q14 25 29 27h10q14 0 31 -8l25 -21l30 -27q18 -12 19 -34q0 -39 -55 -105q-59 -72 -101 -82q-25 -4 -33 -4q-20 0 -51 10q-41 14 -82 50 l-35 24q-39 39 -83 39h-9q-43 -2 -108 -43q-37 -23 -53 -39l-13 -10q-4 -4 -6 -4q-4 0 -6 2t-14 6q-20 16 -39 39q-25 25 -35 59q-6 17 -6 29zM440 807q0 -59 25 -113q37 -80 103.5 -136t127.5 -56q70 0 111 71q55 103 55 183q0 92 -76 159q-111 70 -192 70q-76 0 -115 -51 t-39 -127z" />
<glyph unicode="&#xd6;" d="M61 911q0 236 80 400q86 178 260 266q125 61 242 61q168 0 326 -55q190 -72 286 -188q127 -160 172 -267q58 -135 58 -346q0 -426 -252 -618q-90 -70 -277 -117q-184 -47 -335 -47q-250 0 -398 199q-68 90 -96.5 204.5t-52.5 317.5q-12 102 -13 190zM313 1804v17 q0 25 9 41l16 20q25 23 43 33q23 16 47 24q16 6 45 11q14 0 21 2h16q6 -2 16 -2q20 -2 37 -17q31 -25 31 -24q6 -8 14 -15q12 -14 21 -34l4 -17l2 -4q0 -18 -6 -39l-21 -41l-4 -6l-6 -6l-12 -16l-6 -5l-15 -8q-25 -10 -51 -12q-10 -2 -29 -2q-43 -6 -39 -6q-6 -2 -18 -2 q-10 0 -39 8t-43 18q-14 12 -22 31q-8 16 -9 35q-2 6 -2 16zM514 958q0 -72 29 -135q45 -94 123.5 -160.5t152.5 -66.5q80 0 127 84q68 119 68 217q0 111 -90 190q-135 82 -230 82q-88 0 -134 -61t-46 -150zM799 1784v16q0 25 8 41l16 21q25 23 43 32q23 16 47 25 q16 6 45 10q14 0 21 2h16q6 -2 17 -2q20 -2 37 -16q31 -25 30 -25q6 -8 15 -14q12 -14 20 -35l6 -20q0 -18 -6 -39l-20 -41q-12 -18 -23 -29q-16 -10 -45 -18q-33 -8 -55 -9q-43 -6 -39 -6q-6 -2 -19 -2q-10 0 -39 8t-43 19q-14 12 -22 31q-8 16 -8 34q-2 7 -2 17z" />
<glyph unicode="&#xd8;" d="M61 911q0 236 80 400q86 178 260 266q125 61 242 61q129 0 258 -34l45 92q23 53 69 77.5t99 24.5h14q47 -2 93 -16q39 -12 39 -19v-4q0 -29 -33 -112q-27 -68 -68 -162q57 -41 96 -90q127 -160 172 -267q58 -135 58 -346q0 -426 -252 -618q-90 -70 -277 -117 q-184 -47 -335 -47q-98 0 -181 31q-82 -133 -106 -133h-2q-16 8 -39 43q-6 29 -6 57q0 45 14 115q-41 37 -78 86q-68 90 -96.5 204.5t-52.5 317.5q-12 100 -13 190zM514 956q0 -70 29 -133l10 -18q72 176 152 364q-92 4 -141.5 -58.5t-49.5 -154.5zM754 608q33 -12 65 -12 q80 0 127 84q68 119 68 217q0 82 -51 150q-131 -281 -209 -439z" />
<glyph unicode="&#xd9;" horiz-adv-x="1390" d="M51 983v64q0 41 4 143l4 76q2 25 2 67q4 49 70 76l111 31q113 35 168 35q29 0 45 -9q49 -27 49 -104v-12q-2 -27 -2 -66q0 -41 2 -70v-92v-104v-98q-2 -35 -2 -103q0 -125 29.5 -191.5t117.5 -66.5l25 2q125 12 168 144q23 72 22 157q0 72 -16 160q-12 63 -45 170 q-35 115 -51 139q-16 23 -19 45v8q0 47 96 97q43 29 70 30q20 2 70 19q57 12 88 12q63 0 108 -31q39 -27 49 -106q12 -129 48 -254q76 -264 75 -463q0 -74 -8 -137q-45 -369 -321 -500q-104 -51 -254 -51q-154 0 -301 49q-195 61 -291 270q-80 174 -105 486q-6 86 -6 178z M387 1837q0 31 27 43q25 10 71 16q10 2 29 2q68 0 100 -63q6 -10 21 -57q25 -76 49 -129q8 -25 8 -52q0 -51 -43 -69q-16 -6 -31 -6q-53 0 -98 65q-37 51 -57 88l-41 68q-35 59 -35 94z" />
<glyph unicode="&#xda;" horiz-adv-x="1486" d="M51 1044v68q0 45 2 72l4 80l4 82q2 27 2 71q2 51 74 80q39 10 117 35q125 37 182 37q29 0 45 -8q53 -31 54 -109v-18q-4 -53 -5 -68q0 -43 2 -74v-100v-109v-106q-2 -35 -2 -100q0 -137 33 -210t127 -73l25 2q131 12 178 154q23 74 22 163q0 76 -16 174q-14 76 -47 181 q-39 119 -55 147q-14 18 -21 47v8q0 51 103 105q43 25 75 33q20 4 74 18q43 12 92 12q68 1 115 -30q43 -29 53 -115q16 -150 51 -268q78 -289 78 -490q0 -84 -8 -151q-47 -389 -340 -529q-113 -55 -272 -55q-168 0 -318 51q-211 68 -309 287q-84 184 -113 516q-6 90 -6 190z M602 1649q0 27 8 51q25 53 49 129q14 47 21 57q33 63 100 64q18 0 29 -2q47 -6 72 -17q26 -12 26 -43q0 -35 -35 -94l-38 -68q-74 -125 -123 -145q-16 -8 -35 -8q-14 0 -31 6q-43 18 -43 70z" />
<glyph unicode="&#xdb;" horiz-adv-x="1486" d="M49 850v55q0 35 2 58l8 133v59q0 25 27 44.5t73 32.5t56 15q94 29 147 29q23 0 39 -6q43 -20 43 -86v-17q-4 -45 -4 -55q0 -35 2 -59v-82v-88v-88q-2 -31 -2 -88q0 -109 27 -166.5t104 -57.5h19q106 12 145 127q18 53 19 125q0 70 -13 150q-20 90 -39 147q-20 68 -45 121 q-14 20 -16 37v6q0 43 84 86q41 25 61 27l60 16q41 10 74 10q55 1 96 -26q35 -25 43 -92q8 -113 41 -222q66 -236 65 -399q0 -39 -8 -121q-37 -315 -276 -432q-92 -45 -222 -45q-135 0 -262 41q-168 51 -252 235q-70 147 -90 420q-6 74 -6 156zM197 1468q0 27 8 52 q25 53 49 129q14 47 20 57q33 63 101 63q18 0 28 -2q47 -6 72 -16q27 -12 27 -43q0 -35 -35 -94l-39 -68q-74 -125 -123 -145q-16 -8 -35 -8q-16 0 -30 6q-43 18 -43 69zM557 1737q0 31 27 43q25 10 71 16q10 2 29 2q68 0 100 -63q6 -10 21 -58q25 -76 49 -129q8 -25 8 -51 q0 -51 -43 -70q-14 -6 -31 -6q-53 0 -98 66q-37 51 -57 88l-41 67q-35 59 -35 95z" />
<glyph unicode="&#xdc;" horiz-adv-x="1486" d="M51 1044v68q0 45 2 72l4 80l4 82q2 27 2 71q2 51 74 80q39 10 117 35q125 37 182 37q29 0 45 -8q53 -31 54 -109v-18q-4 -53 -5 -68q0 -43 2 -74v-100v-109v-106l-2 -98q0 -137 33 -211t125 -74l27 2q131 12 178 154q23 74 22 163q0 76 -16 174q-14 76 -47 181 q-39 119 -55 147q-14 18 -21 47v8q0 51 103 105q43 25 75 33q20 2 74 18q43 12 92 12q68 0 115 -30q43 -29 53 -115q16 -150 51 -268q78 -289 78 -490q0 -84 -8 -151q-47 -389 -340 -529q-113 -55 -272 -55q-168 0 -318 51q-211 68 -309 287q-84 184 -113 516q-6 90 -6 190z M285 1796v16q0 25 8 41l16 21q25 23 43 33q23 16 47 24q16 6 45 11q14 0 21 2h16q6 -2 17 -2q20 -2 37 -17q31 -25 30 -24q6 -8 15 -15q12 -14 20 -35l4 -16l2 -4q0 -18 -6 -39l-20 -41l-5 -6l-6 -6l-12 -17l-6 -4l-14 -8q-25 -10 -52 -12q-10 -2 -28 -2q-43 -6 -39 -6 q-6 -2 -19 -2q-10 0 -39 8t-43 18q-14 12 -22 31q-8 16 -8 35q-2 6 -2 16zM770 1776v16q0 25 8 41l17 20q25 23 43 33q23 16 47 25q16 6 45 10q14 0 20 2h17q6 -2 16 -2q20 -2 37 -16l31 -25q6 -8 14 -14q12 -14 20 -35l7 -21q0 -18 -7 -38l-20 -41q-12 -18 -23 -29 q-16 -10 -45 -19q-33 -8 -55 -8q-43 -6 -39 -6q-6 -2 -18 -2q-10 0 -39 8t-43 19q-14 12 -23 30q-8 16 -8 35q-2 7 -2 17z" />
<glyph unicode="&#xe0;" horiz-adv-x="937" d="M66 231q0 16 4 62q14 100 26 129q25 70 80 113q106 82 201 86q35 0 76 -11l77 -20h2q12 0 21 24q6 18 6 43q0 53 -31 101q-23 35 -77 51q-2 2 -25 2q-33 0 -51 -2l-64 -4l-63 -4q-20 -2 -49 -2l-23 -2q-8 -2 -20 -2q-43 0 -64.5 24.5t-21.5 61.5q-2 39 18.5 72.5 t54.5 39.5q215 29 312 35h28q148 0 244 -90q115 -106 123 -344l18 -547q0 -33 -59 -61q-41 -23 -84 -23q-10 0 -27 4q-61 14 -61 86q0 14 -2 19q-6 12 -4 10l-2 4q-2 0 -2 2q-23 0 -74 -37q-59 -43 -107 -45q-49 -6 -110 -6h-25q-111 0 -178 59q-68 53 -67 172zM193 1427 q0 31 26 43q25 10 72 17q10 2 28 2q68 0 101 -64q6 -10 20 -57q25 -76 49 -129q8 -25 9 -51q0 -51 -43 -70q-14 -6 -31 -6q-53 0 -98 66q-37 51 -58 88l-41 67q-35 59 -34 94zM268 305l2 -26l11 -19q27 -41 65 -57q20 -10 43 -10q37 0 72 24q35 25 63.5 65t28.5 70 q0 10 -2 15q-18 70 -117 84l-20 2q-82 0 -125 -68q-20 -35 -21 -80z" />
<glyph unicode="&#xe1;" horiz-adv-x="978" d="M86 231q0 16 4 62q14 100 27 129q25 70 80 113q106 82 200 86q35 0 76 -11l78 -20h2q12 0 20 24q6 18 7 43q0 53 -31 101q-23 35 -78 51q-2 2 -25 2q-33 0 -51 -2l-63 -4l-64 -4q-20 -2 -49 -2l-22 -2q-8 -2 -21 -2q-43 0 -64.5 24.5t-21.5 61.5q-2 39 18.5 72.5 t55.5 39.5q215 29 311 35h29q148 0 244 -90q115 -106 122 -344l19 -547q0 -33 -60 -61q-41 -23 -84 -23q-10 0 -26 4q-61 14 -62 86q0 14 -2 19q-6 12 -4 10l-2 4q-2 0 -2 2q-23 0 -74 -37q-59 -43 -106 -45q-49 -6 -111 -6h-24q-111 0 -178 59q-68 53 -68 172zM289 305 l2 -26l10 -19q27 -41 66 -57q20 -10 43 -10q37 0 71 24q35 25 63.5 65t28.5 70q0 10 -2 15q-18 70 -116 84l-21 2q-82 0 -125 -68q-20 -35 -20 -80zM406 1188q0 27 8 51q25 53 49 129q14 47 20 57q33 63 101 64q18 0 28 -2q47 -6 72 -17q27 -12 27 -43q0 -35 -35 -94 l-39 -67q-74 -125 -123 -146q-16 -8 -35 -8q-14 0 -30 6q-43 18 -43 70z" />
<glyph unicode="&#xe2;" horiz-adv-x="978" d="M86 231q0 16 4 62q14 100 27 129q25 70 80 113q106 82 200 86q35 0 76 -11l78 -20h2q12 0 20 24q6 18 7 43q0 53 -31 101q-23 35 -78 51q-2 2 -25 2q-33 0 -51 -2l-63 -4l-64 -4q-20 -2 -49 -2l-22 -2q-8 -2 -21 -2q-43 0 -64.5 24.5t-21.5 61.5q-2 39 18.5 72.5 t55.5 39.5q215 29 311 35h29q148 0 244 -90q115 -106 122 -344l19 -547q0 -33 -60 -61q-41 -23 -84 -23q-10 0 -26 4q-61 14 -62 86q0 14 -2 19q-6 12 -4 10l-2 4q-2 0 -2 2q-23 0 -74 -37q-59 -43 -106 -45q-49 -6 -111 -6h-24q-111 0 -178 59q-68 53 -68 172zM133 1040 q0 4 10 25q4 12 33 55l49 70q55 82 109 141l35 41q29 29 32 35q10 14 33 31l27 22l12 13q18 6 16 6h7l8 2q8 0 22 -8q4 -2 31 -17l37 -22l35 -21q6 -6 43 -35l123 -104q70 -63 98 -98q10 -12 10 -21v-4l-12 -4q-29 -14 -70 -23q-53 -12 -73 -12h-9q-16 4 -24 12 q-74 55 -133 125q-33 33 -80 94q-47 -109 -123 -202q-27 -43 -55 -76q-6 -10 -23.5 -16.5t-45.5 -9.5t-34 -3q-16 -2 -43 -2h-16q-29 0 -29 6zM289 305l2 -26l10 -19q27 -41 66 -57q20 -10 43 -10q37 0 71 24q35 25 63.5 65t28.5 70q0 10 -2 15q-18 70 -116 84l-21 2 q-82 0 -125 -68q-20 -35 -20 -80z" />
<glyph unicode="&#xe3;" horiz-adv-x="978" d="M86 231q0 16 4 62q14 100 27 129q25 70 80 113q106 82 200 86q35 0 76 -11l78 -20h2q12 0 20 24q6 18 7 43q0 53 -31 101q-23 35 -78 51q-2 2 -25 2q-33 0 -51 -2l-63 -4l-64 -4q-20 -2 -49 -2l-22 -2q-8 -2 -21 -2q-43 0 -64.5 24.5t-21.5 61.5q-2 39 18.5 72.5 t55.5 39.5q215 29 311 35h29q148 0 244 -90q115 -106 122 -344l19 -547q0 -33 -60 -61q-41 -23 -84 -23q-10 0 -26 4q-61 14 -62 86q0 14 -2 19q-6 12 -4 10l-2 4q-2 0 -2 2q-23 0 -74 -37q-59 -43 -106 -45q-49 -6 -111 -6h-24q-111 0 -178 59q-68 53 -68 172zM131 1264 q0 14 6 22q12 16 51 45t78 45q51 23 82 25q12 2 37 2q51 0 113 -25q41 -18 90 -61q39 -35 49 -35l6 2q20 2 41 27q18 23 33 45q14 25 28 26h11q14 0 30 -8l25 -20l31 -27q18 -12 18 -35q0 -39 -55 -104q-59 -72 -100 -82q-25 -4 -33 -4q-20 0 -51 10q-41 14 -82 49l-35 25 q-39 39 -84 39h-8q-43 -2 -109 -43q-37 -23 -53 -39l-12 -10q-4 -4 -7 -5q-4 0 -6 2t-14 7q-20 16 -39 39q-25 25 -35 59q-6 17 -6 29zM289 305l2 -26l10 -19q27 -41 66 -57q20 -10 43 -10q37 0 71 24q35 25 63.5 65t28.5 70q0 10 -2 15q-18 70 -116 84l-21 2 q-82 0 -125 -68q-20 -35 -20 -80z" />
<glyph unicode="&#xe4;" horiz-adv-x="1079" d="M156 1358v16q0 25 8 41l16 21q25 23 43 32q23 16 47 25q16 6 45 10q14 0 21 2h16q6 -2 17 -2q20 -2 37 -16q31 -25 30 -25q6 -8 15 -14q12 -14 20 -35l6 -20q0 -16 -6 -39l-20 -41q-12 -18 -23 -29q-16 -10 -45 -18q-33 -8 -55 -9q-43 -6 -39 -6q-6 -2 -19 -2 q-10 0 -39 8t-43 19q-14 13 -22 31q-8 16 -8 34q-2 6 -2 17zM168 248q0 16 4 61q14 100 27 129q25 70 80 113q106 82 200 86q35 0 76 -10l78 -21h2q12 0 20 25q6 18 7 43q0 53 -31 100q-23 35 -78 51q-2 2 -25 2q-33 0 -51 -2l-63 -4l-64 -4q-20 -2 -49 -2l-22 -2 q-8 -2 -21 -2q-43 0 -64.5 24.5t-21.5 61.5q-2 39 18.5 73t55.5 40q215 29 311 34h29q147 0 243 -90q115 -106 123 -344l19 -547q-1 -32 -60 -61q-41 -23 -84 -22q-10 0 -26 4q-61 14 -62 86q0 14 -2 18q-6 12 -4 10l-2 4q-2 0 -2 2q-23 0 -74 -36q-59 -43 -106 -45 q-49 -6 -111 -7h-24q-111 0 -178 60q-68 53 -68 172zM371 322l2 -27l10 -19q27 -41 66 -57q20 -10 43 -10q37 0 71 24q35 25 63.5 65t28.5 71q0 10 -2 14q-18 70 -116 84l-21 2q-82 0 -125 -68q-20 -35 -20 -79zM641 1337v17q0 25 8 41l17 20q25 23 43 33q23 16 47 25 q16 6 45 10q14 0 20 2h17q6 -2 16 -2q20 -2 37 -17q31 -25 31 -24q6 -8 14 -15q12 -14 20 -34l7 -21q0 -16 -7 -39l-20 -41q-12 -18 -23 -28q-16 -10 -45 -19q-33 -8 -55 -8q-43 -6 -39 -6q-6 -2 -18 -2q-10 0 -39 8t-43 18q-14 12 -23 31q-8 16 -8 35q-2 6 -2 16z" />
<glyph unicode="&#xe5;" horiz-adv-x="978" d="M86 231q0 16 4 62q14 100 27 129q25 70 80 113q106 82 200 86q35 0 76 -11l78 -20h2q12 0 20 24q6 18 7 43q0 53 -31 101q-23 35 -78 51q-2 2 -25 2q-33 0 -51 -2l-63 -4l-64 -4q-20 -2 -49 -2l-22 -2q-8 -2 -21 -2q-43 0 -64.5 24.5t-21.5 61.5q-2 39 18.5 72.5 t55.5 39.5q215 29 311 35h29q148 0 244 -90q115 -106 122 -344l19 -547q0 -33 -60 -61q-41 -23 -84 -23q-10 0 -26 4q-61 14 -62 86q0 14 -2 19q-6 12 -4 10l-2 4q-2 0 -2 2q-23 0 -74 -37q-59 -43 -106 -45q-49 -6 -111 -6h-24q-111 0 -178 59q-68 53 -68 172zM289 305 l2 -26l10 -19q27 -41 66 -57q20 -10 43 -10q37 0 71 24q35 25 63.5 65t28.5 70q0 10 -2 15q-18 70 -116 84l-21 2q-82 0 -125 -68q-20 -35 -20 -80zM313 1319q0 53 21 94q23 45 63 66q29 14 58 14q39 0 80 -12q49 -18 69 -47q33 -39 43 -64q12 -37 12 -84q0 -104 -61 -151 q-25 -18 -66 -27q-43 -12 -81 -12q-61 0 -97 49q-27 33 -37 125q-4 37 -4 49zM424 1329q0 -20 8 -35q10 -23 28.5 -39t37.5 -16q20 0 30 23q17 33 17 53q0 27 -21 45q-33 20 -55 20q-45 0 -45 -51z" />
<glyph unicode="&#xe6;" horiz-adv-x="1671" d="M86 231q0 16 4 62q14 100 27 129q25 70 80 113q106 82 200 86q35 0 76 -11l78 -20h2q12 0 20 24q6 18 7 43q0 53 -31 101q-23 35 -78 51q-2 2 -25 2q-33 0 -51 -2l-63 -4l-64 -4q-20 -2 -49 -2l-22 -2q-8 -2 -21 -2q-43 0 -64.5 24.5t-21.5 61.5q-2 39 18.5 72.5 t55.5 39.5q215 29 311 35h29q147 0 244 -90q35 -33 61 -80q72 96 166 143q121 63 293 64q86 0 158.5 -40t115.5 -112q57 -96 57 -217q0 -102 -75 -161q-125 -98 -273 -111l-43 -2q-35 0 -65 6q-72 10 -103 10q-20 0 -28 -4q-17 -10 -17 -35v-8q4 -106 111 -133q25 -6 47 -6 q41 0 104 22q55 20 70 27q51 18 80 18q25 0 51 -10q35 -16 60 -53q18 -25 18 -51q0 -63 -92 -121q-57 -37 -140 -60.5t-161 -23.5q-170 0 -256 37q-8 -29 -58 -51q-41 -23 -84 -23q-10 0 -26 4q-61 14 -62 86q0 14 -2 19q-6 12 -4 10l-2 4q-2 0 -2 2q-23 0 -74 -37 q-59 -43 -106 -45q-49 -6 -111 -6h-24q-111 0 -178 59q-68 53 -68 172zM289 305l2 -26l10 -19q27 -41 66 -57q20 -10 43 -10q37 0 71 24q35 25 63.5 64.5t28.5 70.5q0 10 -2 15q-18 70 -116 84l-21 2q-82 0 -125 -68q-20 -35 -20 -80zM1014 717q0 -49 57 -94q29 -27 78 -27 q27 0 51 6q61 14 117 76q43 43 43 96q0 14 -2 21q-18 90 -115 90l-24 -2q-49 -6 -98.5 -32t-78.5 -63q-28 -38 -28 -71z" />
<glyph unicode="&#xe7;" horiz-adv-x="962" d="M53 455q0 199 105 366q70 117 264 183q119 41 237 40q37 0 95 -8q154 -31 153 -141v-10q-2 -59 -59 -127q-53 -57 -100 -58q-12 0 -19 2q-92 18 -147 19q-51 0 -78 -12q-103 -44 -103 -224q0 -143 74 -170q29 -8 45 -8q41 0 117 23q98 27 131 26q10 0 31 -4 q70 -18 67 -149q-2 -111 -92 -170q-66 -43 -160 -51q-57 -100 -116 -183q-55 -82 -125 -82q-16 0 -35 7q-55 23 -55 88q0 27 10 63q29 68 53 139q-293 102 -293 441z" />
<glyph unicode="&#xe8;" horiz-adv-x="1017" d="M55 506q0 152 81 292t206 203q121 63 293 64q86 0 158.5 -40t115.5 -112q57 -96 58 -217q0 -102 -76 -161q-125 -98 -273 -111l-43 -2q-35 0 -65 6q-72 10 -102 10q-20 0 -29 -4q-16 -10 -17 -35v-8q4 -106 111 -133q25 -6 47 -6q41 0 105 22q55 20 69 27q51 18 80 18 q24 0 51 -10q35 -16 60 -53q18 -25 18 -51q0 -63 -92 -121q-57 -37 -140 -60.5t-161 -23.5q-176 0 -264 41q-106 47 -154 168q-37 90 -37 297zM315 1436q0 31 27 43q25 10 72 16q10 2 28 2q68 0 101 -63q6 -10 20 -58q25 -76 49 -129q8 -25 9 -51q0 -51 -43 -70 q-14 -6 -31 -6q-53 0 -98 66q-37 51 -58 88l-41 67q-35 59 -35 95zM381 717q0 -49 57 -94q29 -27 78 -27q27 0 51 6q61 14 117 76q43 43 43 96q0 14 -2 21q-18 90 -115 90l-24 -2q-49 -6 -98.5 -32t-77.5 -63q-29 -38 -29 -71z" />
<glyph unicode="&#xe9;" horiz-adv-x="1017" d="M55 506q0 152 81 292t206 203q121 63 293 64q86 0 158.5 -40t115.5 -112q57 -96 58 -217q0 -102 -76 -161q-125 -98 -273 -111l-43 -2q-35 0 -65 6q-72 10 -102 10q-20 0 -29 -4q-16 -10 -17 -35v-8q4 -106 111 -133q25 -6 47 -6q41 0 105 22q55 20 69 27q51 18 80 18 q24 0 51 -10q35 -16 60 -53q18 -25 18 -51q0 -63 -92 -121q-57 -37 -140 -60.5t-161 -23.5q-176 0 -264 41q-106 47 -154 168q-37 90 -37 297zM381 717q0 -49 57 -94q29 -27 78 -27q27 0 51 6q61 14 117 76q43 43 43 96q0 14 -2 21q-18 90 -115 90l-24 -2q-49 -6 -98.5 -32 t-77.5 -63q-29 -38 -29 -71zM547 1196q0 27 8 51q25 53 49 129q14 47 21 58q33 63 100 63q18 0 29 -2q47 -6 71 -16q27 -12 27 -43q0 -35 -35 -95l-39 -67q-74 -125 -123 -146q-16 -8 -34 -8q-14 0 -31 6q-43 18 -43 70z" />
<glyph unicode="&#xea;" horiz-adv-x="1017" d="M55 506q0 152 81 292t206 203q121 63 293 64q86 0 158.5 -40t115.5 -112q57 -96 58 -217q0 -102 -76 -161q-125 -98 -273 -111l-43 -2q-35 0 -65 6q-72 10 -102 10q-20 0 -29 -4q-16 -10 -17 -35v-8q4 -106 111 -133q25 -6 47 -6q41 0 105 22q55 20 69 27q51 18 80 18 q24 0 51 -10q35 -16 60 -53q18 -25 18 -51q0 -63 -92 -121q-57 -37 -140 -60.5t-161 -23.5q-176 0 -264 41q-106 47 -154 168q-37 90 -37 297zM186 1085q0 4 11 25q4 12 32 55l50 70q55 82 108 141l35 41q27 29 33 35q12 14 32 31l27 22l12 13q18 6 17 6h6l8 2q8 0 23 -8 q4 -2 30 -17l37 -22l35 -21q6 -6 43 -35l123 -104q70 -63 98 -98q10 -12 10 -21v-4l-12 -4q-29 -14 -70 -23q-53 -12 -73 -12h-8q-14 2 -25 12q-74 55 -133 125q-33 33 -80 95q-47 -109 -123 -203q-27 -43 -55 -76q-6 -10 -23.5 -16.5t-45 -9.5t-34.5 -3q-16 -2 -43 -2h-16 q-29 0 -29 6zM381 717q0 -49 57 -94q29 -27 78 -27q27 0 51 6q61 14 117 76q43 43 43 96q0 14 -2 21q-18 90 -115 90l-24 -2q-49 -6 -98.5 -32t-77.5 -63q-29 -38 -29 -71z" />
<glyph unicode="&#xeb;" horiz-adv-x="1079" d="M55 506q0 152 81 292t206 203q121 63 293 64q86 0 158.5 -40t115.5 -112q57 -96 58 -217q0 -102 -76 -161q-125 -98 -273 -111l-43 -2q-35 0 -65 6q-72 10 -102 10q-20 0 -29 -4q-17 -10 -17 -35v-8q4 -106 111 -133q25 -6 47 -6q41 0 105 22q55 20 69 27q51 18 80 18 q25 0 51 -10q35 -16 60 -53q18 -25 18 -51q0 -63 -92 -121q-57 -37 -140 -60.5t-161 -23.5q-176 0 -264 41q-106 47 -154 168q-37 90 -37 297zM156 1358v16q0 25 8 41l16 21q25 23 43 32q23 16 47 25q16 6 45 10q14 0 21 2h16q6 -2 17 -2q20 -2 37 -16q31 -25 30 -25 q6 -8 15 -14q12 -14 20 -35l6 -20q0 -16 -6 -39l-20 -41q-12 -18 -23 -29q-16 -10 -45 -18q-33 -8 -55 -9q-43 -6 -39 -6q-6 -2 -19 -2q-10 0 -39 8t-43 19q-14 12 -22 31q-8 16 -8 34q-2 7 -2 17zM381 717q0 -49 57 -94q29 -27 78 -27q27 0 51 6q61 14 117 76q43 43 43 96 q0 14 -2 21q-18 90 -115 90l-24 -2q-49 -6 -98.5 -32t-77.5 -63q-29 -38 -29 -71zM641 1337v17q0 25 8 41l17 20q25 23 43 33q23 16 47 25q16 6 45 10q14 0 20 2h17q6 -2 16 -2q20 -2 37 -17q31 -25 31 -24q6 -8 14 -15q12 -14 20 -34l7 -21q0 -16 -7 -39l-20 -41 q-12 -18 -23 -28q-16 -10 -45 -19q-33 -8 -55 -8q-43 -6 -39 -6q-6 -2 -18 -2q-10 0 -39 8t-43 18q-14 12 -23 31q-8 16 -8 35q-2 6 -2 16z" />
<glyph unicode="&#xec;" horiz-adv-x="616" d="M86 219q0 61 25 141q23 74 39 179l28 170q8 51 8 65q4 66 9.5 93.5t20.5 39t52 11.5q33 0 66 -9q76 -4 119 -10q45 -8 55 -100q27 -289 27 -424v-29l-3 -196q0 -92 -22.5 -121t-87.5 -29q-33 0 -51 2q-147 6 -216 48t-69 169zM150 1348q0 31 26 43q25 10 72 16q10 2 28 2 q68 0 101 -63q6 -10 20 -58q25 -76 49 -129q8 -25 9 -51q0 -51 -43 -70q-16 -6 -31 -6q-53 0 -98 66q-37 51 -58 88l-41 67q-35 59 -34 95z" />
<glyph unicode="&#xed;" horiz-adv-x="694" d="M86 219q0 61 25 141q23 74 39 179l28 170q8 51 8 65q4 66 9.5 93.5t20.5 39t52 11.5q33 0 66 -9q76 -4 119 -10q45 -8 55 -100q27 -289 27 -424v-29l-3 -196q0 -92 -22.5 -121t-87.5 -29q-33 0 -51 2q-147 6 -216 48t-69 169zM309 1135q0 27 8 51q25 53 50 129 q14 47 20 57q33 63 100 64q18 0 29 -2q47 -6 72 -17q26 -12 26 -43q0 -35 -34 -94l-39 -68q-74 -125 -123 -145q-16 -8 -35 -8q-16 0 -31 6q-43 18 -43 70z" />
<glyph unicode="&#xee;" horiz-adv-x="825" d="M55 983q0 4 11 25q4 12 32 55l49 70q55 82 109 141l35 41q29 29 33 35q10 14 32 30l27 23l12 12q18 6 17 6h6l8 2q8 0 23 -8q4 -2 30 -16l37 -23l35 -20q6 -6 43 -35l123 -104q70 -63 98 -99q10 -12 10 -20v-4l-12 -4q-29 -14 -70 -23q-53 -12 -73 -12h-8q-16 4 -25 12 q-74 55 -133 125q-33 33 -80 94q-47 -109 -123 -203q-27 -43 -55 -75q-6 -10 -23.5 -16.5t-45 -9.5t-34.5 -3q-16 -2 -43 -2h-16q-29 0 -29 6zM168 238q0 61 25 141q23 74 38 178l29 170q8 51 8 66q4 66 9.5 93t20.5 38.5t52 11.5q33 0 66 -8q76 -4 119 -10q45 -8 55 -101 q27 -289 26 -424v-28l-2 -197q0 -92 -22.5 -121t-87.5 -29q-33 0 -51 2q-147 6 -216 48.5t-69 169.5z" />
<glyph unicode="&#xef;" horiz-adv-x="854" d="M20 1358v16q0 25 9 41l16 21q25 23 43 32q23 16 47 25q16 6 45 10q14 0 21 2h16q6 -2 16 -2q20 -2 37 -16l31 -25q6 -8 14 -14q12 -14 21 -35l6 -20q0 -16 -6 -39l-21 -41q-12 -18 -22 -29q-16 -10 -45 -18q-32 -9 -55 -9q-43 -6 -39 -6q-6 -2 -19 -2q-10 0 -39 8t-43 19 q-14 12 -22 31q-8 16 -8 34q-2 6 -3 17zM188 219q0 61 25 141q23 74 39 179l29 170q8 51 8 65q4 66 9 93.5t20.5 39t52.5 11.5q33 0 65 -9q76 -4 119 -10q45 -8 55 -100q27 -289 27 -424v-29l-2 -196q0 -92 -22.5 -121t-88.5 -29q-33 0 -51 2q-147 6 -216 48t-69 169z M506 1337v17q0 25 8 41l16 20q25 23 43 33q23 16 48 25q16 6 45 10q14 0 20 2h16q6 -2 17 -2q20 -2 37 -17q31 -25 30 -24q6 -8 15 -15q12 -14 20 -34l6 -21q0 -16 -6 -39l-20 -41q-12 -18 -23 -28q-16 -10 -45 -19q-33 -8 -55 -8q-43 -6 -39 -6q-6 -2 -18 -2q-10 0 -39 8 t-43 18q-14 12 -23 31q-8 16 -8 35q-2 6 -2 16z" />
<glyph unicode="&#xf1;" horiz-adv-x="972" d="M55 145v21l6 55q6 61 11 92q16 131 20 371q0 197 17 289q4 31 16 45q6 6 27 16q16 6 53 13l74 14l28 4q39 -4 39 -37q0 -8 -4 -24q-8 -41 -8 -70l-2 -31q0 -35 8 -49q6 -10 14 -10h6q10 2 33 30q2 4 31 29q70 61 135 101q96 57 168 59q82 4 115 -92q12 -39 12 -97 q0 -29 -2 -43v-10q0 -25 10 -69q14 -57 17 -127l8 -78q8 -72 20 -150q18 -143 19 -184q0 -25 -2 -35q-4 -68 -29 -84q-63 -35 -78 -39q-37 -14 -72 -20q-25 -6 -47 -6q-80 0 -114 92q-25 66 -25 172q0 49 2 72q4 72 8 104l6 53v15q0 96 -81 116q-10 2 -27 2 q-125 0 -139 -266v-18q0 -59 6 -150l10 -158v-2q0 -18 -68 -43l-26 -10q-18 -8 -35 -8q-2 -2 -12 -2t-17 2h-30q-55 0 -86 63q-14 27 -15 82zM115 1290q0 14 6 23q12 16 51 45t78 45q51 23 82 24q12 2 37 3q51 0 112 -25q41 -18 90 -62q39 -35 50 -34l6 2q20 2 41 26 q18 23 32 45q14 25 29 27h10q14 0 31 -8l25 -21l30 -26q18 -12 19 -35q0 -39 -56 -105q-59 -72 -100 -81q-25 -4 -33 -5q-20 0 -51 11q-41 14 -82 49l-35 24q-39 39 -84 39h-8q-43 -2 -108 -43q-37 -23 -54 -39l-12 -10q-4 -4 -6 -4q-4 0 -6 2t-14 6q-20 16 -39 39 q-25 25 -35 60q-6 16 -6 28z" />
<glyph unicode="&#xf2;" horiz-adv-x="1017" d="M70 592q0 150 53 260q53 115 168 174q80 39 155 39q109 0 213 -35q119 -45 187 -123q81 -106 112 -174q37 -88 37 -225q0 -274 -164 -402q-61 -49 -180 -75q-123 -31 -219 -31q-162 0 -258 129q-45 59 -63.5 134t-32.5 206q-8 59 -8 123zM174 1440q0 31 27 43 q25 10 71 16q10 2 29 2q68 0 100 -63q6 -10 21 -58q25 -76 49 -129q8 -25 8 -51q0 -51 -43 -70q-16 -6 -30 -6q-53 0 -99 66q-37 51 -57 88l-41 68q-35 59 -35 94zM362 625q0 -45 21 -90q29 -61 80 -104.5t100 -43.5q53 0 82 55q43 81 43 142q0 72 -57 123q-88 53 -152 53 q-57 0 -87 -39t-30 -96z" />
<glyph unicode="&#xf3;" horiz-adv-x="1034" d="M70 592q0 150 53 260q53 115 168 174q80 39 155 39q109 0 213 -35q119 -45 187 -123q81 -106 112 -174q37 -88 37 -225q0 -274 -164 -402q-61 -49 -180 -75q-123 -31 -219 -31q-162 0 -258 129q-45 59 -63.5 134t-32.5 206q-8 59 -8 123zM362 625q0 -45 21 -90 q29 -61 80 -104.5t100 -43.5q53 0 82 55q43 81 43 142q0 72 -57 123q-88 53 -152 53q-57 0 -87 -39t-30 -96zM385 1200q0 27 8 51q25 53 49 129q14 47 21 58q33 63 100 63q18 0 29 -2q47 -6 72 -16q26 -12 26 -43q0 -35 -35 -94l-39 -68q-74 -125 -122 -145q-16 -8 -35 -9 q-14 0 -31 6q-43 18 -43 70z" />
<glyph unicode="&#xf4;" horiz-adv-x="1058" d="M70 592q0 150 53 260q53 115 168 174q80 39 155 39q109 0 213 -35q119 -45 187 -123q81 -106 112 -174q37 -88 37 -225q0 -274 -164 -402q-61 -49 -180 -75q-123 -31 -219 -31q-162 0 -258 129q-45 59 -63.5 134t-32.5 206q-8 59 -8 123zM141 1075q0 4 11 25q4 12 32 55 l49 70q55 82 109 141l35 41q29 29 33 35q12 14 32 31l27 22l12 12q18 6 17 6h6l8 3q8 0 23 -9q4 -2 30 -16l37 -23l35 -20q6 -6 43 -35l123 -104q70 -63 98 -99q10 -12 10 -20v-4l-12 -4q-29 -14 -70 -23q-53 -12 -73 -12h-8q-14 4 -25 12q-74 55 -133 125q-33 33 -80 94 q-47 -109 -123 -202q-27 -43 -55 -76q-6 -10 -23.5 -16.5t-45 -9.5t-34.5 -3q-16 -2 -43 -2h-16q-29 0 -29 6zM362 625q0 -45 21 -90q29 -61 80 -104.5t100 -43.5q53 0 82 55q43 81 43 142q0 72 -57 123q-88 53 -152 53q-57 0 -87 -39t-30 -96z" />
<glyph unicode="&#xf5;" horiz-adv-x="1058" d="M70 592q0 150 53 260q53 115 168 174q80 39 155 39q109 0 213 -35q119 -45 187 -123q81 -106 112 -174q37 -88 37 -225q0 -274 -164 -402q-61 -49 -180 -75q-123 -31 -219 -31q-162 0 -258 129q-45 59 -63.5 134t-32.5 206q-8 59 -8 123zM150 1286q0 14 6 23q12 16 51 45 t78 45q51 23 82 24q12 2 36 2q51 0 113 -24q41 -18 90 -62q39 -35 49 -34l7 2q20 2 40 26q18 23 33 45q14 25 29 27h10q14 0 31 -8l24 -21l31 -26q18 -12 19 -35q0 -39 -56 -105q-59 -72 -100 -82q-25 -4 -33 -4q-20 0 -51 11q-41 14 -82 49l-35 24q-39 39 -84 39h-8 q-43 -2 -108 -43q-37 -23 -54 -39l-12 -10q-4 -4 -6 -4q-4 0 -6 2t-15 6q-20 16 -39 39q-25 25 -34 59q-6 17 -6 29zM362 625q0 -45 21 -90q29 -61 80 -104.5t100 -43.5q53 0 82 55q43 81 43 142q0 72 -57 123q-88 53 -152 53q-57 0 -87 -39t-30 -96z" />
<glyph unicode="&#xf6;" horiz-adv-x="1079" d="M70 592q0 150 53 260q53 115 168 174q80 39 155 39q109 0 213 -35q119 -45 187 -123q82 -106 112 -174q37 -88 37 -225q0 -274 -164 -402q-61 -49 -180 -75q-123 -31 -219 -31q-162 0 -258 129q-45 59 -63.5 134t-32.5 206q-8 59 -8 123zM156 1358v16q0 25 8 41l16 21 q25 23 43 32q23 16 47 25q16 6 45 10q14 0 21 2h16q6 -2 17 -2q20 -2 37 -16q31 -25 30 -25q6 -8 15 -14q12 -14 20 -35l6 -20q0 -16 -6 -39l-20 -41q-12 -18 -23 -29q-16 -10 -45 -18q-33 -8 -55 -9q-43 -6 -39 -6q-6 -2 -19 -2q-10 0 -39 8t-43 19q-14 12 -22 31 q-8 16 -8 34q-2 7 -2 17zM362 625q0 -45 21 -90q29 -61 80 -104.5t100 -43.5q53 0 82 55q43 81 43 142q0 72 -57 123q-88 53 -152 53q-57 0 -87 -39t-30 -96zM641 1337v17q0 25 8 41l17 20q25 23 43 33q23 16 47 25q16 6 45 10q14 0 20 2h17q6 -2 16 -2q20 -2 37 -17 q31 -25 31 -24q6 -8 14 -15q12 -14 20 -34l7 -21q0 -16 -7 -39l-20 -41q-12 -18 -23 -28q-16 -10 -45 -19q-33 -8 -55 -8q-43 -6 -39 -6q-6 -2 -18 -2q-10 0 -39 8t-43 18q-14 12 -23 31q-8 16 -8 35q-2 6 -2 16z" />
<glyph unicode="&#xf7;" horiz-adv-x="876" d="M80 584q0 33 53 94q16 16 33 41q4 4 31 10q27 4 170 16q70 6 223 11q121 0 176 -8q29 -4 40 -14.5t13 -35.5q0 -55 -22 -106q-2 -4 -8.5 -18.5t-15.5 -22.5t-34 -12q-51 -8 -168 -9q-113 0 -223 7q-162 8 -188 12q-6 0 -27.5 3t-37 9t-15.5 23zM266 274v17q0 25 8 41 l17 20q25 23 43 33q23 16 47 25q16 6 45 10q14 0 20 2h17q6 -2 16 -2q20 -2 37 -17q31 -25 31 -24q6 -8 14 -14q12 -14 21 -35l6 -21q0 -16 -6 -39l-21 -41q-12 -18 -22 -28q-16 -10 -45 -19q-33 -8 -56 -8q-43 -6 -39 -6q-6 -2 -18 -2q-10 0 -39 8t-43 19q-14 12 -23 30 q-8 16 -8 35q-2 6 -2 16zM334 961v16q0 25 8 41l16 20q25 23 43 33q23 16 48 25q16 6 45 10q14 0 20 2h16q6 -2 17 -2q20 -2 37 -16q31 -25 30 -25q6 -8 15 -14q12 -14 20 -35l6 -21q0 -16 -6 -39l-20 -41q-12 -18 -23 -28q-16 -10 -45 -19q-33 -8 -55 -8q-43 -6 -39 -6 q-6 -2 -18 -2q-10 0 -39 8t-43 19q-14 12 -23 30q-8 16 -8 35q-2 6 -2 17z" />
<glyph unicode="&#xf8;" horiz-adv-x="1058" d="M70 592q0 150 53 260q53 115 168 174q80 39 155 39q53 0 109 -8l2 14q39 215 74 381q8 57 33 82q18 18 41 18q18 0 38 -14q16 -16 17 -18q0 -29 -15 -117q-23 -137 -67 -379q106 -45 168 -117q82 -106 112 -174q37 -90 37 -225q0 -274 -164 -402q-61 -49 -180 -75 q-98 -25 -182 -29q-74 -322 -90 -321h-2q-4 6 -15 43q-2 18 -2 61q0 94 19 219q-125 18 -205 125q-45 59 -63.5 134t-32.5 206q-8 59 -8 123zM362 625q0 -45 21 -90q25 -51 63 -91l54 314l-21 2q-57 0 -87 -39t-30 -96zM553 387h10q53 0 82 55q43 81 43 142q0 72 -57 123 l-15 8l-28 -150z" />
<glyph unicode="&#xf9;" horiz-adv-x="1079" d="M57 477v25q0 139 33 295q2 14 10 47l13 51l12 53q10 45 10 47q6 35 62 43q31 2 88 11q66 8 104 8q43 0 62 -13q27 -18 26 -57q0 -10 -4 -31q-6 -16 -10 -45l-8 -47l-13 -65l-26 -140q-20 -106 -21 -149q0 -111 107 -117h16q80 0 129 80q45 78 45 217q0 33 -12 123 q-14 76 -23 102q-8 14 -8 33q0 35 86 62q37 12 58 12q18 0 32 2q37 4 60 4q12 0 41 -4q59 -10 82 -51q10 -20 10 -47v-13v-34q0 -74 6 -146l6 -82q2 -27 2 -76q4 -305 -151 -462q-117 -123 -299 -123q-76 0 -152 20q-193 41 -278 140q-94 106 -95 327zM330 1440q0 31 26 43 q25 10 72 16q10 2 29 2q68 0 100 -63q6 -10 21 -58q25 -76 49 -129q8 -25 8 -51q0 -51 -43 -70q-14 -6 -31 -6q-53 0 -98 66q-37 51 -57 88l-41 68q-35 59 -35 94z" />
<glyph unicode="&#xfa;" horiz-adv-x="1079" d="M57 477v25q0 139 33 295q2 14 10 47l13 51l12 53q10 45 10 47q6 35 62 43q31 2 88 11q66 8 104 8q43 0 62 -13q27 -18 26 -57q0 -10 -4 -31q-6 -16 -10 -45l-8 -47l-13 -65l-26 -140q-20 -106 -21 -149q0 -111 107 -117h16q80 0 129 80q45 78 45 217q0 33 -12 123 q-14 76 -23 102q-8 14 -8 33q0 35 86 62q37 12 58 12q18 0 32 2q37 4 60 4q12 0 41 -4q59 -10 82 -51q10 -20 10 -47v-13v-34q0 -74 6 -146l6 -82q2 -27 2 -76q4 -305 -151 -462q-117 -123 -299 -123q-76 0 -152 20q-193 41 -278 140q-94 106 -95 327zM549 1200q0 27 8 51 q25 53 49 129q14 47 21 58q33 63 100 63q18 0 29 -2q47 -6 71 -16q27 -12 27 -43q0 -35 -35 -94l-39 -68q-74 -125 -123 -145q-16 -8 -34 -9q-14 0 -31 6q-43 18 -43 70z" />
<glyph unicode="&#xfb;" horiz-adv-x="1089" d="M57 477v25q0 139 33 295q2 14 10 47l13 51l12 53q10 45 10 47q6 35 62 43q31 2 88 11q66 8 104 8q43 0 62 -13q27 -18 26 -57q0 -10 -4 -31q-6 -16 -10 -45l-8 -47l-13 -65l-26 -140q-20 -106 -21 -149q0 -111 107 -117h16q80 0 129 80q45 78 45 217q0 33 -12 123 q-14 76 -23 102q-8 14 -8 33q0 35 86 62q37 12 58 12q18 0 32 2q37 4 60 4q12 0 41 -4q59 -10 82 -51q10 -20 10 -47v-13v-34q0 -74 6 -146l6 -82q2 -27 2 -76q4 -305 -151 -462q-117 -123 -299 -123q-76 0 -152 20q-193 41 -278 140q-94 106 -95 327zM217 1106q0 4 10 24 q4 12 33 56l49 69q55 82 109 142l35 41q27 29 32 35q12 14 33 30l27 23l12 12q18 6 16 6h7l8 2q8 0 22 -8q4 -2 31 -16l37 -23l35 -20q6 -6 43 -35l123 -105q70 -63 98 -98q10 -12 10 -20v-4l-12 -5q-29 -14 -70 -22q-53 -12 -74 -12h-8q-14 2 -24 12q-74 55 -133 125 q-33 33 -80 94q-47 -109 -123 -203q-27 -43 -55 -76q-6 -10 -23.5 -16t-45.5 -9t-34 -3q-16 -2 -43 -2h-16q-29 0 -29 6z" />
<glyph unicode="&#xfc;" horiz-adv-x="1079" d="M57 477v25q0 139 33 295q2 14 10 47l13 51l12 53q10 45 10 47q6 35 62 43q31 2 88 11q66 8 104 8q43 0 62 -13q27 -18 26 -57q0 -10 -4 -31q-6 -16 -10 -45l-8 -47l-13 -65l-26 -140q-20 -106 -21 -149q0 -111 107 -117h16q80 0 129 80q45 78 45 217q0 33 -12 123 q-14 76 -23 102q-8 14 -8 33q0 35 86 62q37 12 58 12q18 0 32 2q37 4 60 4q12 0 41 -4q59 -10 82 -51q10 -20 10 -47v-13v-34q0 -74 6 -146l6 -82q2 -27 2 -76q5 -304 -151 -462q-117 -123 -299 -123q-76 0 -152 20q-193 41 -278 140q-94 106 -95 327zM156 1358v16 q0 25 8 41l16 21q25 23 43 32q23 16 47 25q16 6 45 10q14 0 21 2h16q6 -2 17 -2q20 -2 37 -16q31 -25 30 -25q6 -8 15 -14q12 -14 20 -35l6 -20q0 -16 -6 -39l-20 -41q-12 -18 -23 -29q-16 -10 -45 -18q-33 -8 -55 -9q-43 -6 -39 -6q-6 -2 -19 -2q-10 0 -39 8t-43 19 q-14 12 -22 31q-8 16 -8 34q-2 7 -2 17zM641 1337v17q0 25 8 41l17 20q25 23 43 33q23 16 47 25q16 6 45 10q14 0 20 2h17q6 -2 16 -2q20 -2 37 -17q31 -25 31 -24q6 -8 14 -15q12 -14 20 -34l7 -21q0 -16 -7 -39l-20 -41q-12 -18 -23 -28q-16 -10 -45 -19q-33 -8 -55 -8 q-43 -6 -39 -6q-6 -2 -18 -2q-10 0 -39 8t-43 18q-14 12 -23 31q-8 16 -8 35q-2 6 -2 16z" />
<glyph unicode="&#xff;" horiz-adv-x="1380" d="M45 834q0 41 25.5 66.5t80 45t162.5 47.5q6 2 27 2q66 0 121 -112q123 -244 164 -308q33 -53 61 -75q12 -10 27 -11q10 0 21 10.5t21.5 24t18.5 23.5q59 74 127 194q31 57 45 109q39 141 162 141h22l41 -4l105 -6q63 -12 63 -100v-23q0 -18 -2 -29q-12 -84 -104 -243 q-59 -102 -166 -246l-72 -92q-33 -41 -41 -60q-51 -86 -92 -194q-109 -283 -207 -412q-63 -84 -159 -112q-104 -31 -183 -31l-34 2q-68 2 -68 156q0 10 25 51q43 72 137 202q72 104 131 195q20 35 20 39v2q-98 238 -291 481q-98 117 -118 138q-45 47 -57.5 72.5t-12.5 56.5z M287 1358v16q0 25 8 41l16 21q25 23 43 32q23 16 47 25q16 6 45 10q14 0 21 2h16q6 -2 17 -2q20 -2 37 -16q31 -25 30 -25q6 -8 15 -14q12 -14 20 -35l4 -16l2 -4q0 -18 -6 -39l-20 -41l-4 -6l-7 -7l-12 -16l-6 -4l-14 -8q-25 -10 -52 -12q-10 -2 -28 -3q-43 -6 -39 -6 q-6 -2 -19 -2q-10 0 -39 8t-43 19q-14 12 -22 31q-8 16 -8 34q-2 7 -2 17zM772 1337v17q0 25 8 41l17 20q25 23 43 33q23 16 47 25q16 6 45 10q14 0 20 2h17q6 -2 16 -2q20 -2 37 -17q31 -25 31 -24q6 -8 14 -15q12 -14 20 -34l7 -21q0 -18 -7 -39l-20 -41q-12 -18 -23 -28 q-16 -10 -45 -19q-33 -8 -55 -8q-43 -6 -39 -6q-6 -2 -18 -2q-10 0 -39 8t-43 18q-14 12 -23 31q-8 16 -8 35q-2 6 -2 16z" />
<glyph unicode="&#x152;" horiz-adv-x="2316" d="M61 911q0 236 80 400q86 178 260 266q125 61 242 61q168 0 326 -55q190 -72 286 -188l56 -74l12 70q12 76 18 94q33 90 111 115.5t146.5 28.5t87.5 3q119 6 221 6h63q139 -4 193 -16q6 -2 22.5 -6t23.5 -14.5t19 -34.5q16 -39 17 -90v-39q0 -35 2 -54q2 -20 2 -51v-30 q0 -61 -19 -109q-16 -43 -45 -43q-8 0 -12 2q-121 37 -184 43l-66 4q-63 0 -117 -12q-63 -14 -65 -49l-4 -37l-2 -8l-1 1l-1 1q2 -55 49 -56q12 0 16 -2l8 -2l21 2q55 10 74 11q55 0 55 -50l-2 -14l-8 -70q-2 -14 -9 -34q-25 -43 -96 -43q-61 6 -104 6q-20 0 -74 -4 q-6 -12 -6 -29l2 -18q2 -16 2 -48q0 -109 82 -108q12 0 20 2q16 2 85 8t141 31q109 39 151 39q63 0 79.5 -72t16.5 -127v-57q-2 -115 -20 -182l-6 -21q0 -76 -37 -98q-51 -29 -86 -37l-123 -39q-127 -41 -240 -61q-113 -23 -192 -23h-19q-205 12 -253 186l-27 -22 q-90 -70 -277 -117q-184 -47 -335 -47q-250 0 -398 199q-68 90 -96.5 204.5t-52.5 317.5q-12 102 -13 190zM514 958q0 -72 29 -135q45 -94 123.5 -160.5t152.5 -66.5q80 0 127 84q68 121 68 217q0 111 -90 190q-135 82 -230 82q-88 0 -134 -61t-46 -150z" />
<glyph unicode="&#x153;" horiz-adv-x="1792" d="M70 592q0 150 53 260q53 115 168 174q80 39 155 39q109 0 213 -35q119 -45 187 -123q37 -47 57 -78q78 117 187 172q121 63 292 64q86 0 159 -40t116 -112q57 -96 57 -217q0 -102 -76 -161q-125 -98 -272 -111l-43 -2q-35 0 -66 6q-72 10 -102 10q-20 0 -29 -4 q-16 -10 -16 -35v-8q4 -106 111 -133q25 -6 47 -6q41 0 104 22q55 20 70 27q51 18 80 18q25 0 51 -10q35 -16 59 -53q18 -25 19 -51q0 -63 -92 -121q-57 -37 -140.5 -60.5t-161.5 -23.5q-178 0 -264 41q-76 33 -121 102q-18 -20 -41 -37q-61 -49 -180 -75q-123 -31 -219 -31 q-164 0 -258 129q-45 59 -63.5 134t-32.5 206q-8 59 -8 123zM362 625q0 -45 21 -90q29 -61 80 -104.5t100 -43.5q53 0 82 55q43 81 43 142q0 72 -57 123q-88 53 -152 53q-57 0 -87 -39t-30 -96zM1128 717q0 -49 58 -94q29 -27 78 -27q27 0 51 6q61 14 117 76q43 43 43 96 q0 14 -2 21q-18 90 -115 90l-25 -2q-49 -6 -98 -32t-78 -63q-29 -38 -29 -71z" />
<glyph unicode="&#x178;" horiz-adv-x="1587" d="M61 1458q0 55 40 84t80 41t44 14l137 37q12 4 31 4q72 0 135 -125l99 -196q94 -190 153 -234q18 -12 31 -12q14 0 25.5 11.5t24.5 29.5t18 25q70 92 143 219q39 74 51 119q43 160 180 159h25l47 -4q41 -4 61 -4l58 -4q72 -17 72 -113q0 -10 -5 -55q-12 -104 -114 -274 q-59 -98 -191 -275l-80 -104q-43 -53 -63.5 -94t-28.5 -105q-8 -63 -8 -141q0 -49 4 -139v-35q0 -125 -47 -189q-29 -39 -82 -57t-135 -33q-14 -2 -43 -8t-51 -6q-113 0 -113 182q0 80 19 240q4 43 20 131q4 33 4 43q0 12 -4 28q-123 295 -326 541q-72 88 -133 154 q-51 53 -64.5 81.5t-13.5 63.5zM406 1817v16q0 25 8 41l16 20q25 23 43 33q23 16 47 25q16 6 45 10q14 0 21 2h16q6 -2 16 -2q20 -2 37 -16l31 -25q6 -8 14 -14q12 -14 21 -35l4 -17l2 -4q0 -18 -6 -39l-21 -40l-4 -7l-6 -6l-12 -16l-6 -4l-15 -8q-25 -10 -51 -13 q-10 -2 -28 -2q-43 -6 -39 -6q-6 -2 -19 -2q-10 0 -39 8t-43 19q-14 12 -22 30q-8 16 -8 35q-2 7 -2 17zM891 1796v16q0 25 8 41l16 21q25 23 43 33q23 16 48 24q16 6 45 11q14 0 20 2h16q6 -2 17 -2q20 -2 37 -17q31 -25 30 -24q6 -8 15 -15q12 -14 20 -35l6 -20 q0 -18 -6 -39l-20 -41q-12 -18 -23 -29q-16 -10 -45 -18q-33 -8 -55 -8q-43 -6 -39 -6q-6 -2 -18 -2q-10 0 -39 8t-43 18q-14 12 -23 31q-8 16 -8 35q-2 6 -2 16z" />
<glyph unicode="&#x2c6;" horiz-adv-x="1705" d="M455 983q0 4 10 25q4 12 33 55l49 70q55 82 108 141l35 41q29 29 33 35q12 14 33 30l26 23l13 12q18 6 16 6h6l8 2q8 0 23 -8q4 -2 31 -16l36 -23l35 -20q6 -6 43 -35l123 -104q70 -63 98 -99q10 -12 11 -20v-4l-13 -4q-29 -14 -69 -23q-53 -12 -74 -12h-8q-16 4 -25 12 q-74 55 -133 125q-33 33 -80 94q-47 -109 -123 -203q-27 -43 -55 -75q-6 -10 -23.5 -16.5t-45 -9.5t-33.5 -3q-16 -2 -43 -2h-17q-29 0 -28 6z" />
<glyph unicode="&#x2dc;" horiz-adv-x="829" d="M51 1391q0 14 6 22q12 16 52 45q39 29 77 45q51 23 82 25q12 2 37 2q51 0 113 -25q41 -18 90 -61q39 -35 49 -35l6 2q20 2 41 27q18 23 33 45q14 25 29 26h10q14 0 31 -8l24 -20l31 -27q18 -12 18 -35q0 -39 -55 -104q-59 -72 -100 -82q-25 -4 -33 -4q-20 0 -51 10 q-41 14 -82 49l-35 25q-39 39 -84 39h-8q-43 -2 -109 -43q-37 -23 -53 -39l-12 -10q-4 -4 -6 -5q-4 0 -7 2q-2 2 -14 7q-20 16 -39 39q-25 25 -35 59q-6 17 -6 29z" />
<glyph unicode="&#x2000;" horiz-adv-x="989" />
<glyph unicode="&#x2001;" horiz-adv-x="1978" />
<glyph unicode="&#x2002;" horiz-adv-x="989" />
<glyph unicode="&#x2003;" horiz-adv-x="1978" />
<glyph unicode="&#x2004;" horiz-adv-x="659" />
<glyph unicode="&#x2005;" horiz-adv-x="494" />
<glyph unicode="&#x2006;" horiz-adv-x="329" />
<glyph unicode="&#x2007;" horiz-adv-x="329" />
<glyph unicode="&#x2008;" horiz-adv-x="247" />
<glyph unicode="&#x2009;" horiz-adv-x="395" />
<glyph unicode="&#x200a;" horiz-adv-x="109" />
<glyph unicode="&#x2010;" horiz-adv-x="851" d="M59 598q1 33 54 94q16 16 32 41q4 4 31 10q27 4 170 17q70 6 223 10q121 0 176 -8q29 -4 40.5 -14.5t13.5 -34.5q0 -55 -23 -107q-2 -4 -8 -18.5t-15.5 -22.5t-33.5 -12q-51 -8 -168 -8q-113 0 -223 6q-162 8 -189 12q-6 0 -27.5 3t-37 9.5t-15.5 22.5z" />
<glyph unicode="&#x2011;" horiz-adv-x="851" d="M59 598q1 33 54 94q16 16 32 41q4 4 31 10q27 4 170 17q70 6 223 10q121 0 176 -8q29 -4 40.5 -14.5t13.5 -34.5q0 -55 -23 -107q-2 -4 -8 -18.5t-15.5 -22.5t-33.5 -12q-51 -8 -168 -8q-113 0 -223 6q-162 8 -189 12q-6 0 -27.5 3t-37 9.5t-15.5 22.5z" />
<glyph unicode="&#x2012;" horiz-adv-x="851" d="M59 598q1 33 54 94q16 16 32 41q4 4 31 10q27 4 170 17q70 6 223 10q121 0 176 -8q29 -4 40.5 -14.5t13.5 -34.5q0 -55 -23 -107q-2 -4 -8 -18.5t-15.5 -22.5t-33.5 -12q-51 -8 -168 -8q-113 0 -223 6q-162 8 -189 12q-6 0 -27.5 3t-37 9.5t-15.5 22.5z" />
<glyph unicode="&#x2013;" horiz-adv-x="845" d="M59 598q1 33 54 94q16 16 32 41q4 4 31 10q27 4 170 17q70 6 223 10q121 0 176 -8q29 -4 40.5 -14.5t13.5 -34.5q0 -55 -23 -107q-2 -4 -8 -18.5t-15.5 -22.5t-33.5 -12q-51 -8 -168 -8q-113 0 -223 6q-162 8 -189 12q-6 0 -27.5 3t-37 9.5t-15.5 22.5z" />
<glyph unicode="&#x2014;" horiz-adv-x="1439" d="M51 578l2 22q12 70 60 115q27 23 59 22h8q129 16 324 17q113 0 252 -6q178 -8 403 -50q45 -4 62 -4q66 -4 94 -14q18 -10 33 -29q14 -35 14 -53q0 -43 -332 -72q-90 -4 -239 -4h-78q-264 0 -424 10q-82 6 -160 17q-68 10 -76 18q0 2 -1 4t-1 7z" />
<glyph unicode="&#x2018;" horiz-adv-x="401" d="M43 1501q0 31 27 43q25 10 71 17q10 2 29 2q68 0 100 -64q6 -10 21 -57q25 -76 49 -129q8 -25 8 -51q0 -51 -43 -70q-14 -6 -31 -6q-53 0 -98 65q-37 51 -57 88l-41 68q-35 59 -35 94z" />
<glyph unicode="&#x2019;" horiz-adv-x="366" d="M33 1262q0 27 8 51q25 53 49 129q14 47 21 57q33 63 100 64q18 0 29 -2q47 -6 71 -17q27 -12 27 -43q0 -35 -35 -94l-39 -68q-74 -125 -123 -145q-16 -8 -35 -8q-16 0 -30 6q-43 18 -43 70z" />
<glyph unicode="&#x201a;" horiz-adv-x="1390" d="M618 -72q0 29 11 64q8 27 10 47l6 27q0 12 2 16q16 49 74 49h12q29 0 40 -5t11 -24q0 -16 -4 -26q-2 -12 -12 -31l-31 -76q-31 -68 -53 -84q-16 -10 -29 -10q-25 0 -30 23q-6 12 -7 30z" />
<glyph unicode="&#x201c;" horiz-adv-x="823" d="M74 1501q0 31 26 43q25 10 72 17q10 2 29 2q68 0 100 -64q6 -10 21 -57q25 -76 49 -129q8 -25 8 -51q0 -51 -43 -70q-14 -6 -31 -6q-53 0 -98 65q-37 51 -57 88l-41 68q-35 59 -35 94zM485 1501q0 31 27 43q25 10 72 17q10 2 28 2q68 0 101 -64q6 -10 20 -57 q25 -76 49 -129q8 -25 9 -51q0 -51 -43 -70q-14 -6 -31 -6q-53 0 -99 65q-37 51 -57 88l-41 68q-35 59 -35 94z" />
<glyph unicode="&#x201d;" horiz-adv-x="823" d="M63 1262q0 27 9 51q25 53 49 129q14 47 20 57q33 63 101 64q18 0 28 -2q47 -6 72 -17q27 -12 27 -43q0 -35 -35 -94l-39 -68q-74 -125 -123 -145q-16 -8 -35 -8q-16 0 -31 6q-43 18 -43 70zM475 1262q0 27 8 51q25 53 49 129q14 47 21 57q33 63 100 64q18 0 29 -2 q47 -6 72 -17q26 -12 26 -43q0 -35 -35 -94l-38 -68q-74 -125 -123 -145q-16 -8 -35 -8q-14 0 -31 6q-43 18 -43 70z" />
<glyph unicode="&#x201e;" horiz-adv-x="890" d="M51 -154q0 27 10 64q33 76 62 162q16 55 27 71q41 80 126 80q23 0 35 -2q66 -10 88 -20q33 -15 33 -54q0 -45 -43 -118q-61 -111 -123 -195q-55 -82 -125 -82q-16 0 -35 6q-55 20 -55 88zM430 -154q0 27 10 64q33 76 62 162q16 55 26 71q41 80 127 80q23 0 35 -2 q66 -10 88 -20q33 -15 33 -54q0 -45 -43 -118q-61 -111 -123 -195q-55 -82 -125 -82q-16 0 -35 6q-55 20 -55 88z" />
<glyph unicode="&#x2022;" horiz-adv-x="481" d="M51 600q0 18 2 27q6 31 29 51q25 25 49 41q20 16 53 29q20 6 54 10q16 0 22 2h21q33 -4 41 -8l40 -27l17 -14q8 -12 14 -19q14 -14 27 -39l6 -24q0 -12 -8 -45q-2 -8 -10 -25l-15 -22q-8 -16 -24 -33q-16 -14 -54 -23q-37 -8 -63 -8q-23 -8 -45 -8q-8 -2 -21 -2 q-25 0 -47 8q-27 10 -49 25q-18 10 -27 32q-8 18 -10 41q-2 8 -2 31z" />
<glyph unicode="&#x2026;" horiz-adv-x="1165" d="M41 -4v16q0 25 8 41l17 21q25 23 43 32q23 16 47 25q16 6 45 10q14 0 20 2h17q6 -2 16 -2q20 -2 37 -16l31 -25q6 -8 14 -14q12 -14 20 -35l6 -20q0 -16 -6 -39l-20 -41q-12 -18 -23 -29q-16 -10 -45 -18q-33 -8 -55 -8q-43 -6 -39 -7q-6 -2 -18 -2q-10 0 -39 9 q-29 8 -43 18q-14 12 -23 31q-8 16 -8 35q-2 6 -2 16zM422 -4v16q0 25 8 41l16 21q25 23 43 32q23 16 48 25q16 6 45 10q14 0 20 2h16q6 -2 17 -2q20 -2 37 -16q31 -25 30 -25q6 -8 15 -14q12 -14 20 -35l6 -20q0 -16 -6 -39l-20 -41q-12 -18 -23 -29q-16 -10 -45 -18 q-33 -8 -55 -8q-43 -6 -39 -7q-6 -2 -18 -2q-10 0 -39 9q-29 8 -43 18q-14 12 -23 31q-8 16 -8 35q-2 6 -2 16zM809 -4v16q0 25 8 41l17 21q25 23 43 32q23 16 47 25q16 6 45 10q14 0 20 2h17q6 -2 16 -2q20 -2 37 -16l31 -25q6 -8 14 -14q12 -14 20 -35l6 -20q0 -16 -6 -39 l-20 -41q-12 -18 -23 -29q-16 -10 -45 -18q-33 -8 -55 -8q-43 -6 -39 -7q-6 -2 -18 -2q-10 0 -39 9q-29 8 -43 18q-14 12 -23 31q-8 16 -8 35q-2 6 -2 16z" />
<glyph unicode="&#x202f;" horiz-adv-x="395" />
<glyph unicode="&#x2039;" horiz-adv-x="788" d="M-6 401l6 7l4 8q-2 -2 4 10q0 2 17 18q-8 -8 41 35q-4 -4 51 45q18 16 55 45q37 37 176 131q168 115 244 164q43 27 94 56q35 18 41 18h2q2 0 8 -25q2 -12 2 -39q0 -47 -8 -86q-8 -33 -37 -49q-51 -41 -121 -84l-149 -94q-86 -51 -197 -110q131 -25 299 -76 q66 -25 101 -43q20 -4 20 -35q0 -16 -2 -25q-2 -12 -27 -90l-14 -32l-10 -17q-2 -2 -12 -2q-16 0 -29 4q-63 12 -180 55q-119 45 -191 80q-66 29 -100 56l-37 26l-31 23q-20 18 -20 26z" />
<glyph unicode="&#x203a;" horiz-adv-x="763" d="M66 856v23q4 39 8 59q6 27 10 27q6 0 39 -21q31 -20 84 -59q27 -23 106 -82q96 -74 209 -170q76 -68 113 -105l45 -49l35 -37q12 -12 12 -16v-2l10 -10l6 -11v-6q-10 -18 -20 -26l-72 -52q-37 -27 -102 -55q-84 -41 -191 -80q-117 -43 -176 -55q-20 -6 -32 -6l-11 2 l-6 18q-10 18 -20 78q-8 41 -9 58q0 10 5 30q4 16 16 23q94 43 227 80q59 16 164 39q-96 61 -176 118q-184 133 -244 187q-31 27 -30 100z" />
<glyph unicode="&#x205f;" horiz-adv-x="494" />
<glyph unicode="&#x20ac;" horiz-adv-x="1675" d="M51 745q0 31 43 70q66 59 146 76q49 8 71 10q23 227 121 402q104 188 254 253q8 6 68 23q143 35 276 49q66 6 127 6q111 0 193 -16q154 -29 190 -143q6 -20 6 -48q0 -57 -23.5 -121.5t-49.5 -86.5q-31 -25 -78 -25q-43 0 -99 18q-119 41 -241 41h-37q-84 -2 -191 -47 q-68 -27 -106 -100q-27 -47 -27 -84q0 -16 6 -33q16 -31 56 -31q29 0 55 9q236 76 348 75q90 0 101 -47q6 -31 6 -59q0 -51 -70 -53q-4 0 -135 -15q-147 -20 -219 -28q-72 -10 -72 -62q0 -51 49 -51h6l39 10l99 27q129 39 190 39q98 0 98 -121q0 -23 -30 -39 q-39 -18 -101 -20q-45 0 -137 -11q-127 -14 -139 -16q-61 -16 -84 -33q-35 -29 -35 -61q0 -6 4 -23q8 -27 10 -45q4 -37 66 -80q76 -51 156 -51h8q104 0 202 74q162 123 261 139q10 2 30 2q57 0 88 -43q29 -41 29 -127q0 -164 -156 -258q-121 -72 -348 -90q-27 -2 -76 -2 q-242 0 -411 127q-174 131 -242 371q-61 -10 -113 -11q-25 0 -49 4q-35 2 -34 52v14q8 59 55 68l53 6l59 6q-6 33 -10 102l-63 -6q-37 -4 -80 -12q-49 -8 -62 -8q-18 0 -34 8t-17 26z" />
<glyph unicode="&#x2122;" horiz-adv-x="434" d="M59 1421v17q0 25 9 41q8 14 36 39l21 14q20 14 49 24q12 4 45 11l37 2q6 -2 16 -2q20 -2 37 -17q31 -25 31 -24q6 -8 14 -15q12 -14 21 -34l6 -21q0 -16 -6 -39l-21 -41q-18 -27 -22 -28q-16 -10 -45 -19q-37 -8 -56 -8q-43 -6 -38 -6q-6 -2 -19 -2q-8 0 -41 8 q-27 6 -41 18t-22 31q-8 16 -9 35q-2 6 -2 16zM72 1438l2 -15v-12q0 -10 4 -27q2 -12 14 -20q6 -10 25 -16l12 -9q18 -8 47 -8q16 0 27 2l26 4h13h12q8 0 25 4q14 2 30 15q4 2 13 10l12 12q8 8 24 33q8 20 9 35v8q-4 27 -11 37q-10 16 -24 29l-17 8l-18 8q-4 2 -27 12 q-8 4 -28 4l-103 -32l-20 -13q-10 -6 -31 -26q-14 -18 -14 -33zM117 1462v4v4q0 14 10 15h16q6 -2 17 -2q10 0 14 2q8 0 12 -2h4h3q2 -2 2 -8v-2v-9q0 -4 2 -6v-6q0 -4 -11 -4q-2 2 -8 2q-8 0 -8 -4v-29v-22q0 -10 -10 -11q-12 4 -13 5q-4 0 -4 4v4q4 20 4 35v10l-4 4h-4h-2 h-2h-2h-2q-12 0 -12 8v2q-2 2 -2 6zM213 1395q2 6 2 16v16v19q0 14 6 33l12 6h9q18 0 18 -17q0 -4 2 -6q0 -8 4 -20q0 -4 2 -4l4 4l4 8l4.5 9t4.5 11q2 2 2 9q0 4 6 6h8h6h4l6 -6q4 -20 5 -60v-16q0 -10 -7 -14q-2 -2 -8 -3h-6l-4 -2q-8 0 -8 7v12v4v6v6l-2 4h-2 q-2 0 -6 -10q0 -4 -4.5 -8t-6.5 -4q-8 0 -10 8l-2 12q-2 6 -6 6t-4 -6l2 -4l-2 -20q-2 -4 -5 -7.5t-5 -3.5h-7q-16 0 -16 9z" />
<glyph unicode="&#x25fc;" horiz-adv-x="1054" d="M0 0v1055h1055v-1055h-1055z" />
<glyph unicode="&#xfb01;" horiz-adv-x="1335" d="M-20 1366q0 137 88 201q115 82 268 82q70 0 100 -9q119 -33 166 -93t60 -167q2 -18 2 -61q0 -158 -37 -322q-59 -270 -164 -393q0 -25 12 -53q10 -23 12 -53q20 37 66 98q25 33 39 47l143 -237q-18 -23 -39 -31q-49 -23 -80 -53q-20 -20 -38 -64q33 -119 59 -192 q78 -231 88 -349q2 -16 2 -47q0 -156 -86 -235q-100 -92 -246 -119q-8 -2 -26 -2q-68 0 -140 47q-88 53 -110 117q-33 86 -33 248q0 86 8 161q27 283 156 549l-31 -35q-36 -40 -67 -63q-25 -20 -62 -41l-92 274q72 2 117 31q31 18 71 70q-49 160 -92 276q-94 250 -110 361 q-4 37 -4 57zM264 1333q0 -53 15 -116q12 -72 83 -302q6 14 30 69.5t43.5 119t19.5 125.5v18q-6 80 -174 154q-16 -18 -17 -68zM311 -201q0 -41 13 -94q27 -104 82 -104q27 0 47 30q33 47 32 121q0 35 -6 72q-12 80 -73 278q-94 -154 -95 -303zM797 219q-1 61 24 141 q23 74 39 179l29 170q8 51 8 65q4 66 9 93.5t20.5 39t52.5 11.5q33 0 65 -9q76 -4 119 -10q45 -8 56 -100q27 -289 26 -424v-29l-2 -196q0 -92 -22.5 -121t-87.5 -29q-33 0 -52 2q-147 6 -215.5 48t-68.5 169zM911 1331q0 143 123 144q31 0 56 -9q98 -23 150 -91t52 -154 q0 -113 -78 -136q-49 -14 -84 -14q-45 0 -96 31t-87 90t-36 139z" />
<glyph unicode="&#xfb02;" horiz-adv-x="1134" d="M-20 1366q0 137 88 201q115 82 268 82q70 0 100 -9q119 -33 166 -93t60 -167q2 -18 2 -61q0 -158 -37 -322q-59 -270 -164 -393q0 -25 12 -53q10 -23 12 -53q20 37 66 98q25 33 39 47l143 -237q-18 -23 -39 -31q-49 -23 -80 -53q-20 -20 -38 -64q33 -119 59 -192 q78 -231 88 -349q2 -16 2 -47q0 -156 -86 -235q-100 -92 -246 -119q-8 -2 -26 -2q-68 0 -140 47q-88 53 -110 117q-33 86 -33 248q0 86 8 161q27 283 156 549l-31 -35q-36 -40 -67 -63q-25 -20 -62 -41l-92 274q72 2 117 31q31 18 71 70q-49 160 -92 276q-94 250 -110 361 q-4 37 -4 57zM264 1333q0 -53 15 -116q12 -72 83 -302q6 14 30 69.5t43.5 119t19.5 125.5v18q-6 80 -174 154q-16 -18 -17 -68zM311 -201q0 -41 13 -94q27 -104 82 -104q27 0 47 30q33 47 32 121q0 35 -6 72q-12 80 -73 278q-94 -154 -95 -303zM788 684v127q0 309 15 530 q6 117 18 201q8 78 25 94q2 2 12 2q16 0 27 -2q92 -16 145 -73q29 -33 29 -78v-8q20 -164 20 -385q0 -129 -10 -334q-12 -217 -59 -506q-6 -39 -6 -74q-4 -86 -19 -119q-8 -23 -35 -43q-49 -16 -67 -16q-55 0 -88 414q-6 78 -7 270z" />
</font>
</defs>
</svg>
